<svg width="120" height="131" viewBox="0 0 120 131" fill="none" xmlns="http://www.w3.org/2000/svg">
<path d="M60.6889 0.785858C60.1267 1.29697 59.4878 2.03807 59.2834 2.44696C59.0789 2.83029 58.7467 3.16252 58.5423 3.16252C57.9801 3.16252 55.3478 4.92585 55.1945 5.41141C54.9389 6.20363 54.6578 6.61252 54.4278 6.48474C54.3001 6.40807 54.2234 6.20363 54.2234 6.02474C54.3001 5.53919 53.9678 5.66697 53.2267 6.43363C52.7923 6.89363 52.5878 7.30252 52.6901 7.66029C52.8689 8.29918 51.8467 8.91252 50.9012 8.73363C50.1345 8.58029 48.8056 9.78141 49.0356 10.4203C49.1378 10.6759 49.0612 10.7525 48.8312 10.6758C48.5756 10.5736 48.499 10.727 48.5245 11.2636C48.5756 11.8258 48.4734 11.9792 48.0389 11.9792C47.3745 12.0047 45.6367 13.487 44.9723 14.6114C44.6401 15.1992 44.3334 15.4292 44.0523 15.327C43.7201 15.2503 43.5923 15.3781 43.5923 15.7103C43.5923 16.0936 43.4134 16.1959 42.6978 16.1959C41.9823 16.1959 41.8034 16.2981 41.8034 16.6814C41.8034 17.4225 41.3434 17.6014 40.7812 17.0903C40.3467 16.6814 40.0656 16.6559 38.4301 16.9114C37.4078 17.0647 36.3856 17.1925 36.1812 17.167C35.9767 17.167 34.8267 17.2947 33.6512 17.4736L31.5301 17.7547L30.4056 16.6047C29.7923 15.9914 29.2812 15.3781 29.2812 15.2503C29.2812 15.1225 28.8978 14.8925 28.4378 14.7136C27.9778 14.5603 27.3901 14.0492 27.1345 13.6147C26.6745 12.8481 26.6234 12.8225 26.3167 13.257C26.1123 13.5125 25.8056 13.6403 25.5756 13.5381C25.2434 13.4103 25.1923 13.2059 25.3201 12.567L25.4989 11.7236L24.9623 12.2092C24.4001 12.7203 24.4001 12.7203 23.3267 11.647C22.7134 11.0336 21.9978 10.5736 21.6656 10.5736C21.3334 10.5736 21.1034 10.4203 21.1034 10.1903C21.1034 10.0114 20.9501 9.7303 20.7712 9.62807C20.5667 9.52585 20.3623 9.16807 20.2856 8.8614C20.1578 8.4014 20.2601 8.27363 20.8223 8.19696C21.3334 8.12029 21.2567 8.09474 20.5412 8.04363C19.9534 8.04363 19.3656 7.81363 19.0589 7.50697C18.5223 6.9703 18.0367 6.84252 18.0367 7.22585C18.0367 7.35363 18.2156 7.53252 18.4456 7.60918C19.0589 7.83918 18.5989 8.29918 17.8834 8.12029C17.2189 7.9414 17.0912 8.24807 17.5767 8.73363C17.9856 9.14252 17.5256 9.14252 16.6312 8.73363C16.0689 8.47807 15.9156 8.50363 15.7367 8.78474C15.5067 9.16807 15.4556 9.09141 15.0723 7.81363C15.0212 7.60918 15.2512 7.50697 15.7367 7.50697C16.4523 7.50697 17.1934 6.76585 16.8612 6.40807C16.6312 6.20363 14.4589 7.30252 14.4589 7.60918C14.4589 7.76252 14.6378 8.22252 14.8423 8.63141C15.0467 9.01474 15.1745 9.44918 15.0978 9.55141C14.8167 10.0114 15.5323 10.0881 15.9923 9.67918C16.3245 9.37252 16.6823 9.29585 17.2445 9.42363C18.0623 9.60252 18.3434 10.0625 17.6534 10.0625C17.4489 10.0625 17.2701 10.2925 17.2701 10.5736C17.2701 10.8547 17.4489 11.0847 17.6278 11.0847C18.1901 11.0847 19.3145 12.6947 19.3145 13.4614C19.3145 14.3047 20.7201 15.4292 21.7678 15.4292C22.6878 15.4292 22.9434 15.6081 23.3523 16.5536C23.6334 17.1925 23.6078 17.3203 23.2245 17.627C22.7901 17.9847 22.7901 18.0103 23.3523 18.3936C24.1701 19.007 24.0423 19.2625 22.9945 19.0836L22.0745 18.9303L22.2534 19.7992C22.4578 20.7703 22.9689 21.9714 23.4545 22.6358C23.7101 23.0192 23.6845 23.147 23.3267 23.4281C23.0712 23.607 22.8156 24.0414 22.7645 24.3736C22.7134 24.7314 22.5601 25.3958 22.4067 25.8558C22.2789 26.3414 22.2278 27.0825 22.3045 27.4914L22.4578 28.2836L21.2312 28.1303C20.5667 28.0281 19.8256 27.9514 19.5956 27.9514C19.2634 27.9514 19.2123 27.7214 19.2634 26.7247C19.3401 25.8303 19.2378 25.3959 18.9567 25.1659C18.7267 24.9614 18.5478 24.6292 18.5478 24.3736C18.5478 24.1436 18.2667 23.5047 17.9089 22.9936C17.4234 22.2781 17.3212 21.9458 17.5256 21.5625C17.7301 21.2047 17.6534 21.0258 17.1423 20.6936C16.3756 20.1825 16.3245 19.7736 17.0401 19.5947C17.5512 19.4414 17.5512 19.4414 17.0656 18.9047C16.2734 18.0359 15.9412 17.2692 16.2989 17.167C16.5034 17.0903 16.4267 16.7325 16.0434 15.9914C15.5578 15.0714 15.5323 14.8925 15.8645 14.7647C16.0945 14.6625 16.2478 14.2792 16.2478 13.7681C16.2478 13.0525 16.1712 12.9503 15.7623 13.0525C15.1234 13.2059 14.8678 12.7714 15.3534 12.3625C15.5578 12.1836 15.7367 11.877 15.7367 11.6725C15.7367 11.3403 15.6601 11.3403 15.3534 11.5958C15.0467 11.8514 14.9445 11.8259 14.8167 11.4936C14.5356 10.7781 14.2034 11.0592 14.2034 11.9792C14.2034 12.4903 14.3823 13.7681 14.6123 14.8158C14.8167 15.8892 14.9445 16.8092 14.8678 16.8858C14.7912 16.9625 14.8934 17.397 15.0978 17.8825C15.2767 18.3425 15.3789 18.9559 15.3023 19.2114C15.2256 19.5181 15.3789 19.927 15.6856 20.2336C15.9923 20.5403 16.1456 20.9492 16.0689 21.2559C16.0178 21.537 16.0689 21.8436 16.2223 21.9203C16.3756 22.0225 16.4267 22.4059 16.3501 22.7892C16.2478 23.3003 16.3756 23.6325 16.8612 24.0925C17.4234 24.6292 17.5001 24.8592 17.3723 25.7536C17.1423 27.1847 16.6312 27.9514 15.8389 27.9514C15.2001 27.9514 15.0467 27.747 14.8934 26.7503C14.8423 26.4436 14.5867 25.9325 14.3312 25.6514C13.9478 25.217 13.8967 25.0125 14.1267 24.6547C14.5101 24.0414 13.7178 22.457 13.0278 22.4314C12.1078 22.3803 12.0312 22.3036 12.4912 21.9714C12.9256 21.6392 12.9001 21.5881 12.1334 21.2047C11.6734 20.9747 11.1112 20.7959 10.8301 20.7959C10.2934 20.7959 10.2423 20.5147 10.6767 20.0803C10.8812 19.8759 10.8812 19.697 10.6767 19.4414C10.4467 19.1859 10.4467 19.0325 10.6767 18.8025C10.8556 18.6236 10.8812 18.4703 10.7278 18.4703C10.6001 18.4447 10.3189 18.4192 10.1145 18.3936C9.8845 18.3936 9.70561 18.0614 9.6545 17.6014C9.60339 17.0647 9.32228 16.6559 8.83672 16.3236C8.37672 16.017 8.07006 15.5825 8.07006 15.2503C8.07006 14.8414 7.89117 14.6881 7.38006 14.6114C6.81784 14.5603 6.6645 14.407 6.71561 13.9725C6.79228 13.1803 6.12784 12.6947 5.48895 13.0781C4.79895 13.5125 4.49228 13.4614 4.49228 12.8736C4.49228 12.5925 4.39006 12.3625 4.23672 12.3625C4.10895 12.3625 4.05784 12.7203 4.10895 13.1803C4.3645 14.7903 4.44117 15.6847 4.33895 15.6847C4.26228 15.6847 3.95561 15.5058 3.62339 15.2758C3.03561 14.9181 2.9845 14.9181 2.83117 15.4292C2.72895 15.7359 2.2945 16.1192 1.86006 16.2725C1.04228 16.5536 1.04228 16.5536 1.68117 16.707C2.0645 16.7836 2.34561 17.0647 2.39672 17.397C2.47339 17.8314 2.37117 17.9081 1.8345 17.8059C1.34895 17.7036 1.17006 17.7803 1.17006 18.0614C1.17006 18.2914 0.940058 18.5214 0.684502 18.6236C-0.33772 18.9303 -0.184387 21.6136 0.940057 22.8403C1.78339 23.7347 1.78339 24.067 0.940057 23.607C0.301169 23.2747 0.224502 23.6581 0.81228 24.1436C1.04228 24.3225 1.1445 24.6803 1.06784 24.9614C0.991169 25.2425 1.04228 25.7025 1.19561 25.9581C1.40006 26.3414 1.34895 26.4181 0.914502 26.4181C0.250057 26.4181 0.250057 27.0825 0.914502 27.4403C1.19561 27.5936 1.42561 27.9258 1.42561 28.207C1.42561 28.4881 1.88561 28.9992 2.57561 29.4847C3.2145 29.9192 3.85339 30.5325 4.00672 30.8392L4.31339 31.3758L4.54339 30.7625C4.74784 30.2003 4.79895 30.2003 5.18228 30.5836C5.5145 30.8903 5.54006 31.1203 5.33561 31.5803C5.13117 32.0658 5.20784 32.2447 5.82117 32.7558C6.23006 33.1136 6.51117 33.5225 6.46006 33.6758C6.40895 33.8292 6.63895 34.1614 6.97117 34.417C7.30339 34.6725 7.55895 35.1581 7.55895 35.5158C7.55895 35.8992 7.71228 36.1292 7.94228 36.1292C8.17228 36.1292 8.40228 36.3081 8.47895 36.5125C8.58117 36.717 8.78561 36.8958 8.99006 36.8958C9.1945 36.8958 9.34784 37.0747 9.34784 37.2792C9.34784 37.4836 9.14339 37.6625 8.91339 37.6625C8.58117 37.6625 8.68339 37.8414 9.27117 38.3525C10.0634 39.0425 11.1367 40.8058 11.1367 41.3936C11.1367 41.547 11.3923 41.8792 11.6734 42.1603C11.9801 42.4158 12.3889 43.0292 12.5934 43.4636C12.7723 43.9236 13.0534 44.307 13.1812 44.307C13.3345 44.307 13.4367 44.4603 13.4367 44.6647C13.4367 45.3803 15.0978 48.217 15.6856 48.4725C16.0178 48.6258 16.3501 49.0603 16.4267 49.4692C16.5034 49.8525 16.6312 50.1847 16.7334 50.1847C16.9634 50.1847 17.7301 51.7181 17.8323 52.357C17.8834 52.6381 18.1645 52.9703 18.4967 53.1236C18.8801 53.3025 19.0589 53.5836 19.0589 54.0947C19.0589 54.4781 19.2123 55.117 19.4167 55.5003C19.5956 55.8836 19.8256 56.6247 19.9278 57.187C20.1323 58.2858 20.5667 59.1547 21.0267 59.4614C21.2567 59.6147 21.2823 59.8192 21.0523 60.2792C20.7967 60.8414 20.8478 61.0203 21.4356 61.6336C21.8189 62.0425 22.1256 62.4514 22.1256 62.5536C22.1256 62.6814 22.3045 62.9114 22.5601 63.0903C22.9434 63.3714 22.9178 63.4736 22.2789 64.2914C21.5634 65.237 21.0523 65.4414 17.6278 66.1314C16.6056 66.3358 15.3278 66.7447 14.7656 67.0258C13.0023 67.9203 9.85895 70.6547 8.30006 72.6225C5.56561 76.047 4.5945 78.9347 4.8245 83.1514C5.00339 86.6525 5.71895 89.0547 8.47895 95.5459C11.6989 103.034 12.1845 103.877 14.7401 106.407C18.8545 110.445 20.3367 111.774 20.7967 111.774C21.3078 111.774 22.1767 112.285 21.6656 112.285C21.4356 112.285 21.4101 112.413 21.5889 112.77C21.7934 113.128 21.7678 113.281 21.5123 113.384C21.1034 113.537 20.8478 115.556 21.2312 115.709C21.3589 115.76 21.2056 116.093 20.8734 116.45C20.2856 117.089 20.2856 117.14 20.6945 117.779C21.3078 118.699 21.7678 118.827 22.7901 118.341C23.6589 117.907 24.0167 117.064 23.2501 117.191C22.6878 117.294 22.2534 116.144 22.7645 115.939C22.9945 115.863 23.3778 115.863 23.6589 115.939C24.0678 116.041 24.1701 115.939 24.1701 115.479C24.1701 115.147 24.0678 114.61 23.9401 114.278C23.6334 113.46 24.0167 112.489 24.6045 112.719C24.8345 112.821 24.9112 112.924 24.7578 112.975C24.2978 113.128 24.7067 114.074 25.2178 114.074C25.4989 114.074 25.7034 114.176 25.7034 114.329C25.7034 114.457 25.5245 114.585 25.3201 114.585C24.7834 114.585 24.8345 115.249 25.4734 115.888C25.8056 116.22 25.9334 116.578 25.8312 116.91C25.7289 117.243 25.7801 117.396 26.0612 117.396C26.2912 117.396 26.4701 117.498 26.4701 117.651C26.4701 117.779 26.2912 117.907 26.0867 117.907C25.8823 117.907 25.7034 118.009 25.7034 118.163C25.7034 118.29 25.8312 118.418 25.9589 118.418C26.1123 118.418 26.2145 118.571 26.2145 118.75C26.2145 119.108 25.2434 119.159 24.7067 118.827C24.1701 118.495 23.1478 118.878 23.1223 119.44C23.0456 120.488 23.0201 120.59 22.6367 120.59C22.4323 120.59 22.2789 120.386 22.2789 120.13C22.3045 119.9 22.1767 119.696 21.9723 119.696C21.5123 119.696 21.2823 120.13 21.6656 120.284C21.8956 120.36 21.7934 120.565 21.3845 120.871L20.7712 121.306L21.3334 121.536C22.0489 121.791 21.7934 122.251 20.9501 122.251C20.5667 122.251 20.3367 122.405 20.3367 122.635C20.3367 123.069 20.7967 123.12 21.7167 122.763C22.3556 122.533 22.3812 122.558 22.2278 123.171C22.0745 123.81 22.1001 123.836 22.8667 123.657C23.6845 123.478 23.8123 123.631 23.5056 124.398C23.2756 125.037 21.6912 124.935 21.4867 124.296C21.3845 124.015 21.2056 123.836 21.0778 123.913C20.9501 123.989 20.6434 123.964 20.4134 123.836C20.1578 123.708 19.4423 123.529 18.8289 123.427C17.9089 123.274 17.7556 123.325 17.8578 123.657C17.9601 123.861 17.9089 124.04 17.7812 124.04C17.6278 124.04 17.5256 124.143 17.5256 124.296C17.5256 124.424 17.7045 124.551 17.9089 124.551C18.1134 124.551 18.2923 124.73 18.2923 124.96C18.2923 125.241 18.4456 125.318 18.8034 125.19C19.4678 124.986 21.1801 126.008 21.0012 126.494C20.9245 126.698 20.9756 126.851 21.1034 126.851C21.2567 126.851 21.7934 127.26 22.3045 127.746C22.8156 128.231 23.4545 128.717 23.7101 128.794C24.0423 128.896 24.1445 129.1 24.0423 129.381C23.9656 129.637 24.0678 129.969 24.2723 130.148C24.5534 130.378 24.8601 130.301 25.7545 129.688C26.7256 129.024 27.0578 128.947 28.5145 128.998C29.4345 129.049 30.4567 129.177 30.8145 129.33C31.3512 129.56 31.4534 129.535 31.5301 129.1C31.6323 128.564 32.4756 128.564 32.4756 129.1C32.4756 129.458 32.5778 129.484 33.1145 129.305C33.319 129.228 33.7278 129.151 34.0089 129.1C34.2901 129.049 34.6478 128.743 34.8012 128.436C34.9545 128.104 35.3378 127.669 35.6445 127.465C35.9256 127.26 36.1812 126.954 36.1812 126.826C36.1812 126.698 36.4367 126.238 36.7178 125.855C37.0245 125.446 37.1778 124.986 37.1012 124.833C36.999 124.679 37.1778 124.449 37.5356 124.321C37.8678 124.194 38.2256 123.887 38.3278 123.657C38.5578 122.993 38.5067 122.2 38.2256 122.379C38.0978 122.456 37.9701 122.354 37.9701 122.149C37.9701 121.919 38.1234 121.74 38.3278 121.74C38.9156 121.74 39.2734 121.127 38.9156 120.744C38.6856 120.488 38.7112 120.386 39.069 120.181C39.299 120.028 39.5034 119.696 39.5034 119.415C39.5034 118.674 40.1423 117.294 40.7301 116.731C41.3434 116.118 41.599 114.687 41.1134 114.304C40.4234 113.716 40.7301 113.128 41.8034 112.949C42.8512 112.796 43.0301 112.591 42.5445 112.106C42.2378 111.799 42.8767 109.985 43.3112 109.985C43.4645 109.985 43.5923 109.857 43.5923 109.729C43.5923 109.576 43.4134 109.474 43.209 109.474C42.6467 109.474 42.7489 108.937 43.3367 108.784C43.6945 108.681 43.8223 108.503 43.7201 108.196C43.6178 107.889 43.8478 107.531 44.3589 107.097C44.7678 106.739 45.1256 106.279 45.1256 106.1C45.1512 105.615 47.4767 104.107 48.269 104.107C48.6267 104.107 49.4445 103.954 50.0323 103.749C50.6456 103.545 51.5401 103.391 52.0256 103.391C52.5112 103.391 53.1245 103.315 53.3801 103.213C53.6356 103.11 53.9167 103.085 53.9934 103.187C54.0701 103.264 54.3001 103.213 54.5045 103.059C54.7601 102.829 55.1434 103.11 56.2423 104.26C57.0345 105.104 57.7245 106.049 57.8267 106.381C57.9034 106.739 58.3634 107.404 58.8489 107.889C59.3345 108.375 59.6667 108.911 59.5901 109.09C59.5134 109.295 59.6412 109.576 59.8456 109.729C60.0501 109.908 60.2034 110.266 60.2034 110.547C60.2034 110.93 60.3312 111.007 60.7145 110.879C61.1234 110.751 61.2001 110.803 61.0723 111.135C60.9701 111.39 61.1234 111.876 61.4556 112.285C61.7367 112.694 61.9923 113.307 61.9923 113.665C61.9923 114.023 62.1201 114.38 62.2734 114.457C62.4012 114.559 62.8356 115.249 63.1934 116.016C63.5512 116.783 63.9345 117.396 64.0623 117.396C64.1645 117.396 64.8801 118.393 65.6212 119.594C66.3623 120.795 67.2567 121.945 67.6145 122.124C68.6623 122.66 70.119 122.839 70.8856 122.533C71.4478 122.303 71.8567 122.328 73.0834 122.763C74.949 123.401 75.4856 123.401 76.3034 122.763C76.6612 122.481 77.1467 122.251 77.4023 122.251C77.8112 122.251 80.5712 120.207 80.9545 119.594C81.0823 119.389 81.2867 119.415 81.6701 119.645C82.2834 120.028 82.8201 119.747 83.0756 118.904C83.1778 118.648 83.459 118.418 83.7145 118.418C84.3278 118.418 85.069 117.038 84.9156 116.22C84.8645 115.863 84.8901 115.147 84.9923 114.585C85.1201 113.844 85.0945 113.563 84.839 113.46C84.6345 113.384 84.4812 113.103 84.4812 112.847C84.4812 112.566 84.3023 112.208 84.0978 112.029C83.8934 111.85 83.7145 111.569 83.7145 111.39C83.7145 111.237 83.4334 110.956 83.1012 110.803C82.769 110.649 82.3345 110.189 82.1556 109.755C81.9512 109.32 81.4912 108.835 81.0823 108.681C80.6223 108.477 80.4178 108.247 80.4945 108.017C80.6734 107.583 79.9834 106.151 79.6001 106.151C79.4467 106.151 79.3956 105.87 79.4978 105.41C79.6001 104.899 79.4978 104.337 79.1401 103.621C78.8334 103.059 78.6034 102.369 78.6034 102.114C78.6034 101.858 78.3734 101.424 78.0923 101.168C77.4534 100.606 77.4278 99.8647 78.0412 99.5325C78.4501 99.3025 78.4501 99.277 78.0412 99.1236C77.7856 99.0214 77.5812 98.6892 77.5812 98.357C77.5812 98.0247 77.479 97.6925 77.3512 97.6159C77.249 97.5392 77.2489 96.8236 77.4023 96.0314C77.5812 94.9836 77.5556 94.4214 77.3512 94.0892C76.9934 93.527 76.9678 92.0959 77.3256 92.0959C77.4789 92.0959 77.5812 91.9425 77.5812 91.7636C77.5812 91.3547 78.6545 90.3581 79.7023 89.8214C81.6956 88.7481 82.1045 88.5436 82.8201 88.2625C83.2545 88.0836 83.7912 87.8536 84.0212 87.7259C84.2767 87.5981 84.7623 87.4959 85.1201 87.4959C85.4778 87.4959 85.7589 87.3681 85.7589 87.2403C85.7589 87.087 86.0401 86.9847 86.3978 86.9847C86.9856 86.9847 87.4456 86.8059 88.5701 86.167C90.1545 85.2725 92.9912 84.1736 93.7323 84.1736C94.1667 84.1736 94.8056 84.0203 95.1634 83.8159C95.5467 83.637 96.5434 83.3303 97.3612 83.177C98.2556 83.0236 99.0734 82.6914 99.3545 82.3847C99.6101 82.1036 100.121 81.8736 100.453 81.8736C100.811 81.8736 101.45 81.6436 101.91 81.3625C102.37 81.0814 102.983 80.8514 103.265 80.8514C103.546 80.8514 104.696 80.4936 105.846 80.0336C107.711 79.3181 107.967 79.1392 108.478 78.1425C109.015 77.1459 109.04 77.0181 108.657 76.3281C108.452 75.9447 108.171 75.3825 108.043 75.1014C107.89 74.8203 107.481 74.4114 107.123 74.2325C106.127 73.6703 106.229 72.7758 107.353 72.4181C107.839 72.2647 108.248 72.0347 108.248 71.9581C108.248 71.8558 108.81 71.4981 109.5 71.1658C110.216 70.8336 110.982 70.3481 111.212 70.0925C111.442 69.8114 111.928 69.607 112.26 69.607C112.567 69.607 112.848 69.5047 112.848 69.3514C112.848 69.2236 113.155 69.0192 113.563 68.9425C113.947 68.8403 114.509 68.4825 114.816 68.1503C115.122 67.8436 115.531 67.5625 115.71 67.5625C115.889 67.5625 116.298 67.1025 116.604 66.5658C117.013 65.8758 117.32 65.5947 117.627 65.6714C117.933 65.7225 118.368 65.3647 118.93 64.5981C120.182 62.8603 120.182 62.7836 118.981 61.557C118.112 60.6881 117.652 60.4325 116.707 60.2792C114.841 60.0236 114.662 59.9214 114.151 58.8481L113.666 57.8514H114.279C114.713 57.8514 114.892 57.6981 114.892 57.3658C114.892 57.1103 115.071 56.8036 115.276 56.727C115.506 56.6503 115.966 55.9347 116.323 55.1681C116.681 54.4014 117.141 53.7625 117.346 53.7625C117.55 53.7625 117.703 53.6347 117.703 53.507C117.703 53.3536 117.984 53.1236 118.342 52.9958C118.802 52.817 118.981 52.5614 118.981 52.1014C118.981 51.7436 119.083 51.4625 119.211 51.4625C119.518 51.4625 119.237 50.2358 118.828 49.9036C118.623 49.7503 118.47 49.4692 118.47 49.2903C118.47 48.6003 116.093 47.3736 115.787 47.9103C115.685 48.0381 115.429 48.1403 115.173 48.1403C114.918 48.1403 114.56 48.3192 114.381 48.5236C114.202 48.7281 113.819 48.907 113.512 48.907C113.206 48.907 112.72 49.0858 112.439 49.2903C112.132 49.4692 111.519 49.6481 111.033 49.6225C110.548 49.597 109.96 49.6736 109.73 49.7758C109.398 49.9292 109.27 49.8781 109.27 49.5714C109.27 49.3414 109.142 49.1625 109.015 49.1625C108.861 49.1625 108.759 49.367 108.81 49.597C108.861 49.9547 108.708 50.057 108.12 50.057C107.456 50.057 107.328 49.9292 107.098 49.0603C106.944 48.5236 106.612 47.9358 106.382 47.757C106.101 47.5525 105.999 47.2714 106.101 46.9903C106.203 46.7347 106.127 46.4536 105.922 46.3258C105.718 46.2236 105.539 45.9936 105.539 45.8403C105.513 45.7125 105.488 45.457 105.462 45.3292C105.462 45.1758 105.207 45.0736 104.951 45.0736C104.67 45.0736 104.363 44.9458 104.287 44.8181C104.006 44.3836 103.213 44.537 102.421 45.2014C101.629 45.8658 101.092 46.0192 101.092 45.5847C101.092 44.997 100.556 45.3803 100.428 46.0703C100.326 46.5047 100.121 46.8881 99.9167 46.9647C99.7378 47.0414 99.2778 47.5525 98.9201 48.1403C98.5623 48.7025 98.1023 49.1625 97.8978 49.1625C97.6934 49.1625 97.5145 49.2903 97.5145 49.4181C97.5145 49.5714 97.2334 49.8014 96.9012 49.9547C96.4923 50.1592 96.2367 50.5425 96.109 51.1047C96.0323 51.5903 95.8278 51.9736 95.7001 51.9736C95.189 51.9736 93.1701 53.8392 93.1701 54.2992C93.1701 54.6314 92.9912 54.7847 92.6334 54.7847C92.2245 54.7847 92.1223 54.9125 92.2245 55.2958C92.3267 55.6536 92.1223 55.9603 91.5601 56.3692C91.1001 56.6503 90.4356 57.187 90.0778 57.5192L89.4134 58.1325L88.6212 56.8547C88.0078 55.8325 87.6756 55.5514 86.9601 55.4236C86.4489 55.3214 85.8867 55.347 85.6823 55.4747C85.1712 55.7559 81.159 60.2792 81.159 60.5858C81.159 61.1225 80.0601 62.9114 79.2678 63.627C78.4245 64.3936 77.8367 65.7736 77.8367 66.9747C77.8367 67.307 77.9389 67.5625 78.0667 67.5625C78.1689 67.5625 77.9134 67.9714 77.4278 68.457C76.9678 68.9425 76.4823 69.3514 76.3289 69.3514C76.1756 69.3514 76.0478 69.5814 76.0478 69.8625C76.0478 70.2714 75.869 70.3736 75.1534 70.3736C74.3356 70.3736 74.2589 70.297 74.2589 69.6581C74.2589 69.2747 74.3867 68.8147 74.5145 68.687C74.7189 68.4825 74.6678 68.3036 74.3867 68.0736C74.1312 67.8692 74.0034 67.307 74.0034 66.4892C74.0034 65.7992 73.8756 65.007 73.7478 64.7514C73.5945 64.4703 73.4412 63.7036 73.3901 63.0392C73.3134 62.3492 73.2367 61.6847 73.1856 61.5314C73.0834 61.1481 74.7445 59.0781 75.0256 59.257C75.2301 59.3847 75.8945 58.8736 78.7056 56.4458C79.2678 55.9603 80.0345 55.5003 80.4178 55.4236C80.8012 55.3214 81.2612 55.0914 81.4401 54.887C81.5934 54.6825 81.8745 54.5292 82.0534 54.5292C82.2578 54.5292 82.6156 54.2481 82.8967 53.8903C83.1778 53.5325 83.5612 53.2514 83.7656 53.2514C83.9701 53.2514 84.4045 52.9703 84.7367 52.6125C85.069 52.2547 85.6056 51.9736 85.9378 51.9736C86.2701 51.9736 86.7812 51.6925 87.0878 51.3347C87.3945 50.977 87.7778 50.6958 87.9567 50.6958C88.1101 50.6958 88.3912 50.5425 88.5445 50.3381C88.7234 50.1336 89.1834 49.9036 89.5412 49.8014C89.9245 49.7247 91.3812 48.8558 92.7867 47.8847C94.1667 46.8881 95.5212 46.0958 95.7512 46.0958C95.9812 46.0958 96.3645 45.8147 96.5945 45.457C96.8245 45.0992 97.1312 44.8181 97.2845 44.8181C97.4378 44.8181 97.8212 44.4858 98.1534 44.077C98.5112 43.6936 99.1501 43.2081 99.6101 43.0036C100.07 42.8247 100.658 42.3903 100.913 42.0836C101.603 41.2403 102.728 40.7036 104.798 40.2947C105.769 40.0903 106.868 39.7325 107.226 39.477C107.583 39.2214 108.12 38.9403 108.427 38.8381C108.759 38.7358 109.193 38.4036 109.449 38.0714C109.704 37.7647 110.241 37.2792 110.65 37.0236C111.544 36.4358 112.618 35.3625 113.18 34.5192C113.41 34.1614 114.228 33.4203 114.994 32.8836C115.787 32.347 116.451 31.6825 116.477 31.4014C116.528 31.1203 116.707 30.9158 116.886 30.967C117.397 31.0692 118.138 30.0214 118.496 28.7181C118.675 28.0792 118.904 27.4403 119.007 27.3125C119.288 26.9292 118.981 24.9359 118.598 24.6292C118.419 24.4759 117.703 24.297 116.988 24.1947C115.812 24.067 115.685 23.9903 115.557 23.2747C115.48 22.8659 115.403 22.2014 115.403 21.7925C115.403 21.2303 115.276 21.0514 114.918 21.0514C114.356 21.0514 113.103 22.5081 113.257 22.9681C113.436 23.377 112.465 24.1692 111.928 24.067C111.672 24.0414 111.391 23.6581 111.289 23.2492C111.059 22.4314 110.676 22.0736 109.986 22.0736C109.628 22.0736 109.526 22.2781 109.526 23.0703C109.526 24.1947 109.193 24.4503 107.967 24.1947C107.404 24.0925 107.098 23.8114 106.842 23.1981C106.433 22.2014 106.203 22.1247 105.564 22.8403C105.258 23.1725 105.181 23.5303 105.283 24.0159C105.513 24.8847 104.849 25.6514 103.878 25.6514C103.367 25.6514 102.932 25.3703 102.319 24.6292C101.655 23.8625 101.322 23.6581 100.888 23.7859C100.581 23.8625 100.326 24.1181 100.326 24.3481C100.326 24.5781 100.172 24.9359 100.019 25.0892C99.7634 25.3447 99.7634 25.5236 100.019 25.907C100.453 26.6225 100.402 26.8781 99.8145 27.057C99.5334 27.1592 99.1501 27.517 98.9456 27.9003C98.3323 29.0758 97.3101 29.9958 96.6456 29.9958C96.2112 29.9958 95.9556 30.1747 95.8278 30.5581C95.5978 31.2992 94.6778 32.5514 94.3712 32.5514C94.2434 32.5514 93.809 32.8836 93.4256 33.3181C92.9145 33.8547 92.4801 34.0847 91.9178 34.0847C91.2278 34.0847 90.9978 34.2636 90.3078 35.337C89.7712 36.257 89.3112 36.6658 88.8001 36.7681C88.3912 36.8703 87.9312 37.177 87.7778 37.4581C87.6245 37.7392 86.909 38.2503 86.1934 38.5825C84.5578 39.3492 82.4878 40.6014 81.7723 41.2658C81.4912 41.5214 81.1078 41.7514 80.9289 41.7514C80.7501 41.7514 80.3156 41.9814 79.9578 42.2625C79.319 42.7481 78.7056 42.7481 79.0123 42.237C79.0889 42.1092 79.0123 41.8025 78.8334 41.5981C78.5778 41.2914 78.6289 41.087 79.1401 40.5247C79.4723 40.1414 79.8556 39.7581 80.0089 39.6558C80.1367 39.5536 80.2134 39.1447 80.1878 38.7358C80.1367 38.2247 80.239 37.9436 80.4945 37.8414C80.7245 37.7392 80.9034 37.5092 80.9034 37.3047C80.9034 36.6403 81.9767 34.7747 82.9734 33.6758C83.4845 33.0881 83.9956 32.3725 84.0978 32.0658C84.1745 31.7847 84.379 31.5292 84.5067 31.5292C84.6601 31.5292 84.6856 31.2992 84.6089 31.0181C84.5067 30.7114 84.6089 30.2258 84.8134 29.9192C84.9923 29.6125 85.2478 29.0503 85.3245 28.667C85.4267 28.2836 85.7334 27.9258 86.0145 27.8236C86.6534 27.6192 87.3945 26.5714 88.0334 24.9614C88.3145 24.2714 88.8256 23.2492 89.209 22.7125C89.5667 22.1759 89.8223 21.5881 89.7456 21.4092C89.669 21.2303 89.9501 20.6681 90.359 20.1314C90.7934 19.6203 91.0489 19.1092 90.9723 18.9814C90.9212 18.8536 91.0745 18.317 91.3556 17.7547C92.3012 15.9147 92.6078 14.7647 92.2501 14.5092C91.9689 14.3303 91.969 14.0492 92.199 13.1803C92.4801 12.1836 92.4801 12.0814 91.9434 11.6981C91.6367 11.4936 91.3812 11.1358 91.3812 10.9314C91.3812 10.727 91.1256 10.5736 90.7423 10.5736C90.2823 10.5736 90.1034 10.4459 90.1034 10.0881C90.1034 9.80696 90.0012 9.5003 89.8478 9.42363C89.7201 9.34696 89.5923 9.0403 89.5923 8.75919C89.5923 8.50363 89.4389 8.27363 89.2345 8.27363C88.8512 8.27363 88.5701 7.73696 88.5701 7.07252C88.5701 6.45918 86.7301 4.69585 86.0912 4.69585C85.7845 4.69585 85.4778 4.59363 85.4012 4.49141C85.3245 4.36363 84.9156 4.31252 84.4812 4.38918C83.9956 4.46585 83.5356 4.36363 83.2545 4.10807C82.4112 3.36696 81.0823 2.98363 80.0089 3.21363C78.0156 3.62252 77.8623 3.67363 77.709 4.2103C77.5812 4.56807 77.3767 4.69585 77.0701 4.61919C76.4056 4.4403 75.8178 4.87474 75.9712 5.43697C76.0478 5.79474 75.9201 5.97363 75.4856 6.10141C74.719 6.35697 74.5145 6.68918 74.5145 7.78807C74.5145 8.29918 74.3612 8.86141 74.1823 9.01474C73.7734 9.34696 73.3645 10.5992 72.9556 12.7458C72.8023 13.5892 72.5467 14.4325 72.3934 14.6114C72.2656 14.7903 72.1123 15.787 72.1123 16.8092C72.0867 18.2403 71.959 18.8281 71.6267 19.2114C71.269 19.5947 71.2434 19.7481 71.4989 19.8247C71.7289 19.9014 71.6523 20.1314 71.2434 20.6681C70.8856 21.1025 70.6812 21.7414 70.6812 22.3292C70.6812 23.3259 70.0167 24.4247 69.0967 24.9103C68.4578 25.2425 68.1256 24.8592 68.1256 23.7859C68.1256 23.4025 67.9467 23.0192 67.7423 22.9425C67.5123 22.8403 67.3589 22.457 67.3589 22.0225C67.3589 21.6136 67.2312 21.0514 67.0778 20.7703C66.9245 20.4636 66.8989 20.0547 66.9756 19.8247C67.4612 18.6492 67.5889 13.7681 67.1545 13.3336C66.7201 12.8992 66.7712 11.2892 67.2312 10.4203C67.7167 9.47474 67.7167 8.68252 67.2312 8.27363C66.9245 8.01807 66.8734 7.66029 67.0012 6.71474C67.1545 5.66696 67.1034 5.46252 66.7456 5.46252C66.4901 5.46252 66.3367 5.25807 66.3367 4.84918C66.3367 4.51696 66.1578 4.10807 65.9534 3.92918C65.7489 3.7503 65.5701 3.41807 65.5701 3.18807C65.5701 2.54918 63.3723 0.351411 62.4778 0.0958557C61.7878 -0.108589 61.5834 -0.0319197 60.6889 0.785858ZM63.3978 3.64807C63.3212 3.77585 63.4745 3.95474 63.7556 4.05696C64.1134 4.15918 64.2923 4.54252 64.3945 5.53918C64.7523 8.3503 64.829 10.5992 64.599 10.9059C64.4712 11.0847 64.3945 12.2347 64.4456 13.5125C64.4967 15.4547 64.4201 15.9659 63.9856 16.707C63.5767 17.4225 63.5001 17.8314 63.6534 18.9558C63.7556 19.8758 63.7301 20.4381 63.5001 20.6936C63.2445 21.0003 63.2956 21.1792 63.7556 21.6647C64.4967 22.457 64.3689 23.0703 63.3212 23.6836C62.3756 24.2459 61.9923 24.0925 62.4523 23.3514C62.9378 22.5847 62.8101 22.0992 62.1201 21.9203C61.7623 21.8436 61.3534 21.537 61.2001 21.2814C61.0723 21.0003 60.7401 20.7959 60.4845 20.7959C59.9478 20.7959 59.2067 19.5692 59.5645 19.3136C59.7178 19.2114 59.8456 17.7547 59.8712 16.0681C59.9478 12.8225 60.3823 11.1614 61.1234 11.4425C61.6089 11.6214 61.5834 11.3403 61.0723 10.957C60.7145 10.7014 60.7145 10.5736 60.9701 10.0881C61.1745 9.65363 61.2001 9.42363 60.9956 9.21918C60.5612 8.78474 60.6634 8.52918 61.2767 8.60585C61.7112 8.63141 61.8901 8.50363 61.9412 8.04363C61.9923 7.71141 61.9156 7.32808 61.7623 7.17474C61.3023 6.71474 61.4301 5.51363 61.9923 4.95141C62.2734 4.6703 62.4778 4.36363 62.4778 4.23586C62.3756 3.67363 62.5545 3.41808 63.0401 3.41808C63.3212 3.41808 63.5001 3.52029 63.3978 3.64807ZM46.8378 23.9903C47.3234 24.1947 47.9623 24.3736 48.2178 24.3736C48.7545 24.3736 51.0034 26.5714 51.0034 27.1081C51.0034 27.287 51.1312 27.4403 51.3101 27.4403C51.489 27.4403 51.8978 27.747 52.2301 28.1303C52.7156 28.7181 52.7923 28.9992 52.639 29.7403C52.5623 30.2258 52.4856 30.8136 52.5112 31.0181C52.5367 31.2225 52.5623 32.5514 52.5623 33.957C52.5367 36.0014 52.4345 36.6403 52.0767 37.1514C51.8212 37.5092 51.3356 38.2503 51.0289 38.8381C50.2367 40.2436 49.0867 40.7292 47.0934 40.4992C46.3012 40.397 45.5089 40.1925 45.3301 40.0136C45.1512 39.8347 44.7167 39.707 44.3589 39.707C43.4901 39.707 42.3656 38.5314 42.1612 37.407C42.0589 36.9214 41.8545 36.3336 41.6756 36.1292C40.8578 35.1836 40.7301 28.9992 41.4712 28.1558C41.7012 27.9003 41.8034 27.5425 41.7267 27.3381C41.6245 27.0825 42.1867 26.3925 43.4901 25.2681C44.5378 24.3481 45.509 23.607 45.6623 23.607C45.7901 23.607 46.3267 23.7859 46.8378 23.9903ZM30.8145 25.7792C30.9934 25.9836 31.3512 26.1625 31.5812 26.1625C32.1178 26.1625 33.0634 27.2358 33.2678 28.1047C33.3445 28.4114 33.5745 28.7436 33.7534 28.8203C33.9323 28.8714 34.3156 29.3825 34.5712 29.9192C35.1334 31.1203 35.2612 36.2314 34.7245 36.6914C34.5456 36.8447 34.3923 37.2025 34.3923 37.5092C34.3923 37.8158 34.2901 38.1736 34.1623 38.327C34.0345 38.4547 33.8812 38.9658 33.8301 39.4514C33.7534 40.2436 33.6767 40.3458 32.9356 40.4225C32.4756 40.4736 31.6067 40.7547 31.0189 41.087C30.0989 41.5725 29.6389 41.6492 28.2078 41.547C26.7256 41.4447 26.4701 41.4958 26.4701 41.8536C26.4701 42.0836 26.3678 42.2625 26.2145 42.2625C26.0867 42.2625 25.9589 41.9047 25.9589 41.4958C25.9589 40.9081 25.8567 40.7292 25.4478 40.7292C25.1412 40.7292 24.9367 40.5503 24.9367 40.3203C24.9367 40.0903 24.7323 39.6047 24.4767 39.247C23.5312 37.8925 22.9434 36.257 22.9945 35.2347C23.0456 34.6725 22.9689 34.0847 22.8667 33.957C22.7134 33.727 22.5089 31.3503 22.6367 31.0181C22.6623 30.9414 22.7134 30.4047 22.7389 29.817C22.7901 28.9225 22.9689 28.5647 23.6845 27.9003C24.1956 27.4403 24.7834 26.7503 25.0134 26.367C25.4734 25.6258 25.9334 25.5236 28.9234 25.447C30.0478 25.3958 30.5845 25.4981 30.8145 25.7792ZM109.015 28.1303C109.015 28.7181 110.011 29.7403 110.446 29.5614C110.65 29.4847 110.803 29.2803 110.803 29.127C110.803 28.9481 111.11 28.5392 111.468 28.1814L112.132 27.5681L112.567 28.1303C112.899 28.5136 113.206 28.6414 113.615 28.5392C114.075 28.4114 114.151 28.4881 114.075 28.9992C114.023 29.4336 113.845 29.6125 113.41 29.6125C113.078 29.6125 112.695 29.817 112.567 30.0725C112.413 30.3025 112.183 30.507 112.005 30.507C111.826 30.507 111.366 31.0947 110.982 31.7847C110.573 32.5003 110.088 33.0625 109.883 33.0625C109.653 33.0625 109.347 33.3947 109.193 33.8292C109.04 34.2381 108.81 34.5958 108.733 34.5958C108.631 34.5958 108.197 34.877 107.788 35.2347C107.353 35.5925 106.919 35.8736 106.791 35.8481C106.561 35.7714 106.025 35.9758 104.287 36.7681C102.702 37.4836 100.709 38.0203 100.377 37.8158C100.249 37.7392 99.9934 37.8414 99.8145 38.0458C99.4567 38.4803 97.7701 38.5825 97.7701 38.1481C97.7701 37.9947 97.4634 37.4836 97.0801 36.9725C96.6967 36.487 96.3645 35.8225 96.339 35.5414C96.2878 34.9281 97.1567 33.8292 97.6934 33.8292C97.8978 33.8292 98.1278 33.6247 98.2045 33.3692C98.3067 33.1392 98.639 32.577 98.9712 32.117C99.4567 31.5036 99.7634 31.3247 100.453 31.3247C100.939 31.3247 101.425 31.427 101.501 31.5547C101.987 32.347 103.137 30.967 103.137 29.5614C103.137 28.4881 103.495 28.1047 104.236 28.3092C104.696 28.4114 105.002 28.7436 105.207 29.357C105.743 30.8136 107.481 30.8392 107.481 29.3825C107.481 28.2325 107.788 27.6958 108.401 27.6958C108.81 27.6958 109.015 27.8492 109.015 28.1303ZM114.969 28.3347C115.071 28.5392 115.02 28.7692 114.918 28.8458C114.79 28.897 114.637 28.7436 114.56 28.4625C114.407 27.8747 114.765 27.7725 114.969 28.3347ZM94.6778 37.5603C94.8823 37.9692 95.1378 38.327 95.2401 38.3781C95.3423 38.4292 95.7256 38.8381 96.0834 39.3236C96.6712 40.0647 96.7223 40.2692 96.4412 40.8314C96.2623 41.2403 95.9556 41.4958 95.5978 41.4958C95.2145 41.4958 94.9334 41.7514 94.6778 42.3136C94.4223 42.927 94.039 43.2336 93.2978 43.4892C92.7356 43.6681 92.0712 44.077 91.8156 44.3836L91.3556 44.9458L90.9467 44.3581C90.7423 44.0514 90.4356 43.7958 90.3078 43.7958C89.7456 43.7958 88.9534 42.3903 88.9278 41.317C88.8767 40.4736 88.9789 40.1925 89.3623 40.0903C89.6178 40.0136 90.0778 39.5281 90.359 39.0425C90.6912 38.5058 91.1256 38.1736 91.4323 38.1736C91.7134 38.1736 92.3523 37.8158 92.8378 37.3814C93.8601 36.487 94.1923 36.5125 94.6778 37.5603ZM86.2701 42.6458C86.2701 42.8503 86.449 43.0292 86.6534 43.0292C87.0878 43.0292 88.5701 45.0992 88.5701 45.7381C88.5701 46.2236 85.3756 49.4181 84.8901 49.4181C84.7112 49.4181 84.3534 49.597 84.0723 49.8014C83.8167 50.0058 83.3823 50.1847 83.1523 50.1847C82.5901 50.1847 81.6701 49.3158 81.6701 48.8047C81.6701 48.6003 81.4145 48.2425 81.1334 48.0381C80.3412 47.5014 80.6223 45.9425 81.5934 45.1503C81.9767 44.8436 82.5134 44.4092 82.769 44.1792C82.999 43.9747 83.5867 43.7958 84.0467 43.7958C84.6856 43.7958 84.9667 43.6425 85.299 43.0292C85.759 42.2114 86.2701 42.007 86.2701 42.6458ZM78.9612 49.0858C79.1145 49.7758 79.3956 50.2358 79.6767 50.3381C79.9323 50.4147 80.1367 50.7214 80.1367 51.0536C80.1367 51.6925 78.5012 53.7625 77.9901 53.7625C77.8112 53.7625 77.4023 54.0436 77.0701 54.4014C76.7378 54.7592 76.3545 55.0403 76.2523 55.0403C76.1245 55.0403 75.6134 55.347 75.1278 55.7047C74.6678 56.0625 74.1056 56.3181 73.9267 56.2414C73.7478 56.1903 73.339 55.4492 73.0067 54.6314C72.6745 53.7881 72.1889 52.9192 71.9078 52.6636C71.2945 52.0758 71.3201 51.4625 71.959 51.4625C72.2145 51.4625 72.5723 51.2581 72.7001 51.0025C72.8278 50.747 73.3901 50.3381 73.9267 50.057C76.4567 48.8303 76.9678 48.5492 77.3256 48.217C78.0412 47.5525 78.7056 47.9103 78.9612 49.0858ZM70.5534 54.5803C71.039 55.3214 71.4478 56.2414 71.4478 56.6247C71.4478 57.3914 70.2467 58.6692 69.0967 59.1547C68.6878 59.3081 68.3812 59.5892 68.3812 59.7425C68.3812 59.8958 68.049 60.3814 67.6656 60.8158C67.0012 61.5314 66.899 61.5825 66.4645 61.2503C66.1834 61.0714 65.8001 60.9692 65.5956 61.0458C65.2123 61.1992 64.4712 60.3047 64.3434 59.5125C64.2667 58.8736 63.5767 57.8514 63.2701 57.8514C63.1167 57.8514 63.0145 57.6214 63.0145 57.3658C63.0145 56.7781 64.1645 55.807 64.8545 55.807C65.1101 55.807 65.4167 55.5514 65.5701 55.1936C65.7234 54.7592 66.0812 54.5036 66.6434 54.4014C67.1034 54.2992 67.7678 54.0181 68.1256 53.7625C69.1223 52.9958 69.5823 53.1492 70.5534 54.5803ZM42.8512 55.7558C44.129 56.5736 44.8956 57.5192 46.2245 59.9214C47.119 61.5314 47.4512 62.9625 46.9401 62.9625C46.7867 62.9625 45.9689 63.397 45.0745 63.9081C44.2056 64.4192 43.1834 64.8536 42.8256 64.8792C42.0334 64.9558 38.1745 65.697 36.8967 66.0292C36.3856 66.1825 35.2356 66.8214 34.3667 67.4858C33.4723 68.1247 32.0412 68.9936 31.1978 69.377C28.9234 70.3992 28.2334 71.3703 27.7223 74.3603C27.5689 75.3314 27.3134 76.3281 27.1856 76.5836C26.9045 77.1458 25.3712 78.5514 22.7134 80.6981C21.5378 81.6436 20.5923 82.4614 20.5923 82.5125C20.5923 82.9725 23.4545 88.927 24.2212 90.1025C25.3967 91.8914 26.0356 92.3514 27.3134 92.3514C28.4123 92.3514 29.1278 91.9425 30.9678 90.307C33.6512 87.9047 35.0312 87.7003 35.0312 89.6936C35.0312 90.6647 34.9545 90.7414 31.3256 93.5525C29.2812 95.137 26.7001 97.1559 25.5756 98.0503L23.5312 99.6347V101.04C23.5312 102.318 23.5823 102.446 24.2212 102.676C25.1412 103.008 26.2145 102.497 30.3034 99.8903C35.2356 96.747 37.4334 95.1881 37.7912 94.6514C38.2001 93.987 38.7878 94.0125 39.4267 94.7025C40.7045 96.1336 40.5001 96.5681 35.8234 101.858C30.8912 107.429 28.5145 108.963 24.8089 109.039C22.3301 109.116 21.1034 108.451 18.0367 105.41C14.8423 102.241 13.1556 99.7114 9.29672 92.2236C8.14672 90.0003 8.09561 89.7447 7.71228 86.2947C7.48228 84.3014 7.30339 82.0525 7.30339 81.2859C7.30339 77.3247 9.80784 74.0025 15.1234 70.8592C17.6278 69.377 19.5189 68.6358 24.0423 67.3325C28.7701 65.9525 31.1467 64.7258 34.0089 62.2725C35.9001 60.637 36.4623 59.9725 37.1012 58.6181C38.0978 56.5225 39.6567 55.0403 40.8578 55.0403C41.3434 55.0403 42.1867 55.347 42.8512 55.7558ZM61.9667 59.027C62.2734 59.4103 62.5034 59.9214 62.5034 60.1514C62.5034 60.407 62.6823 60.7647 62.9378 60.9436C63.1678 61.1481 63.5001 61.6847 63.7045 62.1447C64.1134 63.1158 63.9601 63.3203 62.3501 64.087C61.9156 64.317 61.4045 64.6492 61.2256 64.8792C61.0467 65.0836 60.7656 65.2625 60.5867 65.2625C60.3823 65.2625 59.9478 65.6203 59.5901 66.0803L58.9767 66.8981L58.2356 66.1059C57.7501 65.5947 57.3667 64.777 57.1623 63.8825C56.9834 63.0903 56.6512 62.3492 56.4212 62.1958C56.0378 61.9658 56.0634 61.8892 56.6256 61.4803C56.9834 61.2503 57.7756 60.5859 58.389 60.0236C59.4623 59.0525 60.4845 58.4392 61.1489 58.3881C61.3023 58.3625 61.6856 58.6692 61.9667 59.027ZM55.0923 63.7292C56.0378 64.4703 56.2167 64.8792 56.549 67.1025C56.6767 67.9714 56.6256 68.0736 55.629 68.6358C55.0667 68.9425 54.5812 69.3514 54.5812 69.5303C54.5812 69.7092 54.1978 69.837 53.5845 69.8114C53.0223 69.8114 52.4856 69.8625 52.3578 69.9392C52.0256 70.1436 51.0034 69.4025 51.0034 68.9425C51.0034 68.7381 50.6712 68.227 50.2367 67.767C49.7001 67.2047 49.4701 66.7192 49.4701 66.1314C49.4701 65.6458 49.5978 65.2625 49.7256 65.2625C49.8789 65.2625 50.1345 64.9814 50.2878 64.6236C50.4412 64.2658 50.6967 63.9847 50.8501 63.9847C51.0034 63.9847 51.4123 63.7547 51.7701 63.4736C52.7156 62.7325 53.9423 62.8347 55.0923 63.7292ZM48.0645 67.0258C48.1412 67.2814 48.5245 67.6392 48.9334 67.8181C49.5467 68.0481 49.7001 68.3036 49.8278 69.2747C50.0834 71.1658 50.0067 72.0092 49.4956 72.597C49.2145 72.9292 48.7801 73.1847 48.499 73.1847C48.1412 73.1847 47.9623 73.4147 47.8345 73.977C47.7067 74.5903 47.579 74.7181 47.1956 74.5903C46.9145 74.5136 46.6334 74.5647 46.5312 74.7181C46.2245 75.2292 45.4323 74.9481 44.6401 74.0536C44.2056 73.5681 43.7201 73.2358 43.5923 73.3125C43.4645 73.3892 43.1578 73.1592 42.9278 72.8014C42.5956 72.2903 42.5701 72.0858 42.8256 71.7792C43.0812 71.4725 43.0556 71.3703 42.7234 71.2425C42.1356 71.0125 42.2123 70.4503 42.9023 70.0925C43.2089 69.9136 43.5156 69.7858 43.5923 69.7858C43.6689 69.7858 44.1545 69.3003 44.6912 68.687C45.2278 68.0736 45.7901 67.5625 45.9434 67.5625C46.0712 67.5625 46.4801 67.3325 46.8378 67.0514C47.6556 66.4125 47.8601 66.4125 48.0645 67.0258ZM40.0145 68.1758C40.0145 68.3292 39.7845 68.7892 39.5034 69.2236C38.7112 70.4247 38.8389 71.4214 39.9889 72.8525C41.0623 74.1814 43.1834 76.2514 44.6656 77.3503C45.5856 78.0658 45.6112 78.0658 46.4545 77.6314C46.9145 77.4014 47.6045 76.9925 47.9878 76.737C48.9078 76.0725 49.6234 76.1236 50.1601 76.9414C51.3867 78.7558 52.1278 79.267 53.7123 79.4459C54.5301 79.5225 56.1912 79.7525 57.3923 79.9059C59.3601 80.187 59.5645 80.2636 59.7945 80.877C59.9223 81.2347 59.9478 81.9759 59.8456 82.487C59.5901 83.7903 58.2356 84.7359 52.8434 87.3936C48.4734 89.5659 48.2945 89.6681 42.6723 94.2425C42.1356 94.7025 42.0334 94.7025 41.4712 94.3192C40.7812 93.8847 40.3723 92.2236 40.8067 91.687C40.9856 91.4825 40.9856 91.3292 40.7812 91.2014C40.6023 91.0992 40.6023 90.8947 40.7812 90.5881C41.0623 90.0259 40.5256 89.4381 39.5034 89.1825C39.1456 89.0803 38.4556 88.8247 37.9189 88.5947C36.6156 88.0581 36.4112 86.9081 37.3312 85.3747C38.149 83.9692 38.1234 83.6114 37.229 82.5892C36.8456 82.1292 35.9001 80.5192 35.1845 79.037C34.2901 77.2225 33.3956 75.817 32.4756 74.8458C31.2234 73.4914 31.1467 73.3125 31.3767 72.6481C31.5556 72.137 32.3223 71.4725 34.1367 70.3225C37.6889 68.0736 38.6089 67.6136 39.3501 67.7414C39.7334 67.8181 40.0145 67.997 40.0145 68.1758ZM32.1178 78.0914C33.0634 79.0881 34.9034 82.8703 34.9034 83.8159C34.9034 84.6592 33.3956 86.1414 30.4312 88.1603C27.4156 90.2047 27.1856 90.1536 25.0901 86.9847C24.1701 85.5792 23.4034 84.1992 23.4034 83.8925C23.4034 82.9981 24.1189 82.0525 25.6523 80.9792C26.4445 80.417 27.6201 79.4714 28.2589 78.8836C30.2267 77.0947 31.0445 76.9159 32.1178 78.0914Z" fill="#FEF6E3"/>
<path d="M40.0145 68.1758C40.0145 68.3292 39.7845 68.7892 39.5034 69.2236C38.7112 70.4247 38.8389 71.4214 39.9889 72.8525C41.0623 74.1814 43.1834 76.2514 44.6656 77.3503C45.5856 78.0658 45.6112 78.0658 46.4545 77.6314C46.9145 77.4014 47.6045 76.9925 47.9878 76.737C48.9078 76.0725 49.6234 76.1236 50.1601 76.9414C51.3867 78.7558 52.1278 79.267 53.7123 79.4459C54.5301 79.5225 56.1912 79.7525 57.3923 79.9059C59.3601 80.187 59.5645 80.2636 59.7945 80.877C59.9223 81.2347 59.9478 81.9759 59.8456 82.487C59.5901 83.7903 58.2356 84.7359 52.8434 87.3936C48.4734 89.5659 48.2945 89.6681 42.6723 94.2425C42.1356 94.7025 42.0334 94.7025 41.4712 94.3192C40.7812 93.8847 40.3723 92.2236 40.8067 91.687C40.9856 91.4825 40.9856 91.3292 40.7812 91.2014C40.6023 91.0992 40.6023 90.8947 40.7812 90.5881C41.0623 90.0259 40.5256 89.4381 39.5034 89.1825C39.1456 89.0803 38.4556 88.8247 37.9189 88.5947C36.6156 88.0581 36.4112 86.9081 37.3312 85.3747C38.149 83.9692 38.1234 83.6114 37.229 82.5892C36.8456 82.1292 35.9001 80.5192 35.1845 79.037C34.2901 77.2225 33.3956 75.817 32.4756 74.8458C31.2234 73.4914 31.1467 73.3125 31.3767 72.6481C31.5556 72.137 32.3223 71.4725 34.1367 70.3225C37.6889 68.0736 38.6089 67.6136 39.3501 67.7414C39.7334 67.8181 40.0145 67.997 40.0145 68.1758Z" fill="#FEF6E3"/>
<path d="M42.8512 55.7558C44.129 56.5736 44.8956 57.5192 46.2245 59.9214C47.119 61.5314 47.4512 62.9625 46.9401 62.9625C46.7867 62.9625 45.9689 63.397 45.0745 63.9081C44.2056 64.4192 43.1834 64.8536 42.8256 64.8792C42.0334 64.9558 38.1745 65.697 36.8967 66.0292C36.3856 66.1825 35.2356 66.8214 34.3667 67.4858C33.4723 68.1247 32.0412 68.9936 31.1978 69.377C28.9234 70.3992 28.2334 71.3703 27.7223 74.3603C27.5689 75.3314 27.3134 76.3281 27.1856 76.5836C26.9045 77.1458 25.3712 78.5514 22.7134 80.6981C21.5378 81.6436 20.5923 82.4614 20.5923 82.5125C20.5923 82.9725 23.4545 88.927 24.2212 90.1025C25.3967 91.8914 26.0356 92.3514 27.3134 92.3514C28.4123 92.3514 29.1278 91.9425 30.9678 90.307C33.6512 87.9047 35.0312 87.7003 35.0312 89.6936C35.0312 90.6647 34.9545 90.7414 31.3256 93.5525C29.2812 95.137 26.7001 97.1559 25.5756 98.0503L23.5312 99.6347V101.04C23.5312 102.318 23.5823 102.446 24.2212 102.676C25.1412 103.008 26.2145 102.497 30.3034 99.8903C35.2356 96.747 37.4334 95.1881 37.7912 94.6514C38.2001 93.987 38.7878 94.0125 39.4267 94.7025C40.7045 96.1336 40.5001 96.5681 35.8234 101.858C30.8912 107.429 28.5145 108.963 24.8089 109.039C22.3301 109.116 21.1034 108.451 18.0367 105.41C14.8423 102.241 13.1556 99.7114 9.29672 92.2236C8.14672 90.0003 8.09561 89.7447 7.71228 86.2947C7.48228 84.3014 7.30339 82.0525 7.30339 81.2859C7.30339 77.3247 9.80784 74.0025 15.1234 70.8592C17.6278 69.377 19.5189 68.6358 24.0423 67.3325C28.7701 65.9525 31.1467 64.7258 34.0089 62.2725C35.9001 60.637 36.4623 59.9725 37.1012 58.6181C38.0978 56.5225 39.6567 55.0403 40.8578 55.0403C41.3434 55.0403 42.1867 55.347 42.8512 55.7558Z" fill="#FEF6E3"/>
<path d="M32.1178 78.0914C33.0634 79.0881 34.9034 82.8703 34.9034 83.8159C34.9034 84.6592 33.3956 86.1414 30.4312 88.1603C27.4156 90.2047 27.1856 90.1536 25.0901 86.9847C24.1701 85.5792 23.4034 84.1992 23.4034 83.8925C23.4034 82.9981 24.1189 82.0525 25.6523 80.9792C26.4445 80.417 27.6201 79.4714 28.2589 78.8836C30.2267 77.0947 31.0445 76.9159 32.1178 78.0914Z" fill="#FEF6E3"/>
<path d="M48.0645 67.0258C48.1412 67.2814 48.5245 67.6392 48.9334 67.8181C49.5467 68.0481 49.7001 68.3036 49.8278 69.2747C50.0834 71.1658 50.0067 72.0092 49.4956 72.597C49.2145 72.9292 48.7801 73.1847 48.499 73.1847C48.1412 73.1847 47.9623 73.4147 47.8345 73.977C47.7067 74.5903 47.579 74.7181 47.1956 74.5903C46.9145 74.5136 46.6334 74.5647 46.5312 74.7181C46.2245 75.2292 45.4323 74.9481 44.6401 74.0536C44.2056 73.5681 43.7201 73.2358 43.5923 73.3125C43.4645 73.3892 43.1578 73.1592 42.9278 72.8014C42.5956 72.2903 42.5701 72.0858 42.8256 71.7792C43.0812 71.4725 43.0556 71.3703 42.7234 71.2425C42.1356 71.0125 42.2123 70.4503 42.9023 70.0925C43.2089 69.9136 43.5156 69.7858 43.5923 69.7858C43.6689 69.7858 44.1545 69.3003 44.6912 68.687C45.2278 68.0736 45.7901 67.5625 45.9434 67.5625C46.0712 67.5625 46.4801 67.3325 46.8378 67.0514C47.6556 66.4125 47.8601 66.4125 48.0645 67.0258Z" fill="#FEF6E3"/>
<path d="M55.0923 63.7292C56.0378 64.4703 56.2167 64.8792 56.549 67.1025C56.6767 67.9714 56.6256 68.0736 55.629 68.6358C55.0667 68.9425 54.5812 69.3514 54.5812 69.5303C54.5812 69.7092 54.1978 69.837 53.5845 69.8114C53.0223 69.8114 52.4856 69.8625 52.3578 69.9392C52.0256 70.1436 51.0034 69.4025 51.0034 68.9425C51.0034 68.7381 50.6712 68.227 50.2367 67.767C49.7001 67.2047 49.4701 66.7192 49.4701 66.1314C49.4701 65.6458 49.5978 65.2625 49.7256 65.2625C49.8789 65.2625 50.1345 64.9814 50.2878 64.6236C50.4412 64.2658 50.6967 63.9847 50.8501 63.9847C51.0034 63.9847 51.4123 63.7547 51.7701 63.4736C52.7156 62.7325 53.9423 62.8347 55.0923 63.7292Z" fill="#FEF6E3"/>
<path d="M61.9667 59.027C62.2734 59.4103 62.5034 59.9214 62.5034 60.1514C62.5034 60.407 62.6823 60.7647 62.9378 60.9436C63.1678 61.1481 63.5001 61.6847 63.7045 62.1447C64.1134 63.1158 63.9601 63.3203 62.3501 64.087C61.9156 64.317 61.4045 64.6492 61.2256 64.8792C61.0467 65.0836 60.7656 65.2625 60.5867 65.2625C60.3823 65.2625 59.9478 65.6203 59.5901 66.0803L58.9767 66.8981L58.2356 66.1059C57.7501 65.5947 57.3667 64.777 57.1623 63.8825C56.9834 63.0903 56.6512 62.3492 56.4212 62.1958C56.0378 61.9658 56.0634 61.8892 56.6256 61.4803C56.9834 61.2503 57.7756 60.5859 58.389 60.0236C59.4623 59.0525 60.4845 58.4392 61.1489 58.3881C61.3023 58.3625 61.6856 58.6692 61.9667 59.027Z" fill="#FEF6E3"/>
<path d="M70.5534 54.5803C71.039 55.3214 71.4478 56.2414 71.4478 56.6247C71.4478 57.3914 70.2467 58.6692 69.0967 59.1547C68.6878 59.3081 68.3812 59.5892 68.3812 59.7425C68.3812 59.8958 68.049 60.3814 67.6656 60.8158C67.0012 61.5314 66.899 61.5825 66.4645 61.2503C66.1834 61.0714 65.8001 60.9692 65.5956 61.0458C65.2123 61.1992 64.4712 60.3047 64.3434 59.5125C64.2667 58.8736 63.5767 57.8514 63.2701 57.8514C63.1167 57.8514 63.0145 57.6214 63.0145 57.3658C63.0145 56.7781 64.1645 55.807 64.8545 55.807C65.1101 55.807 65.4167 55.5514 65.5701 55.1936C65.7234 54.7592 66.0812 54.5036 66.6434 54.4014C67.1034 54.2992 67.7678 54.0181 68.1256 53.7625C69.1223 52.9958 69.5823 53.1492 70.5534 54.5803Z" fill="#FEF6E3"/>
<path d="M78.9612 49.0858C79.1145 49.7758 79.3956 50.2358 79.6767 50.3381C79.9323 50.4147 80.1367 50.7214 80.1367 51.0536C80.1367 51.6925 78.5012 53.7625 77.9901 53.7625C77.8112 53.7625 77.4023 54.0436 77.0701 54.4014C76.7378 54.7592 76.3545 55.0403 76.2523 55.0403C76.1245 55.0403 75.6134 55.347 75.1278 55.7047C74.6678 56.0625 74.1056 56.3181 73.9267 56.2414C73.7478 56.1903 73.339 55.4492 73.0067 54.6314C72.6745 53.7881 72.1889 52.9192 71.9078 52.6636C71.2945 52.0758 71.3201 51.4625 71.959 51.4625C72.2145 51.4625 72.5723 51.2581 72.7001 51.0025C72.8278 50.747 73.3901 50.3381 73.9267 50.057C76.4567 48.8303 76.9678 48.5492 77.3256 48.217C78.0412 47.5525 78.7056 47.9103 78.9612 49.0858Z" fill="#FEF6E3"/>
<path d="M86.2701 42.6458C86.2701 42.8503 86.449 43.0292 86.6534 43.0292C87.0878 43.0292 88.5701 45.0992 88.5701 45.7381C88.5701 46.2236 85.3756 49.4181 84.8901 49.4181C84.7112 49.4181 84.3534 49.597 84.0723 49.8014C83.8167 50.0058 83.3823 50.1847 83.1523 50.1847C82.5901 50.1847 81.6701 49.3158 81.6701 48.8047C81.6701 48.6003 81.4145 48.2425 81.1334 48.0381C80.3412 47.5014 80.6223 45.9425 81.5934 45.1503C81.9767 44.8436 82.5134 44.4092 82.769 44.1792C82.999 43.9747 83.5867 43.7958 84.0467 43.7958C84.6856 43.7958 84.9667 43.6425 85.299 43.0292C85.759 42.2114 86.2701 42.007 86.2701 42.6458Z" fill="#FEF6E3"/>
<path d="M94.6778 37.5603C94.8823 37.9692 95.1378 38.327 95.2401 38.3781C95.3423 38.4292 95.7256 38.8381 96.0834 39.3236C96.6712 40.0647 96.7223 40.2692 96.4412 40.8314C96.2623 41.2403 95.9556 41.4958 95.5978 41.4958C95.2145 41.4958 94.9334 41.7514 94.6778 42.3136C94.4223 42.927 94.039 43.2336 93.2978 43.4892C92.7356 43.6681 92.0712 44.077 91.8156 44.3836L91.3556 44.9458L90.9467 44.3581C90.7423 44.0514 90.4356 43.7958 90.3078 43.7958C89.7456 43.7958 88.9534 42.3903 88.9278 41.317C88.8767 40.4736 88.9789 40.1925 89.3623 40.0903C89.6178 40.0136 90.0778 39.5281 90.359 39.0425C90.6912 38.5058 91.1256 38.1736 91.4323 38.1736C91.7134 38.1736 92.3523 37.8158 92.8378 37.3814C93.8601 36.487 94.1923 36.5125 94.6778 37.5603Z" fill="#FEF6E3"/>
<path d="M109.015 28.1303C109.015 28.7181 110.011 29.7403 110.446 29.5614C110.65 29.4847 110.803 29.2803 110.803 29.127C110.803 28.9481 111.11 28.5392 111.468 28.1814L112.132 27.5681L112.567 28.1303C112.899 28.5136 113.206 28.6414 113.615 28.5392C114.075 28.4114 114.151 28.4881 114.075 28.9992C114.023 29.4336 113.845 29.6125 113.41 29.6125C113.078 29.6125 112.695 29.817 112.567 30.0725C112.413 30.3025 112.183 30.507 112.005 30.507C111.826 30.507 111.366 31.0947 110.982 31.7847C110.573 32.5003 110.088 33.0625 109.883 33.0625C109.653 33.0625 109.347 33.3947 109.193 33.8292C109.04 34.2381 108.81 34.5958 108.733 34.5958C108.631 34.5958 108.197 34.877 107.788 35.2347C107.353 35.5925 106.919 35.8736 106.791 35.8481C106.561 35.7714 106.025 35.9758 104.287 36.7681C102.702 37.4836 100.709 38.0203 100.377 37.8158C100.249 37.7392 99.9934 37.8414 99.8145 38.0458C99.4567 38.4803 97.7701 38.5825 97.7701 38.1481C97.7701 37.9947 97.4634 37.4836 97.0801 36.9725C96.6967 36.487 96.3645 35.8225 96.339 35.5414C96.2878 34.9281 97.1567 33.8292 97.6934 33.8292C97.8978 33.8292 98.1278 33.6247 98.2045 33.3692C98.3067 33.1392 98.639 32.577 98.9712 32.117C99.4567 31.5036 99.7634 31.3247 100.453 31.3247C100.939 31.3247 101.425 31.427 101.501 31.5547C101.987 32.347 103.137 30.967 103.137 29.5614C103.137 28.4881 103.495 28.1047 104.236 28.3092C104.696 28.4114 105.002 28.7436 105.207 29.357C105.743 30.8136 107.481 30.8392 107.481 29.3825C107.481 28.2325 107.788 27.6958 108.401 27.6958C108.81 27.6958 109.015 27.8492 109.015 28.1303Z" fill="#FEF6E3"/>
<path d="M30.8145 25.7792C30.9934 25.9836 31.3512 26.1625 31.5812 26.1625C32.1178 26.1625 33.0634 27.2358 33.2678 28.1047C33.3445 28.4114 33.5745 28.7436 33.7534 28.8203C33.9323 28.8714 34.3156 29.3825 34.5712 29.9192C35.1334 31.1203 35.2612 36.2314 34.7245 36.6914C34.5456 36.8447 34.3923 37.2025 34.3923 37.5092C34.3923 37.8158 34.2901 38.1736 34.1623 38.327C34.0345 38.4547 33.8812 38.9658 33.8301 39.4514C33.7534 40.2436 33.6767 40.3458 32.9356 40.4225C32.4756 40.4736 31.6067 40.7547 31.0189 41.087C30.0989 41.5725 29.6389 41.6492 28.2078 41.547C26.7256 41.4447 26.4701 41.4958 26.4701 41.8536C26.4701 42.0836 26.3678 42.2625 26.2145 42.2625C26.0867 42.2625 25.9589 41.9047 25.9589 41.4958C25.9589 40.9081 25.8567 40.7292 25.4478 40.7292C25.1412 40.7292 24.9367 40.5503 24.9367 40.3203C24.9367 40.0903 24.7323 39.6047 24.4767 39.247C23.5312 37.8925 22.9434 36.257 22.9945 35.2347C23.0456 34.6725 22.9689 34.0847 22.8667 33.957C22.7134 33.727 22.5089 31.3503 22.6367 31.0181C22.6623 30.9414 22.7134 30.4047 22.7389 29.817C22.7901 28.9225 22.9689 28.5647 23.6845 27.9003C24.1956 27.4403 24.7834 26.7503 25.0134 26.367C25.4734 25.6258 25.9334 25.5236 28.9234 25.447C30.0478 25.3958 30.5845 25.4981 30.8145 25.7792Z" fill="#FEF6E3"/>
<path d="M46.8378 23.9903C47.3234 24.1947 47.9623 24.3736 48.2178 24.3736C48.7545 24.3736 51.0034 26.5714 51.0034 27.1081C51.0034 27.287 51.1312 27.4403 51.3101 27.4403C51.489 27.4403 51.8978 27.747 52.2301 28.1303C52.7156 28.7181 52.7923 28.9992 52.639 29.7403C52.5623 30.2258 52.4856 30.8136 52.5112 31.0181C52.5367 31.2225 52.5623 32.5514 52.5623 33.957C52.5367 36.0014 52.4345 36.6403 52.0767 37.1514C51.8212 37.5092 51.3356 38.2503 51.0289 38.8381C50.2367 40.2436 49.0867 40.7292 47.0934 40.4992C46.3012 40.397 45.5089 40.1925 45.3301 40.0136C45.1512 39.8347 44.7167 39.707 44.3589 39.707C43.4901 39.707 42.3656 38.5314 42.1612 37.407C42.0589 36.9214 41.8545 36.3336 41.6756 36.1292C40.8578 35.1836 40.7301 28.9992 41.4712 28.1558C41.7012 27.9003 41.8034 27.5425 41.7267 27.3381C41.6245 27.0825 42.1867 26.3925 43.4901 25.2681C44.5378 24.3481 45.509 23.607 45.6623 23.607C45.7901 23.607 46.3267 23.7859 46.8378 23.9903Z" fill="#FEF6E3"/>
<path d="M46.3523 27.108C45.4834 27.2358 44.3589 28.2836 44.3589 28.9736C44.3589 29.2802 44.2312 29.7658 44.0778 30.0725C43.6945 30.7625 43.5156 34.5191 43.8478 34.7236C44.0012 34.8002 44.1034 35.2091 44.1034 35.5925C44.1034 36.4614 44.5889 37.918 44.87 37.918C44.9723 37.918 45.2023 38.2502 45.3556 38.6847C45.6112 39.5025 46.25 39.7069 46.48 39.0936C46.5567 38.8891 47.0423 38.6847 47.5789 38.6336C48.3967 38.5569 48.6267 38.4036 49.1378 37.458C49.4956 36.8447 49.7767 36.1036 49.7767 35.7969C49.7767 35.4902 49.9045 34.1614 50.0067 32.8836C50.1856 30.8902 50.16 30.3791 49.8023 29.638C49.5723 29.1269 49.2912 28.7947 49.1889 28.8714C49.0612 28.9225 48.78 28.6669 48.55 28.2836C48.09 27.5425 47.4256 26.9036 47.1956 26.9547C47.1189 26.9802 46.7356 27.0569 46.3523 27.108Z" fill="#FEF6E3"/>
<path d="M26.93 29.2292C26.3167 29.8425 26.2145 30.2259 26.01 32.117C25.8567 33.7781 25.8823 34.4936 26.1378 34.9536C26.3167 35.3114 26.6234 36.3081 26.8278 37.177C27.3134 39.2214 27.9012 39.8347 29.1278 39.6047C30.5334 39.3492 31.0189 38.4036 31.2745 35.5925C31.4023 34.2636 31.4278 33.0625 31.3512 32.9347C31.2745 32.7814 31.2489 32.4747 31.3 32.2192C31.3256 31.9636 31.1978 31.5547 30.9934 31.3247C30.8145 31.0692 30.5078 30.507 30.3034 30.047C30.1245 29.5614 29.8178 29.2292 29.5367 29.2292C29.2812 29.2292 29.0256 29.127 28.9745 29.0247C28.9489 28.897 28.6167 28.7436 28.2589 28.667C27.7989 28.5903 27.4156 28.7436 26.93 29.2292Z" fill="#FEF6E3"/>
<path d="M9.78228 82.2824C9.52673 82.5635 9.85895 82.8958 10.3956 82.8958C10.6512 82.8958 10.8812 82.7169 10.8812 82.5124C10.8812 82.1291 10.0889 81.9758 9.78228 82.2824Z" fill="#FEF6E3"/>
<path d="M57.2134 81.4902C56.3445 82.1035 56.4467 82.8958 57.3667 82.8958C58.21 82.8958 58.7467 82.3591 58.6189 81.6946C58.5167 81.0813 57.9034 81.0046 57.2134 81.4902Z" fill="#FEF6E3"/>
<path d="M21.5123 17.167C21.4612 17.2692 21.4868 17.5248 21.589 17.7037C21.7423 17.9592 21.8445 17.9337 21.9468 17.627C22.1001 17.2181 21.7423 16.8092 21.5123 17.167Z" fill="#FEF6E3"/>
<path d="M62.6567 3.82702C62.58 4.05702 62.5545 4.33813 62.6311 4.44035C62.7078 4.56813 62.5545 4.79813 62.2989 4.9259C61.7622 5.20702 61.3789 6.51035 61.7622 6.74035C61.89 6.84257 62.0689 7.27702 62.1456 7.73702C62.2989 8.42702 62.2222 8.58035 61.7878 8.68257C61.0211 8.91257 60.8422 10.5481 61.5578 11.1359C62.0945 11.5448 62.0945 11.5448 61.3533 11.647C60.9189 11.6726 60.5867 11.8515 60.5867 12.0303C60.5867 12.1837 60.51 12.4137 60.4078 12.5159C60.28 12.6181 60.2033 13.4103 60.1778 14.2537C60.1522 15.1226 60.0756 16.0937 59.9733 16.4515C59.8711 16.8092 59.8967 17.5248 60.0245 18.0615C60.2033 18.7259 60.1778 19.1092 59.9733 19.3648C59.7433 19.6459 59.7178 19.8759 59.9478 20.2848C60.1011 20.5659 60.3311 20.7448 60.4333 20.6681C60.5611 20.617 60.9445 20.8215 61.3022 21.1537C61.6856 21.5115 62.2222 21.8437 62.5033 21.9459C63.1167 22.1503 63.1422 22.5337 62.6056 23.3003C62.12 23.9903 62.3756 24.0159 63.4745 23.3515C64.3689 22.8148 64.3689 22.6359 63.4233 21.6137C62.9122 21.0515 62.9122 21.0003 63.3467 20.6937C63.8322 20.3359 63.9345 19.6459 63.5256 19.3903C63.0911 19.1092 63.2445 17.7548 63.8578 16.5026C64.3433 15.5315 64.42 15.0715 64.2667 14.1515C64.19 13.5126 64.19 12.8226 64.2922 12.6181C64.42 12.3881 64.3945 12.0303 64.2667 11.7748C64.0878 11.4681 64.1133 11.187 64.3433 10.8548C64.6245 10.4715 64.65 9.88368 64.4711 8.22257C64.3689 7.04702 64.2411 5.74368 64.19 5.30924C64.1389 4.87479 63.8578 4.26146 63.5511 3.95479C62.9122 3.3159 62.8611 3.29035 62.6567 3.82702Z" fill="#011947"/>
<path d="M44.7167 24.4503C42.9789 25.8047 42.0589 26.8525 42.0589 27.5169C42.0589 27.8747 41.9056 28.2836 41.7011 28.3858C41.1389 28.6925 40.8067 32.398 41.2156 33.778C41.3689 34.3914 41.4456 35.0558 41.3689 35.2603C41.2923 35.4647 41.4711 35.848 41.7778 36.1036C42.0845 36.3847 42.3145 36.8703 42.3145 37.3303C42.3145 38.1992 43.4645 39.4514 44.2567 39.4514C44.5378 39.4514 44.9723 39.6047 45.2534 39.8092C45.9434 40.2692 48.8567 40.6014 49.0611 40.2436C49.1634 40.0903 49.47 39.9625 49.7256 39.9625C50.0323 39.9625 50.39 39.6303 50.6456 39.1192C50.8756 38.6847 51.31 37.9692 51.6167 37.5347C52.2556 36.6403 52.7923 33.2414 52.46 32.1169C52.3578 31.7336 52.3323 30.8136 52.4089 30.0725C52.5367 28.948 52.4856 28.6669 52.0511 28.2325C51.7445 27.9258 51.4378 27.6958 51.3356 27.6958C51.2078 27.6958 50.7989 27.108 50.3645 26.418C49.6489 25.2425 48.8567 24.6292 48.09 24.6292C47.8856 24.6292 47.4 24.4503 47.0167 24.2458C46.02 23.7347 45.6111 23.7603 44.7167 24.4503ZM48.4223 27.798C48.6523 28.2069 48.9334 28.488 49.0356 28.4369C49.2911 28.3092 50.4923 30.4303 50.4923 31.018C50.4923 31.2992 50.39 31.5547 50.2878 31.6314C50.1856 31.6825 50.1089 32.398 50.16 33.1647C50.1856 34.0336 50.1089 34.5958 49.9556 34.5958C49.7767 34.5958 49.7511 34.9025 49.8534 35.388C49.9811 35.9503 49.8534 36.5125 49.3167 37.5603C48.6523 38.8636 48.5756 38.9403 47.6811 38.9403C47.1445 38.9403 46.5823 39.1192 46.4034 39.3236C45.9178 39.9114 45.6367 39.7836 45.2278 38.8125C45.0234 38.3269 44.7423 37.918 44.6145 37.918C44.3845 37.918 44.0011 36.3592 44.0523 35.5669C44.0523 35.3114 43.9756 35.0558 43.8223 34.9792C43.4389 34.7236 43.5667 30.9925 43.9756 29.7914C44.2056 29.178 44.3078 28.5903 44.2311 28.4625C44.1545 28.3347 44.5123 27.9258 45.0489 27.568C46.4034 26.648 47.86 26.7503 48.4223 27.798Z" fill="#011947"/>
<path d="M26.0356 25.8302C25.7289 25.8813 25.2945 26.2135 25.0645 26.5713C24.86 26.9035 24.2467 27.6191 23.7611 28.1302C22.9689 28.9224 22.8667 29.2035 22.9434 30.0469C22.9945 30.5835 22.9689 31.018 22.8667 31.018C22.6367 31.018 22.8156 33.2413 23.1222 34.2891C23.2756 34.8258 23.3011 35.388 23.1478 35.7458C23.02 36.1035 22.9945 36.4358 23.1222 36.4869C23.2245 36.5635 23.7867 37.4835 24.3234 38.5569C25.0134 39.9113 25.4478 40.4735 25.78 40.4735C26.0611 40.4735 26.2145 40.6013 26.1378 40.7802C26.0867 40.9591 26.1122 41.3424 26.24 41.6235C26.4189 42.1091 26.4445 42.1091 26.4445 41.6491C26.47 41.2147 26.6234 41.1891 28.2078 41.3424C29.7411 41.4702 30.0478 41.4447 31.0445 40.8569C31.6322 40.4991 32.4756 40.218 32.8845 40.218C33.5489 40.218 33.6256 40.1413 33.6256 39.3491C33.6256 38.8635 33.7534 38.378 33.8811 38.3013C34.0345 38.2247 34.1367 37.8158 34.1367 37.4069C34.1367 36.998 34.3156 36.6402 34.52 36.538C34.8522 36.4358 34.8778 36.1291 34.75 35.1069C34.6478 34.3913 34.6989 33.7013 34.8267 33.5224C35.44 32.7302 34.4178 29.2291 33.4978 28.8713C33.2934 28.7946 33.1145 28.5391 33.1145 28.3091C33.1145 27.6446 31.8622 26.1624 31.3 26.1624C31.0445 26.1624 30.8145 26.0346 30.8145 25.9069C30.8145 25.6513 27.2111 25.6002 26.0356 25.8302ZM29.8945 29.2291C30.0989 29.2291 30.38 29.6124 30.5589 30.0469C30.7634 30.5069 31.07 31.0947 31.2745 31.3247C31.4789 31.5547 31.5556 31.9635 31.4534 32.2447C31.3767 32.5258 31.4278 32.8324 31.5811 32.9347C31.7345 33.0113 31.7856 33.1902 31.7089 33.318C31.6322 33.4202 31.53 34.5191 31.4789 35.7458C31.3256 38.4547 30.6867 39.528 29.1022 39.7835C27.7734 40.0135 26.9811 39.2213 26.7 37.4324C26.5978 36.6913 26.3167 35.7458 26.1122 35.3113C25.6522 34.3913 25.6011 32.9347 25.9589 31.018C26.1634 29.9702 26.4189 29.4847 27.0322 28.9735L27.85 28.2835L28.6934 28.7435C29.1789 29.0246 29.7156 29.2291 29.8945 29.2291Z" fill="#011947"/>
<path d="M107.813 28.8713C107.762 29.8935 107.123 30.7624 106.459 30.7624C105.922 30.7624 105.309 30.0979 104.951 29.1524C104.747 28.6668 104.517 28.4624 104.031 28.4624C103.494 28.4624 103.392 28.5902 103.392 29.2291C103.392 29.6379 103.188 30.3791 102.958 30.8902L102.523 31.7846L101.067 31.6568C99.6611 31.5291 99.5845 31.5546 99.0478 32.2957C98.7411 32.7046 98.5622 33.1391 98.6389 33.2668C98.69 33.3691 98.2556 33.7268 97.6167 34.0591C96.8245 34.4935 96.4922 34.8257 96.4922 35.2091C96.4922 35.8479 97.3867 37.4068 97.77 37.4068C97.8978 37.4068 98.0256 37.6368 98.0256 37.9179C98.0256 38.5313 98.0767 38.5313 99.5589 38.0713C100.198 37.8668 101.22 37.5602 101.859 37.4068C102.498 37.2279 103.776 36.7679 104.747 36.3591C105.692 35.9502 106.587 35.6179 106.74 35.6179C107.251 35.6179 108.963 34.0335 109.117 33.4202C109.219 33.0624 109.474 32.8068 109.73 32.8068C109.986 32.8068 110.497 32.2702 110.931 31.5291C111.366 30.8391 111.826 30.2513 111.979 30.2513C112.158 30.2513 112.337 30.0724 112.439 29.8679C112.516 29.6635 112.873 29.4846 113.231 29.4846C113.64 29.4846 113.87 29.3313 113.87 29.0757C113.87 28.8202 113.742 28.7179 113.487 28.8202C113.257 28.8968 112.848 28.7179 112.567 28.4368C112.056 27.9257 112.004 27.9257 111.544 28.3602C111.289 28.5902 111.008 28.9991 110.931 29.2546C110.829 29.5357 110.573 29.7402 110.318 29.7402C109.832 29.7402 108.759 28.7179 108.759 28.2579C108.759 28.0791 108.554 27.9513 108.324 27.9513C107.967 27.9513 107.864 28.1813 107.813 28.8713Z" fill="#011947"/>
<path d="M92.8123 37.637C92.3778 38.097 91.9434 38.327 91.6367 38.2503C91.3045 38.1481 90.9978 38.4037 90.5634 39.0426C90.2312 39.5537 89.7712 40.0137 89.5412 40.1159C88.9534 40.2948 88.8767 42.467 89.4645 42.6714C89.6689 42.7481 89.8989 43.0292 89.9756 43.3103C90.0778 43.5659 90.2567 43.7959 90.41 43.7959C90.5634 43.7959 90.8445 44.0003 91.0234 44.2303C91.3556 44.6648 91.4067 44.6648 91.7645 44.1792C91.9945 43.8981 92.5823 43.5659 93.0934 43.4126C93.7067 43.2337 94.1667 42.9014 94.4478 42.3903C94.6778 41.9559 95.1378 41.4959 95.47 41.317C96.4412 40.8314 96.5689 40.3203 95.9556 39.4514C95.6234 39.0426 95.2912 38.6848 95.1889 38.6848C95.0867 38.6848 94.8567 38.2759 94.6778 37.7903C94.2689 36.6914 93.7578 36.6403 92.8123 37.637Z" fill="#011947"/>
<path d="M85.6056 42.7992C85.4523 43.0036 85.2478 43.3614 85.1712 43.617C85.0434 43.9748 84.8389 44.0514 84.1234 43.9236C83.3823 43.7703 83.2289 43.8214 83.0756 44.2814C82.9989 44.5881 82.7689 44.8181 82.5901 44.8181C81.3123 44.8181 80.2389 47.1692 81.1845 47.8336C81.4656 48.0125 81.6701 48.3959 81.6701 48.677C81.6701 48.9325 81.7978 49.1625 81.9256 49.1625C82.0789 49.1625 82.2834 49.367 82.3856 49.6481C82.5645 50.1081 82.6156 50.1081 83.8423 49.6992C85.6312 49.1114 88.3912 46.4536 88.2123 45.457C88.0589 44.6136 86.8834 43.0292 86.3978 43.0292C86.2189 43.0292 86.0145 42.9014 85.9634 42.7481C85.9123 42.5692 85.7845 42.5692 85.6056 42.7992Z" fill="#011947"/>
<path d="M77.4278 48.4214C77.3511 48.5747 76.8656 48.8558 76.4056 49.0603C75.92 49.2647 75.5367 49.5458 75.5367 49.6736C75.5367 49.8269 75.2045 49.9291 74.8211 49.9291C74.3356 49.9291 73.7733 50.2358 73.16 50.8236C72.6489 51.3091 72.1122 51.718 71.9589 51.718C71.5756 51.718 71.6522 52.4336 72.0611 52.6636C72.24 52.7658 72.7511 53.6603 73.2111 54.6058L74.0033 56.3691L74.9745 55.628C75.4856 55.2447 76.0989 54.7847 76.3289 54.6569C78.0667 53.5836 78.91 52.8936 79.4722 52.1525C80.1878 51.2069 80.1622 50.568 79.3445 50.3636C79.0378 50.2869 78.8589 50.0058 78.8589 49.5969C78.8589 49.2391 78.7822 48.7791 78.7056 48.5491C78.5267 48.0891 77.7089 48.0125 77.4278 48.4214Z" fill="#011947"/>
<path d="M68.2534 53.8902C67.8445 54.2224 67.2822 54.5035 67.0522 54.5291C66.3367 54.5291 65.8256 54.8102 65.8256 55.1935C65.8256 55.398 65.5189 55.6791 65.1356 55.8068C63.6789 56.3435 63.27 56.6502 63.27 57.2635C63.27 57.5957 63.3978 57.8513 63.5256 57.8513C63.6789 57.8513 63.9856 58.2857 64.2156 58.7968C65.0589 60.7646 65.1611 60.9435 65.4934 60.8157C65.6978 60.7391 66.0556 60.8157 66.3367 60.9691C66.7456 61.2246 66.9245 61.1735 67.4867 60.6624C67.8445 60.3302 68.1256 59.9213 68.1256 59.7168C68.1256 59.538 68.5856 59.1546 69.1478 58.8735C70.5534 58.158 71.1922 57.468 71.1922 56.6757C71.1922 55.9602 69.6845 53.2768 69.2756 53.2513C69.1478 53.2513 68.6878 53.5324 68.2534 53.8902Z" fill="#011947"/>
<path d="M39.3245 55.8326C38.7878 56.1648 38.1745 56.9826 37.5867 58.1581C37.1012 59.1548 36.2067 60.4326 35.5934 61.0203C31.7089 64.7003 29.4601 65.9781 24.4001 67.3837C17.6023 69.3003 13.8712 71.217 10.4467 74.6414C7.68672 77.3759 7.20116 79.4203 7.8145 85.6048L8.22339 89.6681L10.0634 93.2203C13.6156 100.069 14.8678 101.96 17.7812 104.925C21.5889 108.784 23.4034 109.525 26.9045 108.63C29.8178 107.864 33.0378 105.18 36.9223 100.248C37.1778 99.9159 37.9189 99.047 38.5834 98.357C40.0145 96.8237 40.2189 96.2103 39.6056 95.1881C39.0178 94.1914 38.3534 94.0381 37.8423 94.8048C37.3312 95.597 30.3289 100.299 26.5467 102.369C24.9878 103.213 24.3489 103.264 23.6589 102.574C22.7645 101.679 23.1478 99.4048 24.3234 98.6637C24.8856 98.3314 31.0701 93.6292 32.4501 92.5048C35.4656 90.0514 35.6189 89.7448 34.6478 88.7737C34.1623 88.2881 34.1367 88.2881 33.2934 88.7737C32.8334 89.0548 31.6578 89.9748 30.6867 90.8181C27.5689 93.5014 25.6523 93.1692 23.6078 89.5403C22.7134 87.9559 20.5923 83.0492 20.5923 82.5637C20.5923 82.3337 21.5378 81.4137 22.7134 80.5192C23.8634 79.5992 25.4223 78.2192 26.1634 77.4526C27.2878 76.2259 27.4923 75.8937 27.4923 75.0248C27.4923 73.7214 28.0545 71.8814 28.7701 70.8592C29.1023 70.4248 29.8945 69.8114 30.5334 69.5303C31.1723 69.2492 32.6034 68.4059 33.7023 67.6392C36.0789 65.9781 36.5134 65.7992 39.1201 65.3648C40.2445 65.1603 41.6756 64.9048 42.3145 64.8026C43.5412 64.5726 45.6367 63.6014 46.6334 62.7837L47.2212 62.2981L46.4034 60.637C44.0778 56.0114 41.6245 54.3503 39.3245 55.8326ZM10.9578 82.7937C10.8556 83.0748 10.6256 83.1514 10.1401 83.0237C9.27116 82.7937 9.22005 82.717 9.60339 82.257C9.78228 82.0526 9.83339 81.8737 9.70561 81.8737C9.57783 81.8737 9.62894 81.7714 9.83339 81.6437C10.2934 81.337 11.1878 82.2314 10.9578 82.7937Z" fill="#011947"/>
<path d="M60.1778 58.8735C59.6667 59.1546 58.8745 59.7424 58.3889 60.2024C57.9034 60.6624 57.2389 61.2502 56.8811 61.4802C56.2934 61.8635 56.2678 61.9146 56.6511 62.2469C56.8811 62.4257 57.2134 63.1669 57.3667 63.8569C57.5456 64.5724 57.9545 65.4924 58.2867 65.9013L58.9256 66.668L59.36 66.1057C59.82 65.5435 61.0467 64.6746 62.2478 64.0357C63.7556 63.2435 63.8834 63.0646 63.5 62.1446C63.3211 61.6846 62.9634 61.148 62.7078 60.9691C62.4523 60.7902 62.2478 60.3813 62.2478 60.0491C62.2478 59.7424 61.9923 59.2313 61.6856 58.9502C61.0978 58.4135 61.0978 58.4135 60.1778 58.8735Z" fill="#011947"/>
<path d="M51.6167 63.7802C50.0834 64.9302 49.6234 65.5946 49.7 66.3868C49.7512 66.8213 49.93 67.2813 50.1345 67.4346C50.3389 67.588 50.7734 68.1502 51.08 68.7124C51.6423 69.7091 51.6934 69.7346 52.9967 69.7346C53.8656 69.7346 54.3256 69.6324 54.3256 69.428C54.3256 69.2491 54.7856 68.8657 55.3734 68.5591C56.4978 67.9968 56.5234 67.9457 55.9612 65.3135C55.5778 63.448 53.2012 62.6046 51.6167 63.7802Z" fill="#011947"/>
<path d="M46.7867 67.3068C46.5311 67.5879 46.1734 67.8179 45.9945 67.8179C45.8156 67.8179 45.2278 68.329 44.6911 68.9423C44.1545 69.5301 43.4645 70.1179 43.1578 70.2201C42.4678 70.4501 42.3911 71.0123 42.9789 71.2423C43.3111 71.3701 43.3367 71.4723 43.0811 71.779C42.6723 72.2646 43.0045 73.1846 43.6178 73.1846C43.8734 73.1846 44.4867 73.5935 44.9467 74.079C45.7389 74.9223 45.8156 74.9479 46.3267 74.5901C46.6334 74.3601 47.0423 74.2323 47.2211 74.2579C47.4 74.309 47.5789 74.079 47.63 73.7468C47.6811 73.3379 47.8856 73.1846 48.32 73.1846C49.3678 73.1846 49.7767 72.2135 49.6489 70.0668C49.5467 68.2779 49.5211 68.2012 48.7289 67.8946C48.2945 67.7157 47.9367 67.3835 47.9367 67.179C47.9367 66.6423 47.3234 66.6935 46.7867 67.3068Z" fill="#011947"/>
<path d="M36.1811 69.2747C34.8522 70.0669 33.7278 70.808 33.6767 70.9358C33.6256 71.038 33.4467 71.1402 33.2934 71.1402C32.8078 71.1658 31.6578 72.2391 31.4789 72.8013C31.3767 73.2102 31.6322 73.6702 32.5522 74.6413C33.7534 75.9191 35.2356 78.3213 35.8745 80.0591C36.0278 80.5447 36.6411 81.5413 37.2034 82.2569C37.7656 82.998 38.2256 83.7391 38.2256 83.9436C38.2256 84.148 37.9445 84.7358 37.5867 85.2469C36.9222 86.218 36.8456 86.678 37.1011 87.6747C37.2545 88.2113 37.9445 88.6202 39.3756 88.9269C40.7811 89.2336 41.0622 89.6936 40.9089 91.4313C40.6789 94.2169 41.6756 95.1113 43.3111 93.5525C45.7389 91.2013 48.0134 89.668 52.1534 87.598C57.1622 85.0936 58.7211 84.148 59.2834 83.2791C59.6922 82.6402 59.8456 80.7236 59.5134 80.5191C59.3856 80.4425 57.9289 80.1869 56.2422 79.9569C51.5656 79.318 51.4634 79.2669 50.6456 77.7847C49.8022 76.2258 49.1378 76.1236 47.4256 77.2736C46.7867 77.6825 46.0456 78.0402 45.7645 78.0402C45.1 78.0402 41.8034 75.2547 40.0911 73.2358C38.5578 71.4469 38.3789 70.5525 39.2478 69.2236C40.5 67.3325 39.3756 67.358 36.1811 69.2747ZM58.8234 81.4902C59.0278 82.3336 58.3122 83.1513 57.3667 83.1513C56.0634 83.1513 56.1656 81.6436 57.52 81.1069C58.3889 80.7491 58.6445 80.8258 58.8234 81.4902Z" fill="#011947"/>
<path d="M29.8945 77.8613C29.6134 78.0402 29.2045 78.3213 29.0001 78.4746C28.7956 78.6535 27.9523 79.3435 27.1089 80.008C24.5789 82.0269 23.3267 83.3558 23.4545 83.8669C23.7356 84.9146 26.8278 89.3102 27.3901 89.438C28.4378 89.6935 34.9289 84.8635 34.9034 83.8413C34.8778 83.688 34.6734 83.0746 34.3923 82.5124C34.1112 81.9502 33.9067 81.4135 33.8812 81.3113C33.8812 81.2091 33.4723 80.4424 32.9612 79.5735C31.7345 77.5546 31.0701 77.1713 29.8945 77.8613Z" fill="#011947"/>
</svg>
