<svg xmlns="http://www.w3.org/2000/svg" fill="none" viewBox="0 0 775 570"><g stroke="none" stroke-width="0" clip-path="url(#a)"><path d="M541 337zl1 2h1v1h2l1 1h2v2l1 1-1 1h2v1h3v1l2-1v1h2v2h1l-1 2h6v1l-1 1v2h-1v2h-1l1 1-1 1h1v1h2v-1l1 3 1 1h-1v2-1l1 2v1l1-1h3l1 1v-2l1-1v-1h3v1l1 1h1v4-1l-1 2h-2v-1h-1v-1l-1 1v-1 1l-1-1h-2v1l1 1h-1 1v1l1 1-1 1v1h-2v1l-1 1-1 2 2 1v2h2l1 1h-1l1 1 1-1v1h1v3l-1 1h-1v1l1 1h4l1-1h2v1h1-1l3 1v4l-1 1v1l-1 1h-1l-1 1h-1 1v1h1v2l-1 1h-3l-1-1-1 1v5h-1v1l-1 1v1l-1 2h-1l-1 2h-2v1h-3l1-1-2-1h-4l-1-1v1l-1-1-1-1v-1h-1v-1h-2v-1h-1v1h-1l1 1v1h-2l-2 2-1-1v1l-1-1v-1l1-2h1l1-2h-1v-1h-1l-1-1-1 1-1 2h-1l-2 2-1-1h-1v-1l-1-1 1-1-1-2-1-1v-1h-1v-1l1-1h-1v-2h-1v-1h-1l1-1 1-1v-1l2-2-1-1-1-1h-1l-1-1h-1l-1 1v-2h-1v-1h-1v-2l1-2v-1l2-2 1 1 1-1v1l1-1v-1l1-1v-3l-1-1v-4l1-1h-1l-1 1h-1l-1 1h-1l-2-2h-1l-2-1v-4h-2v-1h-2l1-1v-2l1 1h2v-1h2v-5l1-1v1-1h3l-1-3h1v-2h-1v-2l1-1h2l1 1h1l1 1-1 1h1v2l2 1 3-2v-1h3v-1l-2-3h1l-1-1 1-1h-3v-1l-2-1v-3l1 1zm6-79zh-1 1-2l-1 1-1 1v1h-1l-1-1-1-1h-1l-2-1v1-1l-1 1h-1v1h-1v-2h-2l-1-1v-1l-1-1h2l-1-1v-1l-1-1 1-1 2-1 1-1h1l1-1 1-1-1-1-1-2-1-1 2-2 1 1 2-1 2-2h2l-1-2v-1l1 1v-2h2v-1h1v1l1 2 1 1 2 2h2l2 1 1-1 1 1v1h-2l-1 1v2l2 3v1l-2 1-2 1h-4v2l2 1 1 1-1 1v1zM442 373l2 2h1l2 1 2 1 1 1 1 1h1l-1 1h4l2 1 1 1-1 1h3v1l3 1v4l-1 1 1 1-1 3-1-1v-1l-1 1h-2l-2 1v1l-1 1-1 1-2 1v-2l-2 2-1-1 1-1h-1l-1 1-2 1h-1l-1-1h-1l1 1-1 1-1-1h-1v2l2 2v1l-1 2v2h-1l-1 1h1v1l1 1v-1l1-1h1v2h1v1-1 1h2-1 1l-1 2 1 1v1h1l1-1v2h1l-1 1 2 1v1h1l-1 3v1l1 1h-1v1h-1l1 1 1-1v2l-1 1h-1v2l-1 1v1l-1-1v1l-1-1h-2v-3l-1-1v2l-1 1v-5h-3v-3l-1-2v-1l-1 1v-1h-2v1h-1l-1 1-1-2v-1l-1-1-1 1h-1v-1l-1 1v-1h-1v2l-1 1 1 1v1h-1v1h-1l-1-1h-2v1h-2v3l-1-1v1l-1 1h1l-1 1v-1h-2l1-2v-1l-2-2v1l1 2-1 1v1l-1-1v1l-1-1v-1l-1-2v-1l-2-1-1-1-1 1h-1l-1-2v-1l-1-2h-3v-2h-1l-1-2 1-1 1-1h1l1-1v-1h2v-3h-1l-2-2h2l-1-1h2v-2l1-1v1h1l3 1 1 2h1v-1h2v-1h1l1 1 2 3h2v-1l1 1h1l2-3v-1l1-1 1-2 1-2-1-1 1-2h1l1 1 1-1v1h2l1-2v-1l1-1v-1l1-1h-1v-1l2-1-1-1h1v-1l2-1 1-1h1l-1-1h1v-2h-1l-1-1-1-1v-1h1v-1h1v-1h-1v-1h2zm112 120zh1-1v2h-2l2-1h-1zm26-20 1 1h1-2zm4-6zv1h1-1v1h-1v1l-1-1v-1h1v-1h-1zm-20 14-1 1v1h1v1h-1v-2l-1 1h1l-1 1h-2l1 1h2-1 1l1 1-2 1v1l-1-1v3h-1l-1 2-1-1 1-1h-1v1l-1 1v2-2l-2-1h-1l1 1v2l-1-1-1 1v1h-1v1l-2-2-1-1v-3l-1-1 1-1-1-1v-2l-1-1-1-1 1-2h-3l-1 1v-2h-1l-1-1h1l-1-1-1 1-1-1-2 1v-1l-2-1v-1h1l-1-1v-1l1-1 1-1-1-1 1-1h-1l1-1v-2h1v-1h1l-1-2 3-1v-1l2-1-1-1v-1l1-2h1l1-1-2-1 1-2h-1l1-1-1-1 2-2 3-1 2-1v-1l1-1v-1h-1v-1h1v-2l-1-1v1l-1-1v-1h1v1-1h2v-1l1-1v-1l2-1 1-1v1l1 1 1 1 1-1 1-1 2-1 1 1v-2h3l1-1-1-1 1-1 1 1v-1h1v1l2-1v1h1l-1 1h1v1l-1 1v1l1 1 1 2v4h1l1-1v1h1l2 1 1-2h1l1-2h2l-1 1 1 1v1l1 2h2l1-1 1 1 1-1 1-1 1 1 1 1v1l1 1h-1v-1h-1v-1h-1v2-1h2v1l1 1h-3l1 1h-1l1 1h-2 1v1l-1-1-1 1v1h1l-1 1h1l-1 1h1l-1 1v-1l-1 1h-1v1h-1v-1h2v-1l1-2-2 1v1h-2l1-1v-1h-1v2l-1-1h-1v-1 1h1l-1 2h2v1l1 1-1 1-1-1h-1l1 1v1l2-1h1l-1 1 2-1-1 1h-1v1l-1-1-1 1v1l-2 2h3l-1 2h-1v3h-1v2l1-1v2l1 1v1h-1v-2l-1 1h1-1v-1h-1v-1h-1v1l-1 1v-1h-1l-1 1h1v2l1-1 1 1h-1v1h-1l-1-1v1l1 1h-2v-1l1-1h-1l-1 1v-1h1l-1-1-1 1v1h1v1h-1l1 1h1l-1 1h1-2v1h1-1l-2 1v-1h-1v1h1v1h1l-1 1h-1v1h1l-1 1-1-1-1-1h-1v1h-1l-1 1-1-1zM497 521zv1h-1l1-1h-1zm5-2zm-34 11 1-2h-2zm0 3 1-1h-1zm25-10zv-2l-1 1zm55-27 1-1v1l1-1v2l2-2-2-1-1-1v-3l-1-1 1-1-1-1v-2l-1-1-1-1 1-2h-3l-1 1v-2h-1l-1-1h1l-1-1-1 1-1-1-2 1v-1l-2-1v1h-1l-1 2 1 1v2h-1l-1-1h-1l-1-2h-3l-2 1h-2l-1 2-1-1-1 1v-1l-1 1h-1l-1 1-1-2h-1l-2-1 2-1v-1l1-1v-1l2-1v-1h2v-1l1-1-1-1h-1l-1-1h-1l-1 1h-3l-1 1h-1l1-2h-1v-1h-1l-1 2h-1v-1l-2 1-1-1h-2v-1h-1v-1 1-1l-1 1-1 1-1 1h-2v1h1l1 1h-1l1 1-1 1 1 1-2 1h-1v-1h-1v-1l-1-1h-1l-1-1h-3l-1 2-1 1 1 1v1h-1l-1 1h-1v2l1 1v1l1 1-1 2h-2v2l1 2h-1v1l-1 1-1-1-1 1v1h1l-1 1h-2v1l-1 2v5h1l-1 1v1l-2 2-2 1v1h-1l-2 1h-1v1h-1l1 1v1l1 1h-2v2l-1-1-1 1-1-1h-1v4h-5v1l-1 2h-1v3h2v1h-2v2l-1 1v1l-1 2 2 3-1 1h1l1 1v1l1 1h1-2l1 1v2l1-1h4l1-1 1-2v-3l-1 1-1-1h1v-2h-3v-3l1 1v-1l-1 1v1l2-1h2v1l1-2h-3l1-2h3l1-2h2l2-1v-1 1l-1-1h1l1 1 2-1v2l2-2h3v-1l1-1v-1h-1 1l1 1h1-1v2-1h2v-1h-1v-1l2-1h1l1 1v1l2-1v-1l2 1h1l2-3 1 1 1 1 1-2v-2l1-1v2l1 1 1-1 1 1 1-1-1-1 1-1 1 2 1-1-1-1 1-1v-1l1-1h-2l2-3-1-1v-1h2v1l1 2h1v1-1l2 1 1-1h2l1-1 1 1 1 1h1v-1h-1v-1h1-1v-2h3v-1l1 1h-1v2h1v1h1v-2h-1v-1h1l1 1 1-1 1-1v1-1h1v1h2-1v1h2l1 1v-2 1l-1-1 2-1h1l1 1h1l1-1h2l2-2 1 1h2l1-1-1-2 1-1 1 1v-1h2-1v-2l1-1zm1 2zl3 1v-2zM299 205l8 19-3 3 5 6 3 3 1 1h1v1l-2 5h5l3-4 4-2 5 1 1-2 5 1h1l1 3v2l-2 3-2 3-3 3-3 3h4l4 2 3 1v3h3v1l4 1v6l1-1 1 2 3-1-1 1h1v1h1v1l3 1 1 1h3v-1l3-2-4-4 5-1 3-1 2 1 5 1 2-1 2-1 1-2 6-2h1l2 1v2l2 3-1 3-2 1-2 4-5 3v2l1 3-2 1v3l4 1 3 4 3 2h7l-1 1 1 1-2 1h1v1h1l1-1h1v2l1 1 3 1v2-1l1 1 1 1-1 1h-1l1 3 1 1 1 2 1 1-1 1 1 1v1h-1l-1 1v2l1 1-1 1 1-1v1l1 1h3-1l2 2v1l1-1 1 1h1v1-1l-2 1v1l2-1 1 1v-1l1 1v1l2 1 2-2v-1h-1v-4h4l1-1v1-1h1l-1-2h1l-1-1h1v-3 1l-1-2h-1l-1-1h-2v1l-1-1h1v-1l-1-1 1-1-2-1h1v-1l1-2h1v-2l-1-2v1l1-1v-2h2v-1l1 1h4l1 1 1 2h2l1 2h2l2 1 1 1h1l-1 1h2v1l1-1v1h2l1 2 1-1 2 2v6h-1l-1 1v4l1 1v4l-1 1h-2v-1l-2 1v-1l-3 1h-1l-1-1h-1v1h-1l1 3 2 1-1 1h-2l-1-1v1h-4l-1 1v-1l-1-1-1-1h-6l-1 1v1l1 2v1l-1 1v1l-1-1-1 1v1h2l1 1 1 1 1 1v1h-3l1 1 1 1-1 1-1 2-1 1h1v3h1l1 2-1 1v-1h-1v-1h-2l-1 1h-1l-1-1h-1l-2 2v2h-2l2 1 1 1h1v1l-1-1v3l-1 1-2 1h-2l-1-1-1 1 1 2-2 2-1-1v1h-4l-1-1-1 1v-1h-1l-1-1h-1l-2-1-1-1 1-1h1v-1h-1l1-1-1-3h1v-1h-1l-1-1-1-2v-1l-2-1h-6l-1-1h1v-1h-1v1h-1l-3-1 1-1-1-1v-3l-2-1v-1l-1-1-1 1h-1l-1 1-1 1 1 1h-3v2l-2-1v1h-1l1 1v1l1 1-1 1 1-1v2l1 1 1 1h-1v1h-2l-1 1v2l-1-1v1h-2l-1 2-1-1 1-1-1-1h1v-1l1-1-1-1v-2h-1v1l-1 1h-1l-1-3h-2v1l-2-1h-1l1-2h-1l-1-1h-1l-2-4h-1l1-3 1-1 1 1h1l2 1h1l4 1v1h1v1l1-1h1l1 1v-1h1v-2h2v-1h1l-1-2-1-1h-1l-1-1v-1l-2 1-1-1 1-1 1-1 1 1v-3h1l1-1 1-1h1l1-1 1-1v-1h-1l-1-1h1l-1-1v-1h2l1-2 1 1h2v-2l-1-1v-1l2-1h2v-3l-1-1 1-2h1l-3-2-1-4-1-1h-1v-1h2l-1-2h-1v-1l-2-1 1-1v-1l1-1-1-1-1-1h-1l-2-2h-1l-1-1 1-1-1-1-1-2-1 1v3h-1l-1-1-1-1-4-3-1-1-2-1-2-1-1-1-3-1v-2l-1-1-1 1v-1h-1l-1-1-1-1-1-1v1h-1l1 2 1 2-2-1-5-3-2-2v-1h-1l-1-1-3-3v-1l-1-1v1l-3-2-3 2h-1l-1-2h-1v2l-3 2-1-1-4-1v-1l-2-1-2-2h-4l-1 1v13l-2-1-1-1h-3v-2l-2-1h-1l-1-1-1 1v-1l-1-1h-1l-2-2h-1l-1-2h-1l-2-1-1-2h-2l-3-1h-2l-1-1h-5v-1l-2 1-1 1h-2v-1l-2 1-3-1-1 1h-1l-2 1h-1l-1 1-1-1v-4l-1-2-1-5 2-4v-7l5 1 4-2 2-5 3-3 5-5 3-4 5-3 6-1h4l2-1 1-2-1-2 1-8 3-2h8zM454 462zl1-1 1 1-1 1h3l-1-2h1l1-2h2v2h2v1h1v-2l2-1 1-1v-1h2v1h2l1-2v1h2l1 1h1v2l-1 1v2l1 1v-1h3l-1 1v1l-2 1v1h1l-1 2-2 3-2 1v4l1-1h1v-1h1l1-2 1 1h1v6h2v-1l1-1 2 1h2-1v2l1 1v1l1 1-1 2h-2v2l1 2h-1v1l-1 1-1-1-1 1v1h1l-1 1h-2v1l-1 2v5h1l-1 1v1l-2 2-2 1v1h-1l-2 1h-1v1h-1l1 1v1l1 1h-2v2l-1-1-1 1-1-1h-1v4h-5v1l-1 2h-1v3l-2-1v-1 1-1l-1-1v-1 3l-1 1h-3v1h-1l-1-1 1-1v-1h-3l-1-1v-1 2h-1l-1-2h-1v-2h-1l-1 1 1 1h1v1l-1 2h-2l1-2h-1v1-1h-1l1 1-2 1 1-1h-2l1 1h-3l-1-2h-1l-2 1h-1l-1-1-2 1v-2l-1 1-2-2h-1l1-1-1-1-1 1v-1h-1l-1-1-1 1v-4l-1-1h-1l1-1h-1l1-3 1 1h1v-2l1-1h-1l-1-1v-1l-1 1v-1h-1l-2 1h-1l-1-2h-3v1h-1l-1-1h-1v-1h-2v-1l-1-1 1-1 1-1v-1h2v-1h2v1l2-2v-3h1l-1-1h1-1l-1-2-1-2-1 1v1l-1-1v1-1h-1l-1 1-1-2h-1v2h-1l-1-1h-1l-1-1h1l-1-2-1-1v-1h-1l-1 1-2-1h-1v2l-1-1-2-3v-1l1-1 2 2 1-1h1v-1l2-1v-1h1l1-1h3l1 2h1l3 2 1-1 1 1h1l1-1 1-2-1-1h2l2-1 2-1 1-1h2l1-1h1v-2l-1-1 2-1 2-1v1l1 1v1h1v1h1v1l2-1 1 2v-1l1 1v1h1l1-1h2v-3h1l-1-1h1v1l1-1 1-1v1h2l1 2v-2h1l-1-1h1v-1h1l1 1h3v-3h-1l-1 1 1-1h1l1-1v1-1l1 1h1v-1l2-1-1-1zM455 452zm-40-25zl1 1v-1l1-1-1-2v-1l2 2v1l-1 2h2v1l1-1h-1l1-1v-1l1 1v-3h2v-1h3v1h1v-1h1v-1l-1-1 1-1v-2h1v1l1-1v1h1l1-1 1 1v1l1 2 1-1h1v-1h2v1l1-1v1l1 2v3h3v5l1-1v-2l1 1v4l1-1h1l1 1v-1l1 1v-1l1-1v-2h1l1-1v3l1 1-1 3 1-1v1l-1 1v2l1 1h1v2l-2 2v1h-1v-1l-1 1v-1l-1 1v1l-2 1v2h-2l2 1 1-1h2-1 1l1-1 1 1 1-1 1 1v1l1-1v2l-1 1h1l-1 1 1 1h-1l-1 1h-1 1v3l-1 1-1 1 1 1 2-1v4l-1 1v1l-1 1v1h-1l-1-1v1l-1-1v1h-1l-1 1 1-1h1l-1 1 1 1v1h-3l-1-1h-1v1h-1v3l-1-2h-2l-1-1-1 1v1-1h-1l1 1h-1v3h-2l-1 1h-1v-1l-1-1v1l-1-2-2 1v-1h-1v-1l-1-1-1-1v-1l-2 1-2 1 1 1v2h-1l-1 1h-3v1l-2 1-2 1h-2l1 1-1 2-1 1h-1l-1-1-1 1-3-2h-1l-1-2h-2l-1-1-2 2v1l-2 1v1h-1l-1 1-2-2v-1l2-3h-1v-1l1-2 1 1v-1l-2-1v-1h-1v-2l-2 1v-2h-1v-2h1v-2l1-2v-1l1-2 1-2v-1l-1-1v-1h-1v-1h-1l-1 1-2-1-1 2h-3l-1-1v-2l-1-1 1-1v-1l-1-1h-1l1-1h-1 1l1-2 1-1 1-2h1v1l1 1 1 1 1-1 1-1v-1l2 1 1 1h3v-1l1 1 2-1h2l1-2h-1l1-1v-2h4l1 1h1v-1h3l1-1 2 1 1-1v-2l-1-1v-1l-1-1h-1v1l-1-1-1 1-1-1 1-1-1-1h-2l-1-3 1-1h3v-1l1-1 2 1 1 1 1 1zm54 115 1 2h3l1 5h-1l-1 2-1-1h1-1v1l-1 1-1 1v1l-1 2v1l-1 2v2l-1 1h-2l-1 1-1 1-1 2h-3l-1 1 1 1h-2l-1 1v-1l-1 1v-2h-4l-1-1h-1l-4-2v-3l-1-1 1-1-1-3h1v-1h-1l1-1v-1h1l3-3 2-1 1-1h1v-1l-1 1-1-1 1-1h3v1h1v-2h1l1-1 1 1h4l1-1h2v-1l3 2v1-3h1zm83-292zv3h1l-1 1h1l-1 1v2l-1-1-1 1v-2l-1 1v-1l1-1-1-1-2-1v-2h4zm-39-11-1-1v-1l-1-2-2-2h1v-1h1v-1l-1-1v-2l2-2 2 1v-5l1-2 2-1v-2l1-1 3 1v-1h1v1l1 1v3l-1 1 1 2-1 1h6v-2h1l3-2h1v-1h1v-1h1l1 2v1h2v-1h1v-2h1l1-1h1l-1 1h2v1l2-1h2l1-1v-2l-2-1h2v-4l2-1h4l1-1v-1h1l1 1 2-1 3 4 1 1-2 1 2 1v1l1 1-1 1h1v-1h1v1l1 1-1 1 1 1-1 1-1-1-1 2 1 1 1 1 1 1v1h-1l1 1v2h1v-1h3l1 1v-1h1l1 1h4v1h-1l1 1-2 1v1h-1v1h1l-1 1h-1l-1 3 3 2 2-1-1 2h1l1 1h4-1l1 1v2l1 1-1 1 2 1v2h1v1h-1l-2 1-1 1v1h-1l-1 1-1 3v3h-1 1-1l-2 2-1 1-3 1-2-1-3 3-1-1-1-1-1-2-1-2-1-1-1 1v-1l1-2-1-1h-1l-1 1-1-1 1-1-2-2v-3h3v-1h-1l1-1h-2v-1l-1-1h-3l-1-3v-2l1-1h2l-1-1h1l-1-1-1 1-2-1h-2l-2-2h-1v-1l-1-2v-1h-1v1h-2v2h-1v-1 1l1 2h-3l-1 2-2 1-1-1-2 2 1 1 1 2 1 1-1 1-1 1h-1l-1 1-3 1v1l1 1v1l1 1h-2l1 1v1l1 1h1l1 2h1v-1h1v-1l1 1v-1l2 1h1l1 1 1 1h1v-1l1-1 1-1h3v4l1 1h-1l1 1-1 1h1v2l-2 1-1 1 1 3h1l1 1h1l1 2 2-1v1l3-1h1l1 2 1 2 2 2h-1v2l-1 1h-2l-1 3-8 1-1 1-1 1-1 1-2 2-1-1h-1v2l-1-1v1l1 1h-1l-3 1v1l-1 1v2l-1 1v1l-1 1-1 1-2 1-1 1-1 1-1 2 1 1v2h1l1 1v1l-2 1-1-1-2-1v1l-1 1-1 1v-1l-1-1-1 1v-1l-2 1-3-2h-2l-1-1h-1l-1-1v1-1h-3l-1-1-1-1v-1l-1-1v-1h-1l1-1 2-1v-1h2l-1-1 1-1h-1l1-1h-1v-1l1-1 1-1v-1l1-1v-1l1-1 1-1v-2h-2l1-1-1-1v-2l-1-1v-1l-1-1-1-1-1-1h-2l1-1-1-1 1-1v-3h2v-1l1-1v-1l-1-1v-1l2-2 1-1h1l1 1h1l1-1 1 1v-2h1l-1-1v-1l1-1v-1l1-2-1-1-1-1v-1l1-1-1-1h-2v-1h-2l-1-1h-1l1-1v-1l1 1v-2h2v-1l3-1 1-1h-3v-4l-1-1zM508 310h3v1-1l1 1h1l1 1 1-1 1 1 3 2 2-1v1l2-1v2l1-1 1-1v-1l2 1 1 1 2-1v2l-2 1v3l2-2h1l3-2h3v-1h1l-1 2h-1l-1 1v1h-2v1l-1 1h-2l-1 2h-1v1l-1 1v1l-1-1-2 1v1l-1 2h-1v2l-1 1h5l1 1h-1 1v1h1l1 1v2l2 1 1 1 1-1 1 1 2-1h2v1l1-1v3l2 1v1h3l-1 1 1 1h-1l2 3v1h-3v1l-3 2-2-1v-2h-1l1-1-1-1h-1l-1-1h-2l-1 1v2h1v2h-1l1 3h-3v1-1l-1 1v5h-2v1h-2l-1-1v2l-1 1h2v1h2v4l2 1h1l2 2h1l1-1h1l1-1h1l-1 1v4l1 1v3l-1 1v1l-1 1v-1l-1 1-1-1-2 2v1l-1 2v1h-2v-2l-1-1h-1v1h-1v1h-3v-1h-1l-1-1-1 1 1-3h-4l-1-1-1-1v1h-1l-1 1v-2h-2v-1l-1-1h1l-1-2v-4h-1l-1 1-2 1h-1v-1l-2-1-1 1-1-1h-1v1l-1-1v1-1l-1 1-3-1-1 1h-2l-1-1h-1l-1-1h-2l-3-2h-1l-1-1-1-1-1-1-1-1h-1v-1h1l-1-1h-1l1-1-1-1h-1v-1l-1-1v-1h1l-1-1 1-1-1-1-2-2v-2l-3-1 1-1v-1h-1v-1l1-1-3-2 1-1v-1h-1l-1-1 1-1-1-1h4l1-1h2v-1l1 1 2-1v-1h3l3-1 1-1v-1h1l1-1h3v-3h3v1l1-1 1 1h2v-1l1 1h1v-1h2l1-1h-1l1-1 1 1 1-2h2l1-1h1l1-2v-3h1v-4l1-1h-1v-1zm6 204zm-2-1-1 2v-1l-1 1h-1l1-1 1-1zm-2-1 2-1 1-1h2v1-1l1 1h-2v1h1v-1l1 1v1l-1-1v2l-1-1v1l-1-1zM631 1zV1h1l1 1h2l2 2 1 1 2-1 1 1v2l1 1h4v1h1l1 1V9l1-1h3l3 2 1 1 1-1v1l1 1h1l-1 1v2l1-1h1l2 3 1-1v1l-1 1 1 1h-1v2l1-1 1 2v1h1l1 2v2h1l-1 1v1h2l1 1-1 2v2l2 4 1 1v1l-1 1 2 1v2l2 1-1 1-1 1 1 1v-1h1l-1 2 1 3 2 2 2 3v2l1 2-1 2 1 1v3h1l2 1v2l-1 3v3l1 1h1v2l2 2h1l1-1 1 2h2v1l2-2h5v2h1l2 1 1 1h4v-1h1l1 3h2v1l2 1-1 1h1v2l4 3 3-1 1 1h2l-1 2-1 3h1v2h2v1l1 3-1 1v1l-1 1v1l3 3 1 2v2h1l2-1h3l1 2h1l1-1h2l1 1 1-1h3l1-1 2 1h1l1-4v-1l2 1 1-2h1l1-1 1-1 2 1 1-1 1 1h1v-1l3-1h1l1-2h1v-1h1l4-1 1 1 1-1 1 2h1l-1 1v1l-1 3v2h1l1 2 1 1v1l-4 5h-2l-2 2v1l1 1v2l-2 1-1 4 1 1-1 2-1 2-1 2 1 1-1 1h1v1l-1 1v1-1l-1 1-1 1 1 1-1 2h-1v2l-1-1-1 1v1h1-1v4h-1l-1 1-2 1-1 4 1 1v1l-2 2-1-1-2 7-2 2-3-1-3-2 1-4-2-5-1-1-1-1v1l-1 1h-1l-1 1 1 1-3 2v1h-2v1h-1l-1-1h-1v1l-1 1h-1 1v1l1 2 3 10v1l-1 1v8l1 1h-2v1l-2-1-2 1v-2l-3-1v-1h-2v-2l-1-2v-3l-1 1v1h-1l-1 2-1-1-1-2v-1l-1 1-1 1v1h-4l-2 1h-1v1l-1 1 1 1-1 1-2 1h-2v-1l-1-2-1-1h1l-1-2h-1l-1-4-1-1v-5l-1-1-2 1-1 2-1-1v5h-1l-1 1-1-1-1 1v-3l-1 1-1-1v-1l-1-2v-1l-1-1h1v-1l-1-1h-4l-1 1v-3l-1-1v-1l1-1 1-1-2-2v-1h-2v-1h-1l-2-1h-2l-1 1-1 1h-1l-1-1h-2l-1-1-1-1-1-1v-3h-1l-1 1h-1l-1 1h-4v-2h-2v1h-4l-1 1v-1h-1l-1-1v-1h-2v-1l-1-1-1-1h1-1v-3l-1-1h1v-4h-1v-2l-1 1v-1h-1l-2 1h-3l-2-1-1 1-2-3v-3h1v-1h2v-1h5v-3h-1 1v-1h-1v1h-1l1-2h-2l-1-1v1h1v1l-2 1-1 2h-2v-1l-1-1v-2h-2v-1l1-1-3-1-3-4 2-2 1-2 2-2 1-1 4-2 2-3 3-2 2-2 4-4 3-3 1 1-1 1h1l-1 1h1v2l1 1v1h1l-1 2 1-1 1-3-1-2v-1h1l-1-2v-1h1v-3h1v-3h1v-2l1-1v-1l1-1h2l1 1 1-1v-3l1-2-1-2v-1l-1-1v-1l1 1v-3l-1-1h1v-2h-1 1v-1h1v-1h-1 1v-2 1-1h1-1l1-1h1v-2h1v-3h2v-1h1v-1h1l-1-3h1-1v-1h1v-1l1-1v-1l1 1v-1l1-1-1-1v-1h1l-1-1h-1v-1h-1v-1l-1-1-1-2-4-6-1 1v-1h-3v2l-2 1v2h-2v1h-2l-1-1-1 1v2h-1v-1h-1l-1-1h-1l-1 1h-1l-1-1h-1l-1-1-1 2h-2v1h-2l-3-1h-1v-1l-1-1v-1l-1-1v-2l-1-3v-1l-1-2v-3l-1-1v-1h2v-3l-1 1v-1h-3v-2h-1v-1l-1-1h-1l-1-1-1 2v1l-1 2h-2l-1-1-1-2-2-1-1-1h-1v-1h-2l1-2h2l1-2 1-1v-2h1l1-2h1v-1l-1-1V9l-1-1V7h-1l-1-2 5-2h2l1-1h2l2 1 3-1 2 1 3-2h1l1-1zM451 418zl-1-1 2-1-1-1 1-1v-1h1v-1 1l1-2h2v-1h1v-1h6v1h1v1l1-1h1l2-1-1-1-1-1 1-1-1-1 2-1 1 1v-1h2v1h4l2 1v1h5l2 1 1 1h1v1h1v1l1-1v1l1 1v1-1h1l1-1h3l2-3 1 2 1-1v1l-2 1 1 2h1l1 1v-1 1l3-4 3-2v2h1v1l1 1h-1v1l1 1-1 1-1 1 1 1v2l1-1v1l1-1v1h2v2h1v1l1 1v3h-1l2 1-1 1 1 1v1l-2 2h-1l1 2h-3v1h-1v2l-2 2v2h1l-1 1 1 1h-1v1h1l3-1-1 1h1l-2 3h1v1l1 1-1 2 1 2v1h3l-1 3v1l-1 2h3l-1 1v1h-2l1 2-2 2 1 3v1h-1l-1 2h-1v-1l-2 1-1-1h-2v-1l-1-1v1-1l-1 1-1 1-1 1h-2v1h1l1 1h-1l1 1-1 1 1 1-2 1h-1v-1h-1v-1l-1-1h-1l-1-1-1 1v-1h-2l-1 2-1 1 1 1v1h-1l-1 1h-2l-2-1-1 1v1h-2v-6h-1l-1-1-1 2h-1v1l-1 1h-1v-4l2-1 2-3 1-2h-1v-1l2-1v-1l1-1h-2l-1 1-1-1v-2l1-1v-2h-1l-1-1h-2v-1l-1 2h-2v-1h-1l-1 1-1 1-1 1-1 2h-1v-1h-2v-2h-2l-1 2h-1l1 2h-3l1-1-1-1-1 1-1-1v-1h1l-1-1v-2 1h-2v-2l1-1v-3h-1 1l1-1h1l-1-1 1-1h-1l1-1v-2l-1 1v-1l-1-1-1 1-1-1-1 1h-1 1-2v1h-1v1l-2-2h2v-2l2-1 1-1v-1 1l1-1v1h1v-1l2-2v-2h-1l-1-1h1l-1-2 1-1v-1l-1 1 1-3v-1h-1v-4h-1v-1h1l-1-1h1l-1-1v-1l1-3zm4 34zM455 380zl-1-1 1-1-1-1 1-1v-2h-1l-1-1 1-2v-1l1-1v-1h1l1 1 2-1 1 1h1v-1h1v-1l-1-2-1-1h-3v-3h-3l-1-1v-1h2v-1 1h7l1 1h2l2-2v2h1l1 1v-1h1v-1h1l1-1 1 1v1h1l1 1-1 1h1l1 1h-1v1h1l1 1 1 1 1 1 1 1h1l3 2h2l1 1h1l1 1h2l1-1 3 1 1-1v1-1l1 1v-1h1l1 1 1-1 2 1v1h1l2-1 1-1h1v4l1 2h-1l1 1v1h2v2l1-1h1v-1l1 1 1 1h4l-1 3 1-1 1 1h1v1h3v-1h1v-1h1l1 1v2h2v1h1v1h1v2l1-1h1l1 1h1l1 1 1 1-2 2v1l-1 1-1 1h1v1h1v2h1l-1 1v1h1v1l1 1 1 2-1 1 1 1v1l-1 1-1 1-2-1-2-1h-2v1l-2 2-1-1-1 1-1-1 1 1v2l-1-1h-2v1-1l-1 1 1 1v-1l-1 1-1 1-1-1-2 1h-3l-1 2h-2l-1 2h-3v-1l-1 1v-2l-1-1 1-1 1-1-1-1 1-1-1-1v-1h-1v-2l-3 2-3 4v-1 1l-1-1h-1v-2l1-1v-1l-1 1-1-2-2 3h-3l-1 1h-1v1-1l-1-1v-1l-1 1v-1h-1v-1h-1l-1-1-2-1h-5v-1l-2-1h-4v-1h-2v1l-1-1-2 1 1 1-1 1 1 1 1 1-2 1h-1l-1 1v-1h-1v-1h-6v1h-1v1h-2l-1 2v-1 1h-1v1l-1 1 1 1-2 1 1 1h-1l-2-1 1-1h-1v-2l-1 1h-1v-1l-1-1 1-2h-1 1-2v-1 1-1h-1v-2h-1l-1 1v1l-1-1v-1h-1l1-1h1v-2l1-1v-2l-2-2v-2h1l1 1 1-1-1-1h1l1 1h1l2-1 1-1h1l-1 1 1 1 2-2v2l2-1 1-1 1-1v-1l2-1h2l1-1v1l1 1 1-3-1-1 1-1v-4l-3-1v-1h-3l1-1-1-1zm172-236 1-1 2 1h3l2-1h1v1l1-1v2h1v4h-1l1 1v3h1-1l1 1 1 1v1h2v1l1 1h1v1l1-1h4v-1h2v2h4l1-1h1l1-1h1v3l1 1 1 1 1 1h2l1 1h1l1-1 1-1h2l2 1h1v1h2v1l2 2-1 1-1 1v1l1 1v3l1-1h4l1 1v1h-1l1 1v1l1 2v1l1 1 1-1v3l1-1 1 1 1-1h1v-5l1 1 1-2 2-1 1 1v5l1 1 1 4h1l1 2h-1l1 1 1 2v1h2l2-1 1-1-1-1 1-1v-1h1l2-1h4v-1l1-1 1-1v1l1 2 1 1 1-2h1v-1l1-1v3l1 2v2h2v1l3 1v2l2-1 2 1v-1h2v1l-1 1v4l-2 2 1 1-1 1h-1v1l-2-1-1 1h-1l-2 1-1 1v1l1-1 1 2v3l-1-3h-1v1-1h-1l-1-2-1-1 1-2h-2v-2l-1 1h-1v-1h-1v2h-1l-1 3 1 1h-1l1 1-1 1v2h-1v-1l-1 1v1l-2-1h-1v1h-1v1l-1 1 1 1-4 2v1h-8l-3 1v2l1 2 2 1v2l-2 3-2-1h-5l-1-1h-3l-1-1h-1l1-1h-1l-1-1 1-1h-1l-1-1h-1v1h-3 1v1h-1l-1 1v1l-1 2 1 1h-1l-2 1v2l-2 2h-1 1l-1 1v1h-1v1h-6l2-1v-3l1-1v-1h-2v-2l-1-1v-1l-1-2v-1h-2l1-2-1-1v-2l1-1v-1h1v-1l-1-1-1 1v-3h-2v-2l-1-1v-2h-1v-3l-1-1v1h-1l1-3-1-1 1-1v-1h-1l-2 1v2l-2 2h-1l-1-1 1-1h-1v-1l1-1-2-2v-1h-2v-1h-1l-2-1v-2h-1l-1 1v1h-2l-1-2-1 1-1-1v-1h1l1-1h-1 1l1-1-1-1v-3l-2-3 1-2h-1l-1-3-1-1v-2h-2l-2 2h-1l-1 1-3 2h-1l-1-1v-3h-1v-2h-1v-3h-1l1-1v1-1l-1-2 1-5 1-1v-1h-1v-3h-1l-1-2v-2l-2-1v1h-1l-1-1 1-1 1-2v-2l2 1v-1l2 2v1l2 1v-1h1v-1h1v1l1 1 2 1v1l2-2v-1l-1-4 4-1v-1zm-86 193v-2h1v-2l2-1h2l3 1v1l1 1v1l1 1v1l1 1 1-1 1-1 1 2h2l1-1h1v-2h4v2h1v2h3v-3h1v-2h1l1 1 2-1h-1v-1h1l-1-1h1l1-1v-2h3v-1h2v1h-1v4l1 1h3v1h-1l3 2h1v1l3 1 4 2v3l5 10-1-1v2h1v1h1l-1 1h1v1l1 1-1 1h1l1 2-1 2 1 2 1 1h1l3 2 1 3v1l4 2 1 2 1 2v1l-3-1-4-2-3 1v1l2 2 1 2-2 1-1 1 1 1h-1v2h-3v2h-1l-1 1v-1 1l-1 1h-1v1h-1v-2l-1 1v-1h-3l-2-1-1-3-1 1-1-1-1 1h-1l-3-1h1-1v-1h-2l-1 1h-4l-1-1v-1h1l1-1v-3h-1v-1l-1 1h-1v-1h1l-1-1h-2v-2l-2-1 1-2 1-1v-1h2v-1l1-1h-1v-2h-1 1l-1-1 2-1 1 1v-1 1l1-1v1h1v1h1v1l1-1 1-2v1-4h-1l-1-1v-1h-2l-1 1-1 1v2l-1-1h-3l-1 1v-1l-1-2v1-2h1l-1-1-1-3v1h-2v-1h-1l1-1-1-1h1v-2h1v-2l1-1v-1h-6l1-2h-1v-2h-1l-1 1v-2l-2 1v-1h-3v-1h-2l1-1-1-1v-2h-2l-1-1h-2l-1-1zM538 408h1l1 1 2-2h1l1-2 1-1 1 1h1v1h1l-1 2h-1l-1 2v1l1 1v-1l1 1 2-2h2v-1l-1-1h1v-1h1v1h2v1h1v1l1 1 1 1v-1l1 1h4l2 1-1 1h1v2h-1v1h-1v2l1 1h1l1 1h-1 1l1 1 1 1v4l1 1-1 1 1 1h-1l-1 1 1 1-1 1-3 1v1l-1-1-2 1-1 1-1 1-1-1-1-1v-1l-1 1-2 1v1l-1 1v1h-2v1-1h-1v2h1v-1l1 1v2h-1v1h1v1l-1 1v1l-2 1-3 1-2 2 1 1-1 1 1 1-1 1 2 1-1 1h-1l-1 2v1l1 1-2 1v1l-3 1 1 2h-1v1h-1v2l-1 1h1l-1 1 1 1-1 1-1 1v1l1 1h-1v2h-1l-1 2 1 1v1l-1 1-1-1h-1l-1-2h-3l-2 1h-2l-1 2-1-1-1 1v-1l-1 1h-1l-1 1-1-2h-1l-2-1 2-1v-1l1-1v-1l2-1v-1h2v-1l1-1-1-1h-1l-1-1h-1l-1 1h-3l-1 1h-1l1-2h-1v-2l-1-3 2-2-1-2 1-1v1l1-1 1-1h-4l2-2v-1l1-3h-3v-1l-1-2 1-2-1-1v-1h-1l2-3h-1l1-1-3 1h-1v-1h1l-1-1 1-1h-1v-1l2-3v-2h1v-1h3l-1-2h1l2-2v-1l-1-1 1-1-2-1h1v-3l-1-1v-1h-1v-2l1-2h2l1-2h3l2-1 1 1 1-1 1-1v1l-1-1 1-1v1-1h2l1 1v-2l-1-1h2l1 1 2-2v-1h2l2 1 2 1 1-1zm71-148zv1h-1l-1 1v-2h-1l-1-1v1h-1l1-2h3l-1-1-1-1 1-1 1-1 2-1 1-1h1v-1h-1 1v-1h1v-1l2-1v-1h-1l2-1v-1l2-1-1-1-2-1v-2l-2-1-1-1-1-2-1 2h-2l-1-1-4-1-1 1v1h-1l-1-1v1l1 1h-1l1 1h-2l-1 2-2 1v1h-1l1 1h-1l1 1h-2v2l-2 1-2 1-3 1v1h-1v-1h-1v-2l-2-1 1-1-1-1v-2l-1-1h1-4l-1-1h-1l1-2-2 1-3-3 1-2h1l1-1h-1v-1h1v-1l2-1-1-1h1v-1l1-1 1 1v-1l-1-1h1v-2l1-1h-1l-1-2v-1l1-1v-2h-1l1-1v-1l-1-1-1-1 1-1 2-1 1-1v1l1 1 2 1h1v2l3 4-1 2h2v-1l2-3h1l1-1v-1l1-1h1l1-1 1-1h3l3-2 1-1 2-1h1l1 1h1l1-2h1v-2l2-1 1 1h1v-1l2 1 1-2h-1v-1h2l1 1h1l2 1v-1h3l2-1h-1v-2l1-1h4l1-3 1-1h-1l1-1v-2l1-1h1v2l2 1h1v1h2v1l2 2-1 1v1h1l-1 1 1 1h1l2-2v-2l2-1h1v1l-1 1 1 1-1 3h1v-1l1 1v3h1v2l1 1v2h2v3l1-1 1 1v1h-1v1l-1 1v2l1 1-1 2h2v1l1 2v1l1 1v2h2v1l-1 1v3l-2 1h5-3l-1 1 1 1h-2v1h-1v1h-2l-1 1h-1l-2 1 1 1h-2l-1 1-1 1-2 1-2 3-1 1v1h-1v1h-1v2h-2l-1-1-1 1v-1l-2 1-1-1-1 1h-1v1h-1v-1h-2v2h-3v1h-3v1h-1l-1 1h-1l-1 1v-1l-1 1v1h-2l1 1h-1l-1 1v1l-1 1v1h-3v1h1v1h-1l-1-2v1h-1l-1 1 2 1h-2l-1 1h-3l-1 1h-1l1-1-1-1h1-1v-1h2v-1h1v-1l1 1 3-1v-2h-1l1-1h-1 2v-2h3v-1h-1l-2 1v-1zM506 515zm0 0zM606 5l1 2h1v1l1 1v1l1 1v1h-1l-1 2h-1v2l-1 1-1 2h-2l-1 2h2v1h1l1 1 2 1 1 2 1 1h2l1-2v-1l1-2 1 1h1l1 1v1h1v2h3v1l1-1v3h-2v1l1 1v3l1 2v1l1 3v2l1 1v1l1 1v1h1l3 1h2v-1h2l1-2 1 1h1l1 1h1l1-1h1l1 1h1v1h1v-2l1-1 1 1 1 1 1-1v-1h2v-2l2-1v-2h3v1h1l4 5 1 2 1 1v1h1v1h1l1 1h-1v1l1 1-1 1v1l-1-1v1l-1 1v1h-1v1h1-1l1 3h-1v1h-1v1h-2v3h-1v2h-1l-1 1h1-1v1-1 2h-1 1v1h-1v1h-1 1v2h-1l1 1v3l-1-1v1l1 1v1l1 2-1 2v3l-1 1-1-1h-2l-1 1v1l-1 1v2h-1v3h-1v3h-1v1l1 1-1 1v1l1 2-1 3-1 1 1-2h-1v-1l-1-1v-2h-1l1-1-1-1h1l-1-1-3 3-4 4-2 2-3 2-2 3-4 2-1 1-2 2-1 2-2 1 3 5 3 1-1 1v1h2v2l1 1v1h2l1-2 2-1v-1h-1v-1l1 1h2l-1 2h1v-1h1v1h-1 1v3h-5v1h-2v1h-1v3l2 3-1 1v1h-1l-3 1 1 4-1 1-1 2v-1l-2-1-1-1v-1h-1v1h-1l-1 1-1-1-1-1-1-2v1l-2-1h-1l1 2-1 2-1 1 1 1h1v-1l2 1v2l1 1 1 1v3h1v1l-1 1-1 5 1 2v1-1l-1 1h1v3h1v2h1v3l1 1h1l3-2 1-1h1l2-2h2v2l1 1 1 3h1l-1 2 2 3v3l1 1-1 1h-1 1l-1 1h-1v1l1 1 1-1 1 2h2v1l-1 1h1l-1 1-1 3h-4l-1 1v2h1l-2 1h-3v1l-2-1h-1l-1-1h-2v1h1l-1 2-2-1-1 1-1-1-2 1v2h-1l-1 2h-1l-1-2-1 1-2 1-1 1-3 2h-3l-1 1-1 1-1-1-1 2v1l-1 1v-1l-1 1-2 3v1h-2v-2l-2-4v-2h-1l-2-1-1-1v-1l-1 1-2 1-1 1 1 1 1 1v1l-1 1h1l-1 2v2l1 2h1l-1 1v2h-1l1 1-1 1v-1l-1 1h-4l-1-1h-1v1l-1-1h-3v1h-1v-2l-1-1 1-1-1-1-1-1-1-1 1-2h1v1l1-1-1-1 1-1-1-1v-1h-1v1h-1l1-1-1-1v-1l-2-1 2-1-1-1-3-4-2 1-1-1h-1v1l-1 1h-4l-2 1v4h-2l2 1v2l-1 1h-6l1-1h-1l-1 1h-1v2h-1v1h-2v-1l-1-2h-1v1h-2v1l-3 2h-1v2h-1l-2-1v1h-3l1-2-1-1 1-1v-3l-1-1v-2h-1v1h-3l-1 1v2l-2 1-1 2v5l-2-1-2 2v2l1 1v1h-1v1h-1l2 2 1 2v1l1 1-1 1v3h-1l-1 1-1-1-1 1h-1l-1 2h-3l-1-1-4 1h-1v2l-2 1-3-2h-2l-4 8-1 3h-3l-2-1h-1v2l-1 1v1h-3v1l-1-1 1-2v-1 1h-1l-2 1-2 2v1l-1 1-2-2h-1v1l-2-2-1-1-1 1 1 2-3 2-1 1-2 1v2l-1 1-1 1h-2v2h-1v1h-1v1h-1v1l-1 1-1 2-1 2 2 2-2 2-1-1h-1 1l-1 1v4h-1l-1 1v-1h-3l-1 1v-1l-2 1-1-1-1-2h-3l-1-1h-2l-1-1v-1l-1-1-1-1-1-1-2 1-3-1-3-1-1-1 1-1 1-1 1-2v-3h1v-1l2-2v-2l-1-1-1-2v-2h-2l-2 1h-2v3h-1l-1-1-1 2v1l-1 1v1l-1 1-1 3h1l-1 3v3l-1 1v1l1 2v2l-1 1h-1l-1 2h-5l-1 1-2 1h-2l-1 1-2-1-2 1-2 1h-1l-3-3-3-3-4-1v-4l2-1-1-2v-2l5-3 2-4 2-1 1-3-2-3v-2l-2-1h-1l-6 2-1 2-2 1-2 1-5-1-2-1-3 1-5 1 4 4-3 2v1h-3l-1-1-3-1v-1h-1v-1h-1l1-1-3 1-1-2-1 1v-7h-4v-1l-3-1v-2l-3-1-4-3-4 1 3-3 3-3 2-3 2-3v-2l-1-3h-1l-5-1-1 2-5-1-4 2-3 4h-5l2-5v-1l-1-1h-1l-3-3-5-6 3-3-8-19 10 2h3l16 2 6-2h12l11 3 3 4 5 2h4l3 2 4 2 7 1h2l7-1v4h5l1 2 3-3 7-4 11-5 7-2 1-1 2-1 1 1h4l4-1 1 1 3-1 3 1 1 1 2-2 4 1 3-1 4-2 4-1 2-1 1-1v-1l3-2 1-2 4-5 5-2h2l2-4 2-1h1v-1l-2-3-2-1h-1l-3-5v-2l2-3v-2l3-4 2-2h6l1 1 1 1 2 1 2 1 3 1h4l3 1 2-2 3-2 4-4 1-2 1-2 1-1h2l3 1v1l2-1h2l3-1h2l1-1 2-2 1-1h2l1-2v-3l1-3 3-2v-1l2-1 1-1 2 1h5v-2l1-1v-1l2-1 1 2h2v-1l2-1 2-2h1v-1h3v-1l1 1h1v-1l2 1 2-1v1h2v1h1l3 2v1l-1 2 2 1v-1l1-1v-1l2-1 1-2 1-1-1-3v-1l-1-1h1v-1h-1l-1-2h1l1 1v-2l-1-1h-1l-1-1-2 1-1-2v-1l-1-1h-2v-3l-4-2-4-4h-5v-1l-3 1h-1l-3 4-1 1-1 2-3-3-4-2h-2l-2 1h-5l-2 3-5-5h-1v-1h1l-1-3 4-2v-5l4-5-1-2 8-18 4 2 4 2h2l5 2 2-2h1v-1h1l1-1 2-1v-1h1l1-2 5-1h3l1-2 1-2v-1l-1-1h1v-1h-2l-1-1h1l1-2h-1 1v-2l1-1v-1h1l1-1v-3l1-2h1v-1l1-1v-2h1l-1-1 1-1 1-1v-1h1v-2l1-1v-3h1l2-2 2-1v-1h1l1-1 1-1v-2l1-1-1-1 1-1-1-1-1-1v-1l1-2v-1l-3-2h-2l-2 1h-1l-1-1 1-2-1-1 2-1 2-1v-2h1l2-2 1-1 1-2 2-1h-1l1-1h5l1-1zM388 293h2v-1l2-1 2 1 1-1h2l2-1 1-1h5l1-1 1-1 1-1v-2l-1-2v-1l1-1v-3l1-3h-1l1-2 1-2v-1l1-1v-1l1-2 1 1h1v-2l2-1 2-1h2v2l1 2 1 1v2l-2 2v1h-1v3l-1 2-1 1-1 1 1 1 3 2h6l1 1 1 1v1l1 1h2v2h-2v1h-1v1h-1v1l-1 1v4h1-1l1 1v1h-1v1l-1-1h-4l-1-1v1h-2v2l-1 1v-1l1 2v2h-1l-1 2v1h-1l2 1-1 1 1 1v1h-1l1 1v-1h2l1 1h1l1 2v-1 3h-1l1 1h-1l1 2v-1 1h-1v1-1l-1 1h-4v4h1v1l-2 2-2-1v-1l-1-1v1l-1-1-2 1v-1l2-1v1-1h-1l-1-1-1 1v-1l-2-2h1-3l-1-1v-1l-1 1 1-1-1-1v-2l1-1h1v-1l-1-1 1-1-1-1-1-2-1-1-1-3h1l1-1-1-1-1-1v1-2l-3-1-1-1v-2h-1l-1 1h-1v-1h-1l2-1-1-1 1-1h-4zm-143-28zl1-1h1l2-1h1l1-1 3 1 2-1v1h2l1-1 2-1v1h5l1 1h2l3 1h2l1 2 2 1h1l1 2h1l2 2h1l1 1v1l1-1 1 1h1l2 1v2h3l1 1 2 1v-13l1-1h4l2 2 2 1v1l4 1 1 1 3-2v-2h1l1 2h1l3-2 3 2v-1l1 1v1l3 3 1 1h1v1l2 2 5 3 2 1-1-2-1-2h1v-1l1 1 1 1 1 1h1v1l1-1 1 1v2l3 1 1 1 2 1 2 1 1 1 4 3 1 1 1 1h1v-3l1-1 1 2 1 1-1 1 1 1h1l2 2h1l1 1 1 1-1 1v1l-1 1 2 1v1h1l1 2h-2v1h1l1 1 1 4 3 2h-1l-1 2 1 1v3h-2l-2 1v1l1 1v2h-2l-1-1-1 2h-2v1l1 1h-1l1 1h1v1l-1 1-1 1h-1l-1 1-1 1h-1v3l-1-1-1 1-1 1 1 1 2-1v1l1 1h1l1 1 1 2h-1v1h-2v2h-1v1l-1-1h-1l-1 1v-1h-1v-1l-4-1h-1l-2-1h-1l-1-1-1 1-1 3h1l2 4h1l1 1h1l-1 2h1l2 1v-1h2l1 3h1l1-1v1l-1 1-1 1 1 1-1 3-2-2h-1v1l-1-1-2 1v4l1 1v1l-1 1v1l-1-1-2 1-3-1v2l-1 1v1h-1l-1-1 1-1h1-1l-1-2-1-1h-1l-1 2h-1v-4h-1v-1h-1l-1-2v2h-2l1 1-1 3v-1l-1-1v1l-1-1-3-1h-1l-1-2-2-1-2-1-1-1v-2l-1-1v-1l-1-1v-1h1l-3-3-1-1-2 1v-1l-3-1h-1v1h-2v-1l-1-1v1h-1l-3 1v1l1 2v1l1 1 1 1 2 1-1 1h-1v1l-1 2v2l-2 1v1l1 3 4 2-1 1-4-1v2l1 1h-1l1 1h-2v3h-1v1l-3-1v1h-1v1l-1-1h-1v1l1 1h-1l1 2v1h-1l-1-1v1-1h-1l-2-1-1-2-2 1v1l1 1v3h-1v-2l-1-1h-3v1l-1-1-2-1-1 1-1-1-1-2v-1h1-1l1-1v-1l-1-1v1l-1-2-3 1-1-1-1-1v-2h-1l-1-1-2-2-1 1h-1v1-1l-1 1-2 1-1 1-1-1v1l-1-1h-1l-1-1h-2l-1 1h-1v-1h-1l-2-2h-1l-1 1-1-2-2 1-2-1h-4l-1 1-1-1v-1l-1-1-2 1-1-1-1-1-2-1h-1l-1-1-2-2v-1h1l-3-1v2h-3l-1 2-2-1-3-2h-1l-2-2v-1l-1-1-2-1v-2h-1v-1l-1-1h-1l-1-1v-3h2v-6l-1-1v-2h1v-3h-2l-1 1v-4h-1l-1-2h1v-2h2l1-1-1-1v-1h1v-4h-3v-1h-1v-1h-1l1-1h1l1-1h4l1-1v-2l2 1 1 1h6l1 1 1 1h1v-1h2v-2l-1-1h1l-1-1v-3l-4-1v-3l2-2h2v-1h1l1-1h2l-1-2h-1v-1l-1-1v-3h-2l-1-1-1-1-2-1-1-1h-2l1-1-1-1 1-1-2-3-1-3-1-1v-1l3-1h1v-1l2-1v-1h6l2-1 2-1 3-1h3l2-1 4-1v-1h1l1-1zM431 286l1 1h3l1 2 1 1 2-1v1l1-1h3v1l1-1h1v-4l1-1h-1 1l1 1 2-1v-1l-2-2 1-2 1-2 1-1v-1h1l1-1v-1h1v-2h2l1-1 1-1v-2l2-1 1-1 3-2-1-2 1-1 1 1 2 2v-1h1l2 2 1-1v-1l2-2 2-1h1v-1 1l-1 2 1 1h1v1h1-1v3l-1 1-2 1 1 2-2 4v3h-1l-1 1-1 1h-1v2h-1v4h1l1 2 1 1v1l1 1h-1l1 1-1 2h-1v1h1l-1 1v1l-2 2-1 1v1h-1 1v5l1 1-1 7 2 8v2l-1 2-1 2-1 2-1 2v6h2-1l1 1-1 1 1 1h1v1l-1 1v1l3 1-1 1v1h1v1l-1 1 3 1v2l2 2 1 1-1 1 1 1h-1v1l-1 1h-1v1h-1v1l-1-1h-1v-2l-2 2h-2l-1-1h-7v-1 1h-2v1l1 1h3v3h3l1 1 1 2v1h-1v1h-1l-1-1-2 1-1-1h-1v1l-1 1v1l-1 2 1 1h1v2l-1 1 1 1-1 1 1 1-1 1h-4l1-1h-1l-1-1-1-1-2-1-2-1h-1l-2-2v-1h-2v1l-2-1v1h-2v1h-1l-1-1-2-2-1-1h-1l-1 1v-1l-1-2-1 1-1 1-2-2v-2l-1-1-1 1h-2v-1l-2 1-2 1h-1v-1h-1l-2-1h-1v-2l-1 1h-2v1h-1l-2 1v-1l-1-2h2l2-1 1-1v-3l1 1v-1h-1l-1-1-2-1h2v-2l2-2h1l1 1h1l1-1h2v1h1v1l1-1-1-2h-1v-3h-1l1-1 1-2 1-1-1-1-1-1h3v-1l-1-1-1-1-1-1h-2v-1l1-1 1 1v-1l1-1v-1l-1-2v-1l1-1h6l1 1 1 1v1l1-1h4v-1l1 1h2l1-1-2-1-1-3h1v-1h1l1 1h1l3-1v1l2-1v1h2l1-1v-4l-1-1v-4l1-1h1v-6l-2-2-1 1-1-2h-2v-1l-1 1v-1h-2l1-1h-1l-1-1-2-1h-2l-1-2h-2l-1-2v-1h1v-1l-1-1h1-1v-4l1-1v-1h1v-1h1v-1h2zM357 353v-1zv2l1 1-1 1v1h-1l1 1-1 1 1 1 1-2h2v-1l1 1v-2l1-1h2v-1h1l-1-1-1-1v-2l-1 1 1-1-1-1v-1l-1-1h1v-1l2 1v-2h3l-1-1 1-1 1-1h1l1-1 1 1v1l2 1v3l1 1-1 1 3 1h1v-1h1v1h-1l1 1h6l2 1v1l1 2 1 1h1v1h-1l1 3-1 1h1v1h-1l-1 1 1 1 2 1h1l1 1h1v1l1-1 1 1h4v-1l1 1 2-2-1-2 1-1 1 1 1 2v1l2-1h1v-1h2l1-1v2h1l2 1h1v1h1l2-1 2-1v1h2l1-1 1 1v2l2 2 1-1 1-1 1 2v1l1-1h1l1 1 2 2 1 1h1v-1h2v-1l2 1v-1h2v1h-2v1h1v1h-1v1h-1v1l1 1 1 1h1v2h-1l1 1h-1l-1 1-2 1v1h-1l1 1-2 1v1h1l-1 1v1l-1 1v1l-1 2h-2v-1l-1 1-1-1h-1l-1 2 1 1-1 2-1 2-1 1v1l-2 3h-1l-1-1v1h-2l-2-3-1-1h-1v1h-2v1h-1l-1-2-3-1h-1v-1l-1 1v2h-2l1 1h-2l2 2h1v3h-2v1l-1 1h-1l-1 1-1 1 1 2h1v2h3l1 2v1l1 2h1l1-1 1 1 2 1v1l1 2v1l1 1h-1l-1-1-1-1-2-1-1 1v1h-3l-1 1 1 3h2l1 1-1 1 1 1 1-1 1 1v-1h1l1 1v1l1 1v2l-1 1-2-1-1 1h-3v1h-1l-1-1h-4v-4h-1v-1h-3l-1 3h-2l-2 1-1-1-2-2 1-1 1-1h-1l1-1v-1h-2l-1-1v-2l1-1 1-1h-3l-1 1v-1l-2 1-1-1v1l-1 1 1 2v1l-2 1h-1l-2 2v1l1 1v2l-3 3h-1l-1 3h-2l-1 1v6l1 1 1 2v3h-1v2h-1v-1l-1 1-1 1-1 1-1-1 1-1-1-1-1 1h-1l-1 1h-1l-2 3-1-1h-1l-1 1-1-2h-1v-1l-1 1-1-1 1-1v-1l-3-2v-1h1v-1l1-1h-2v-2h-2v-1l-1-1v-2h-1v-2h-1l-1-2v-2h-1v-1h-1v-1l-1-1 1-1h-2l-1 1-1-1-1 2-1-1v-1h-1v-1l-2-1v-2l2-1-1-1h1l-2-1v-1h-1v-2h-2v-1l-1-1v-2l-1 1-1 1v1l-1 1-1 1v5l-1-1-1-1-1-2v-2l-1-3v-8l-1-3v-4l1-1-1-3v-1l-1-3v-6l-2-1v-2l-1-1v-1l-1-1v-2h1l1 1 1-2-3-3-1-1v-1l-2-1v-1l1-1v-1l-2-1-1-2v-2l-2-1-1-1-3-1-4-2-1-3v-1l2-1v-2l1-2v-1h1l1-1-2-1-1-1-1-1v-1l-1-2v-1l3-1h1v-1l1 1v1h2v-1h1l3 1v1l2-1 1 1 3 3h-1v1l1 1v1l1 1v2l1 1 2 1 2 1 1 2h1l3 1 1 1v-1l1 1v1l1-3-1-1h2v-2l1 2h1v1h1v4h1l1-2h1l1 1 1 2h1-1l-1 1 1 1h1v-1l1-1v-2l3 1 2-1 1 1v-1l1-1v-1l-1-1v-4l2-1 1 1v-1h1l2 2 1-3-1-1 1-1 1-1zm203-73 2 1v1h6l1 1 1-1h4v3h2v2h1v1l1-1-1 1 1 2-1-1h-2l-1 1v5l2 2v1-1h1v1h1v1l2-1h1v1h1v-1h2v-1l2-1v-1l-1-1 3-1 3-2v-1l-1-1h2l1-1h2l1-1h3v1h1v1h2-1l1 1h-1l1 1h2v-1h1-1v1l1 1h1l1 1h3-1l3-1v1h-1 1v-1l1-1h1v1l1 1h3v1h2v-1l1 1h-2l1 1h-1 1l-1 1 1 1h-1l1 1-1-1-1 2v1-1l1 1v2-1h-1v1h-3v-1h-2v-1l-1 1-3 1-1 1v1h-1v-1l-1 1 1-2-1 1v-1 1l-1 1h-1l-2 1-2 1h-1l-1-1-1 1h1v1h1v2l-1 1v-1l-1-1h-1v2h-1v1h1v3h-2l-2 1h-1l1-2v-1h-1v1l-2-1-1 1v1l1 1h1l-1 1h1l1-1v1h-1l-1 1 1-1-2 1-1 3-1-1v3l-1-1-1 1v-1l-1 1h-1 1l-1 3-2 2-1 2-1 1v-1h-2v1h-3v2l-1 1h-1l1 1h-1v1h1l-2 1-1-1h-1v2h-1v3h-3v-2h-1v-2h-4v2h-1l-1 1h-2l-1-2-1 1-1 1-1-1v-1l-1-1v-1l-1-1v-1l-3-1h-2l-2 1v2h-1v2h-1v1l-1-1-1 1v-1h-2l-2 1-1-1-1 1-1-1-1-1-1-2-1-1h-1v-1h-1 1l-1-1h-5l1-1v-2h1l1-2v-1l2-1 1 1v-1l1-1v-1h1l1-2h2l1-1v-1h2v-1l1-1h1l1-2h-1v1h-3l-3 2h-1l-2 2v-1l1-1-1-1 2-1v-3l-1-2-1 1 1-1-1-1-1-1 1-2 2-1v-1l3-1v-1l1-2 1-1v-2l1-1v-1l3-1h1l-1-1v-1l1 1v-2h1l1 1 2-2 1-2h1l1-1 8-1 1-3h2l1-1v-1zm58 115h1zm-8-10zv1l-1-1zm-4-1 3 1 1 1zm-2 0h1l1 1 1 1 2 1 2 2 1 3-1 1h-1l-4 1-2 1-1 1v-1l-1-1h-1v-1l-1 1v-3h-2v-2h3l-1-2h2l-1-2h1zm-1-6 5 3 3 1 1 1v1h-1l-1 1-5-3-3-3zm-90-139 1 2 1 1v4h3l-1 1-3 1-1 1h-1v2l-1-1v1h-1l1 1 1 1h2v1h2l1 1h-1v2l1 1 1 1-1 2v2l-1 1 1 1h-1v2l-1-1-1 1h-1l-1-1h-1l-1 1-2 1v2l1 1v1l-1 1v1h-2v3l-1 1 1 1-1 1h2l1 1 1 1 1 1v1l1 1v2l1 1-1 1 1-1 1 1v2l-1 1-1 1v1l-1 1v1l-1 1-1 1v1h1l-1 1h1l-1 1 1 1h-2v1l-2 1h-1l1 1v1l1 1v1l2 1v1l-1 2v1h1l-1 1v4h-1v3l-1 2h-1l-1 1h-2l-1 2-1-1-1 1h1l-1 1h-2v1h-1l-1-1v1h-2l-1-1-1 1v-1h-3v3h-3l-1 1h-1v1l-1 1-3 1h-3v1l-2 1-1-1v1h-2l-1 1h-5v-6l1-2 1-2 1-2 1-2v-2l-2-8 1-7-1-1v-5h-1 1v-1l1-1 2-2v-1l1-1h-1v-1h1l1-2-1-1h1l-1-1v-1l-1-1-1-2h-1v-4h1v-2h1l1-1 1-1h1v-3l2-4-1-2 2-1 1-1v-3h1-1v-1h-1v-1h3v-1h1v-3h1l2 1h3l1-3 4-8h2l3 2 2-1v-2h1l4-1 1 1h3l1-2h1l1-1v1l2-1h1v-3zm41 9zh1l1 1v1h2v2h-3v3l2 2-1 1 1 1 1-1h1l1 1-1 2v1l1-1 1 1 1 2-2 1h-1l-2 1 1 2h-1l-1 2-1 2v2h-1l-3 1v-1l-1 1-2-2h-1l-1-1h-1v-5h2v-2h-1l1-1-1-1h1l-1-1v-5h1l1-1v1h1l1 1v-2l1-1h-1l1-1h-1v-3l1-1zm53 268v2-1zm-24-20-1 1h-1l1-1zm-1-1zv1h-1l1-1zm-15-12zh-1l-1 1h-1l1-1zm23 24-1-3-1-1v-2l1-1h-1l1-1v-6h2l-1-1h1v-2l1-1 1-1v-1l1-1 2-4 3-2v-1l1-3 2-1 3-1v-1l2-1 2 2 2 1 1 1-1 1-1 2v2l1 1v1h-1v3l-2 1v3l-1 1-1 6-1 4v1l-1 1-1 3h-1v1l-2 2-2 4 1 4-1 1v1l-1-1-1 1v-3l-1-3-3-2-2-2zM181 89zv1l1 2h-2v1l1 1-1 1 2 1h1l1 1-1 1-1 2v1l1-2 4 2 1 2 1-1v1l1 1v2l2 2h2l1 1 1 1v1h2l1-1h1v-1h3v2l2 1v2l2-1v1l1-2 1 1v2h1l2 2 2 3v3l1 1 2 5h2l1 1v2l1 2v2l1 1-2 3v4l1 1v2l-2 2-2 3-1 4 2 2v2h1v2h3l2 1h2l1 1h7l1 1 3-1 2 1h7l5 1 3 1 1 1 5 3 2 2v1h1l2 1 1 2 3 1h7l-1 1v3l2 1 2 4v1l2 5 1 3 2 2 1 2 2 2v3l-3 2-1 8 1 2-1 2-2 1h-4l-6 1-5 3-3 4-5 5-3 3-2 5-4 2-5-1v7l-2 4 1 5 1 2v4l-1 1h-4l-1 1h-1v1l-4 1-2 1h-3l-3 1-2 1-2 1h-6v1l-2 1v1h-1l-3 1v1l1 1 1 3 2 3-1 1 1 1-1 1h2l1 1 2 1 1 1 1 1h2v2l1 2v1h1l1 2h-2l-1 1h-1v1h-2l-2 2v3l4 1v3l1 1h-1l1 1v2h-2v1h-1l-1-1-1-1h-6l-1-1-2-1v2l-1 1h-2l-3-1-4-2v1h-1l-1-1h-1l-1-1h-1l-1 1-1-1v-1l-1-1-1 1v-1h-3l-2 1h-1l-2 1h-5v-1h-1l-1 1h-1l-1 1h-5l-1 1h-4v1h-1l-1 1v1l-1 1-1 2-1 1h-3l-2 2h-1v-1h-1l-2-1h-3l-2 2-5 2v1l-4 1h-1l-1-1-1 1h-3l-1 1h-1v-1h-5l-1-1-1-3-2-1-1 1-1-1h-3v1h-1v1l-3 2v1l-1 1h-1l-1 1h-4l-1-2-1 1h-2v-1h-2v1h-5v-1h-1l-1-1-2 1h-1v3l-1 1-2 1v3h-2v2l1 1h-1v2l-1 1h-3l-3 1h-3v1l-2-1v1l-1-1-3-3h-2l-1-1h-1l-1-1v-2l-2-3 1-1-1-1-1-2v-1l2-1h-3l-1-1-1 1-2-1-2 1-1-1h-2l-2-1h-1l-1-1h-1l-1-2h-1l-1-2-2 1h-3v-1l-1-2h-1l-1-1v-1h1v-1h1l-1-1v-3l-1-1v-1l-1-1-2-1h-3l-1-3h1-3l-1-1h-1l-1 1-1-1-1-1-1 1-1-2-1 1-2-1 1-1v-1h3l1 1 1-1 1-1h2v-2l-1-1v-1l-1 1v-1l-1-2 1-1-1-1 1-1-1-2-1-3v-2l1-1v-2h-2l-1-1-4-1-3-1v3l-2-1H4l-1-1v-3l-1-1 1-1h1v-2H3l-1-2-1-1H0l2-2v-2h2l1-2v-2l-1-1v-1h1v-1l1-1-1-1 1-1h4l2-2 1-1h2v-1h2l-1-2v-1l2 1h3l3-2 2-1 1 2 1 1-1 1v2h1l1-1v1h1l1-2h3l1-1v2l2-1 1-1v-1l1-2v-2l2-1v-2l1-1 2-1 2 1h6l3-1h1l1 1 1-1h1l1-2 1-1 1-1-1-1v-1h1l2-1 1-1 2-1 1-1h1l2-1h1v-1h2v-1h1v1h3l1-1 1-3 2-1 1 1 2-1v-3l-1-3v-1h1l-1-1v-3l1-2h2l2-1-1-1-1-1v-1h1l1-1h2l1-1-1-2h-1l1-3-3-6-1-6-1-6 1-2-1-1 2-1-2-1v-1h-1l-3 1v-1l-1-1h-1l2-2h1v-1l1 1 2-1 2-1h2l1-1 2 1 1-1h1l1-1h1l1-1 1 1 1-1 2-1h1l1 1 1 2 1-1v1l4-1h1l2 2 1-2 1-2v-2h-3l-1-1-1-1 1-2 2-5 1-4 2-6 1-4 1-3 1-2 1-1v-3h2l1 1h1l1 1v-1l2 2 5 1 1 1 2-1h6l1 2-1 1h1l2-1 1-1h1l1-1 1-1h4v-3h2v-3l-2-3 1-1-1-7 1-2v-2l1-4 2-1h4l2-1h1l2-1 1-2 1-1v-2l1-1-1-1v-2l1-1v-1h2l2-1 1 1 2 1 2-1 2-1zM68 341zl2 1v-1h3l3-1h3l1-1v-2h1l-1-1v-2h2v-3l2-1 1-1v-3h1l2-1 1 1h1v1h5v-1h2v1l1-1 1 1 1-1 1 2h4l1-1h1l1-1v-1l3-2v-1h1v-1h3l1 1 1-1 2 1 1 3 1 1h5v1h1l1-1h3l1-1 1 1h1l4-1v-1l5-2 2-2h3l2 1h1v1h1l2-2h3l1-1 1-2 1-1v-1l1-1h1v-1h4l1-1h5l1-1h1l1-1h1v1h5l2-1h1l2-1h3v1l1-1 1 1v1l1 1 1-1h1l1 1h1l1 1h1v-1l4 2 3 1h-2l-1 1h-1l-1 1h1v1h1v1h3v4h-1v1l1 1h-1l-2 1v2h-1l1 2h1v4l1-1h2v3h-1v2l1 1v6h-2v3l1 1h1l1 1v1h1v2l2 1 1 1v1l2 2h1l3 2 2 1 1-2h3v-2l3 1h-1v1l2 2 1 1h1l2 1 1 1 1 1 2-1 1 1v1h6l2 1 2-1 1 2 1-1h1l2 2h1v1h1l1-1h2l1 1h1l1 1v-1l1 1 1-1 2-1 1-1v1-1h1l1-1 2 2 1 1h1v2l1 1 1 1 3-1 1 2v-1l1 1v1l-1 1h1-1v1l1 2 1 1 1-1 2 1 1 1v-1h3l1 1v2h1v-3l-1-1v-1l2-1 1 2 2 1h1v1-1l1 1h1v-1l-1-2h1l-1-1v-1h1l1 1v-1h1v-1l3 1v-1h1v-3h2l-1-1h1l-1-1v-2l4 1 1-1 3 1 1 1 2 1v2l1 2 2 1v1l-1 1v1l2 1v1l1 1 3 3-1 2-1-1h-1v2l1 1v1l1 1v2l2 1v6l1 3v1l1 3-1 1v4l1 3v1l-1 1h-1l1 2-1 1v3h-1l-1-3h-2l1 4-1 1v2l1 1 1 2h-1v1l-1 1h-1l-2 1v-3l-1-1h-1v2h-1v1l-1-1h-1l-1-2-1 1-2-3v1l-1-1-1 2-1 1v1h-1l-2-1-1-1-2 1v-1h-2l-1-1h-3l-1 1-2-1 2-1h-1l1-1 1-1 1-1 1-1-1-1-1-2v1-2h-1l-1 1-1 1h-1v-1l-1-1h1l1-1h1l1-2h-1v1h-1l-1-1v-1l-1-2-2 2-1-1-1 1-2 1v1h-1v1h-1v2l-2-1-1-1h-3 1l-2-1-1 1-1-1-1-2-1 2h-2l-1 1h-1l-1 1v2l-2 1v1l-1 2-1-1-1 1-1-1-2 1h-3l-1 2-1 1 1 1v1h-3v1h-1l-1 1-1-1-1 2 1 1-3 3h-3v-1h-1l-2 2h-2l-1-1h-1l-1-1v-1h-2l-2-2-2 1-1 1h-1l-1-1h-2l-1-1-3 1v-1l1-1 1-1h-4l-1-1h-4l-1 1v1h-3l-2 2v1h-1v1l-1 1-2 3h-1l-1 1v4l-2-2v-1l-1-2 1-1 1-2v-1l-1-1v-1l-1-1h-1v-1 1h-1v1h-1l-1 1h-4v1h-1l-1 1h-4l-1-1-1 1-1-1-1 1h-2v-1l-1-1h-2l-1-1-2-1h-1l-1 1v1h-1v1-1h-3v-3l-2 1v1l1 1-1 1v-1h-1l-1-2-1-2-1 1-1-1-1-1h-4l-1-1-1 1 1-4v-1h-1l-1 1h-4v-2h-3v-1l-1-1h-1v-1l-2 1v-3l1-2-2-1h-2l-1 1h-1l-1 1-2-1-1-1v-2l-1-1h-1v-1l-4-2h-1l-2-1v-1l-3-3-4-1 1-1-1-1v-1h-2l-5-2v1l-2-1-1 1v3h-1v2h-1l-1-1v-1h-1l-1-1-2-1-1-1-2-2-1 1-1-1-3-1v-1l1-1-1-1h-1l-1-1h-1l-1-2h-2l-2 1v-1l-1-1h-1v-1h-1l-1-1v-1l-1-2-1-1-1 2h-1v1l-1-1-1-1v-1h-1v-1l2-1-1-1v-1l-1-1 1-3-1-1-1-1v-1h-2v-2l1-1-1-1v-1l1-1h2l1-1v3l3 2h1l1-2h1v-1l1 1 2-1 1-1v-2l-1-1v-1l-2-1 1-3-3-1h-1v-1l-3-3-2-3 1-1-1-3 1-1-1-1 3-1 1-1zM323 416v7l1 3v2l1 2 1 1 1 1v-5l1-1 1-1v-1l1-1 1-1v2l1 1v1h2v2h1v1l2 1h-1l1 1-2 1v2l2 1v1h1v1l1 1 1-2 1 1 1-1h2l-1 1 1 1v1h1v1h1v2l1 2h1v2h1v2l1 1v1h2v2h2l-1 1v1h-1v1l3 2v1l-1 1 1 1 1-1v1h1l1 2 1-1h1l1 1 2-3h1l1-1h1l1-1 1 1-1 1 1 1 1-1 1-1 1-1v1h1v-2h1v-3l-1-2-1-1v-6l1-1h2l1-3h1l3-3v-2l-1-1v-1l2-2h1l2-1v-1l-1-2 1-1v-1l1 1 2-1v1l1-1h3l-1 1-1 1v2l1 1h2v1l-1 1h1l-1 1-1 1 2 2 1 1 2-1h2l1-3h3v1h1v6l-1 1h1l-1 2h-2l-2 1-1-1v1h-3l-1-1-2-1v1l-1 1-1 1-1-1-1-1v-1h-1l-1 2-1 1-1 2h-1 1l-1 1h1l1 1v1l-1 1 1 1v2l1 1h3l1-2 2 1 1-1h1v1h1v1l1 1 1 1-2 2-1 2v1l-1 2v2h-1v2h1v2l2-1v2h1v1l2 1v1l-1-1-1 2v1h1l-2 3v1l-1 1v1l2 3 1 1v-2h1l2 1 1-1h1v1l1 1v2l1 1h1l1 1h1v-2h1l1 2 1-1h1v1-1l1 1v-1l1-1 1 2 1 2h1-1l1 1h-1v3l-2 2v-1h-2v1h-2v1l-1 1-1 1-1-1h-1v-1h-1l-1 1-1 1v-1l-1 1h-1v1h-2l1 3-2 1h-2l-2 2h-2v-2l-2 1-1 1v3l-2-2-2-2h-1l-1 1 1 1-1 1-1-2v-1l-2-1v2l-1 1-1 1h1l-2 1v1l-2-1v-2h-1l-1-1h-2l-1-1h-1v2l-2 2v1h-2l-1-1-1 1h-1l-1-1h-1l-1 1 1 1-1 1h-1l1 1-1 1 1 1v1h1v1l1 1v4l-1 1v2l2 1h-1v1h-1v-1l-1 1v-1h-3l-1 1-1-2v-3l-1-1v-2l-4 1v1l-2 2h-2l-1-1h-1l-1 1h-1l-1-1v-1l1-1h-2l-1-1v-4h-3l-1-1h-5l-1-1 1-2v-1l2-1-1-1h1l-1-3h1v-2h2l-1-1v-1l-2-1-1 1-1-1-1 1-1-1-2-1 1-1-1-1h1v-1l-1-1v1l-1-1 1-1v-2l-2-1v-2l2-1v-2l-3 1h-6l-3 1v1l-3 1h-1l-1-1 1-1 2-2v-2h-1l1-1-1-1h-2l1-2-1-2 2-1h1v-3l1-3 1 1v-1l1-1h1v-1h1v-3l2 1h1l1-4h2l1-1-1-1-1-2h2v-4l1-3v-3l-1-1h1l-1-2h1l-1-1v-7h-1l-1-1v1l-1-1-1 1v1h-1v-2l-1-1v-1l-1-1h1l-1-1v-4h1v-2h1l1 1v3l2-1h1l1-1v-1h1l-1-2-1-1v-2l1-1-1-4h2l1 3h1v-3l1-1-1-2h1zm288-10zv-1l1-1v2zm2 0zl1 1 2 1 1-2-3-2h-2v2zm5-6zh-2zm-1 2zh-1zm-2 0v-1h-2zm-1 7zv1zl1 1v-1zm3-3v2zm-2 2 1 1v-1zm-12 24zh-1l1 2 1-1zm9-16v1l-2 1v-3h-1l1 1-1 1-1 1v-1l-1-1v1h-1l1 1h-1v1h2l1 1h-1l1 1h-3 1l1 1v2l-2 1 1 2h1l-1 1 1 1-1 1 1-1v1l-1 1v-1h-2v1h-1l1 1h-2v-1l-1-2-1 1v2h-1l-1 3-2-1h-1l1 1h1v1l-2 3-1 1v1l1 1h-1v1h-1v3h-1v-1 1l-1-1v-2h-1l-1-1-1 1-1 1-1-1-1 1h-2l-1-2v-1l-1-1v-1h-1l-1 2h-1l-2 2-1-1h-1v-1l-1 1h-1v-4l-1-2-1-1v-1l1-1v-1h-1l1-1h-1v-1l-2 1v-1h-1v1l-1-1h1l-1-1 1-1-1-1v-4l-1-1-1-1h-1 1l-1-1h-1l-1-1v-2h1v-1h1v-2h2v-1h2l1-2h1l1-2v-1l1-1 1-1v-5l1-1 1 1h3l1-1v-2h-2l1-1h-1 1l1-1h1l1-1v-1l1-1v-4h1l1-1 1 1 1-1 1 3 2 1h3v1l1-1v2h1v-1h1l1-1v-1 1l1-1h3v3l1-1v1h1l1 1v1h-1l-1 1h-1l-1 2v1l-2 1-1-1h-1l1 2h1l1 1 4-2h3l1 2 2 3h2l1 1h3l-2 1-1 1v1l-1 1-1 1h-2l-1 1v-1l-1 1v1l1-1v1l1-1 2-1 1 1v-1h-1l1-1h2l-1 1 1 1-1 1h1zm-1 2h-1zv1h1z"/></g><defs><clipPath id="a"><path fill="#fff" d="M0 0h774v570H0z"/></clipPath></defs></svg>