<svg xmlns="http://www.w3.org/2000/svg" fill="none" viewBox="0 0 226 334"><path fill="#fdc558" d="M146 126q0 1 0 0"/><mask id="a" fill="#fff"><path d="M130 122c2 0 2-7 1-7-3 3-3-1-6 2l-2 3-4 1v38c0 1-1-8 1-1 0 1 13 4 17 21q0 16-13 22c3 0 8-5 10-6 11-9 2-20-2-28l-8-8c10 3 14 15 16 24 2 10-11 17-22 22q-2 1-1 4l-1-1c0 5 4 10 4 27v7l21 2q9 2 5 11v9c0 4-5 1-10 1l-41-3q-13-3-26-1-1 1-4 3c-4 1-2-7-1-16 2-13 5-9 14-6h15l1-34q1-3-1-5-8-6-12-19c-1-7 4-19 12-25q3-4 4 0l-6 4-1 2 2-4-2 1q-8 9-8 23l6 12-3-8 1-3q1 10 8 16l1-12c-5-8-4-6-1-18l3-3 2-46c-3-3-14 4-15 4l6-2c1 0 7-3 7-1-2 1-6 0-17 6l11-4 7-1 1-1-1 20 4-5v-8l1-2 1 1-1-7 3-37 2-11 2-32v-7h-3q0 8-2 17l-2 45h-1v-6l-1 21-1 1v4h1v2l-1-1-1 4q-3-3-9-1v-1l-2 1v-1l-6 1c-6 1-17 7-22 13-3 4-6 15-6 15q-4 18 6 33l4 7c3-10-11-19-3-46l2-5c7-7 17-18 28-17q-3 0-7 2c-6 6-13 10-21 20l-3 9v1l4-9 5-6 1-1-3 4c-3 3-6 12-7 17 0 4 3 12 5 16l4 6q-7-8-9-23c-1 7 6 27 6 31l-1 1 1 5c2 0 4-9 4-6l-1 6c0 10-11 16-18 27q-11 17-12 32-1 23 12 45c6 4 17 3 26 6 19 2 34 9 50 9 7 1 16-3 24-4q8-3 16-5l1-1 3-2c-2 4-14 5-18 7l-20 6 13 1c6-2 20-5 21-8 4 0 4-5 5-5l1-1q7-7 9-16l1-3v1l-1 4q1 3-2 7h-1 1l3-2 1 1q0 7-14 17-14 7-26 7-13 4-35 4-23 0-39-4c-12-3-30-6-38-20q-3-1 8 9c14 9 26 11 41 14l32 3c13 0 36-3 48-7 11-2 22-11 24-22v-5q3-3 4-12l-5 7 3-9c3-7 2-17 3-3v1l1-4v2c2-2 0-12 0-10l-2 7c1-4-3-22-5-26q-5-13-22-31l-5-10v-1l-2-4v-7l1-4 1-1v-5c3-6 5-3 9-15h1q6-12-4-26l2 2 2 2-1-2c-5-6-17-13-26-15v-1l6 1q7 2 11 6l3 3v-1l-4-3 4 3 6 6v-1l1 1-1-1h1v1l-1-1c-6-9-9-9-20-13m15 76-2-4 1-2h-1v-3l-2-3v7-1l2 6v-1zm-4-13zv-1zm0-3zm6-8-5 6zm3-7-2 4-1 2-1 1 3-3 1-2zm1 2-1 2zm0-2zm4-8-2 5 1-1-1 4q3-4 2-8m0 6 1-3h-1zm-1-25-1-3zl-1-1 1 9v10h1v-5l-1-4 1 5v-7l1 7-1-8zM65 200l-3 6 2-1 5-10zm1-7v-1zm-8 14-4 3h1zm-2 3-10 10q4-2 13-12zm7-7-15 12h-1l-2 4h2l12-12zm-3 6-6 6zm-33 38q-2 5 0 3c3-7 11-16 14-17l9-11-3 5-1-1-16 19-3 5zm41 70-1-1q-16-3-27-13-8-9-12-22l1-2 7 13 2 4 3 2-2-5q4 4 11 7 10 13 26 14 13 3 23 2-17 1-37-6l-10-8c19 3 31 4 54 10l15 3-15 1v1q8-1 17-1l1-1h4-5v1h21v1l-13 4 15-2 9-2h-9v-1h13l-8 2 10-3h1l-10 2-1-1 10-1 6-2v-1h2l3-1 4-3 3-2v-1l-7 5q9-5 11-12v-1l-9 7 4-7h1l5-3 2-5-6 8 4-8v-1l3-5v-2l2-3-4 6 2-6 3-4 1-4v-1l1-10-5-14 3 17 1-1v-2l-5-23-2 3-1-3-12-13c2 5 9 14 10 21 1 3 0 6 2-1l-1-2 1 1-16-27-1-2-3-3v-1l5 6-3-5h1l-3-4v-1l-2-1v-2l6 9-1-2 9 11h1l-10-12v-1l9 10v1l3 3 1 4 1 1 1 2 1 5v-3l1 5v-2l-1-2-4-7-16-20-2-5v-12l-2 3 1-4 4-5h1l-3 5 2-2-3 6v6h-1l3 5-1-8v-6l3-10 2-2 1-2q5-3 5-14l-2-10 1 2-2-7c-4-12-9-15-17-17l-6-2-15-2h-4 1l-3-1 4-1q3 0 1-5l-2 2c-4-2-4 2-5 4-3 2 0 3 0 3l-2 2c-1 0-3-4 0-4h2v-2h-4v38l-2 44h2q14-6 17-17 1-16-15-27v-2q12 5 18 24l-1-4 2 8v2l-2 5 2-4q-4 10-17 14l-6 3v3c2 11 3 18 2 34v1l1 4-1 3-1-1 1-6-5-1v10l-1 1v-11h-4l1 8-2-6h-3v7l-1 3 1 1 5-1h11l-1-2 1-1 23 1c-1 14 1 11-4 11l-54-4 35 2 10 1 13 1h1l1-13c1-4-5-3-9-4l-17-1 1-1h14-6l9 1 5 1h2l-1-1c-2 0-5-1 0 0l2 3 1-1v3l1-1c0 5-2 4-2 15l-2 2h-1q3 0 3-2l-1 2-5-1-8-1-16-1-21-1-16-2-11 1q-1 2-4 2l2-19 2-4 8 3h-2c-2 0-2 5 0 5v-3l3-1 1 1 14-1-1 9h2l1-8 3-1 2 10 1 4 1 1c1 0 3-5 2-6v-2l1-7h-5l-2-2h2v-3l-1-9v11l6 1-1-34-6-3-1 21-2 14h-1l2-34 1-1 5 1 3 1 1 35h4l-1-6 2 6h3v-29l1-7-5 2 5-1-2 13v22h8q1-14-4-33v-3l1-1-5 1 3-2 1-7-6 1v-2h5l1-3 1-9-2-10-1-8-4-1v-2h4v-22l3-25V60l2-11V35l1 9v22l-2 20-1 35v3l-1 36c-1 1 4 0 3 3v2q5 2 8 7h-1l-6-6h-3v7l1-1v-6q7 7 6 18-3 6-7 8v2l-1 1v1l1-1v7h1l1-41v-2l1-38-1-8 1 5v-4l-1-2v-1l-2-2 2 1-1-3 1-3h-1v-1l1 1V71l1-28-1-6 1-2 2-3 2-1 3-4v3l-4 3q-2 2-2 9v3-2l-1 6 1 1v-1l-1 28-1 38 1 3M64 310zl3 2h3zm36 6zh6zm13 7v1h6v-1zm-13-117 4 1v-2h-3zm-1 22zv1zm0-24zm0 7v-1zm1-7 4 1v-9l-4-2-1 7 1 1zm4 1h4v1h-2v1l4 1h-5zm1-9h3v1zm0-6zv-1h1zm5 4zl5-1 1 1-6 1z"/></mask><path fill="#fdc558" d="M170 144zm1 7zM46 217zm74-164zm51 98zl1 5h1v-1zm0 0zm0 12v-1h-1zm0-14zl1 2h1zm-1-5 1 3h1zm0-2zl1 2 1-1zM65 199zm-18 18zl-1 1zm-1 0zh1zm7 0 1-1h-1zm-8 4zm75-167zm0-1zm0 0zm11 62zv1zm-6 2-1-1v1zm-2 3v1h1zm-4 1v-1h-1zm0 29h-1zm0 9h-1zm1-1zm17 21zm-13 22zv2zm10-6zm-2-28 1-1zm-8-8 1-1zm16 24zm-22 22zm-1 4h-1zm-1-1zl-2-2zm4 34-1 1h1zm21 2v1zm5 11zm0 9h1zm-10 1v-1zm-41-3v1zm-26-1v1h1zm-4 3zm-1-16zm14-6zm15 0v1h1zm1-34h1zm-1-5 1-1zm-12-19zm12-25zv-1zm4 0zl2 1zm-6 4zm-1 2zl1 1v-1zm0 0zv2zm2-4zm-2 1zm-8 23h-1v1zm6 12-1 1zm-3-8h-1zm1-3zl-2-1zm8 16zl2 2zm1-12h1zm-1-18zm3-3h1zm2-46h1zm-15 4zm6-2h1l1-2-2 1zm0 0zl-1 1h2zm7-1zm-17 6v-1h-1zm11-4v1zm7-1v1h1zm1-1h1v-3zm-1 20zv4l2-3zm4-5zm0-8zm1-2zl-1-1zm1 1zl2 1zm-1-7h-1zm3-37-1-1v1zm2-11zm2-32h1zm0-7zm-3 0v-1h-1v1zm-2 17zm-2 45zv-1zm-1 0zl1 2 1-1zm0-6h1v-2zm0 0zm-1 21h-1zm0 0 1 1zm-1 1zm0 4zv1zm1 0zm0 2zl2 1zm-1-1-1-2v2zm-1 4 1 3v-3zm-9-1zv1zm0-1h1v-1zm-2 1zm0-1zm-6 1zm-22 13h1zm-6 15h1l1-3-2 2zm6 33zm4 7zl2 2v-2zm-3-46-1-1zm2-5zm28-17zl1-2zm-7 2zm-21 20zm-3 9zv1zm0 1h-1v1h1zm0 0v1h1zm4-9zm5-6-1-1zm1-1zl-1-1zm0 0zv-1zm-3 4zm-7 17zm5 16zm4 6-1 1zm-9-23zh-2zm6 31zm-1 1zv2l2-1zm1 5h-1v1zm3 0h1zm-18 27h1zm-12 32h1zm12 45zm26 6zm50 9v1zm24-4zm16-5v-1zm1-1zm0 0zv1zm3-2zl2-3zm-18 7v1zm-20 6-1-1zm13 1zm21-8zm5-5-1 1h1zm1-1-1-1zm9-16zm1-3zl-1-3zm0 1h1v-1zm-1 4zm-2 7zm-1 0-2 1h2zm1 0v1h1zm3-2 1-1v-1l-1 1zm1 1zm-14 17v-1zm-26 7 1 1zm-35 4v1zm-39-4v1zm-38-20h1v-1zm8 9zm41 14zm32 3v1zm48-7zm24-22h1zm0-5zm4-12h1l1-3zm-5 7zm0 0-1-1-1 2zm3-9zm3-3h-1v1zm0 1zl1 1v-2zm1-4zv1zm0 0h1v-1zm0 2zv2zm0-10zm-2 7zl2 1zm-5-26h-1v1zm-22-31zm-5-10-1-1-1 1h1zm0-1zm-2-4h-1v1zm0-7h-1zm1-4h-1zm1-1zm0-5zm9-15 1-1-2-1zm1 0v1l1 1v-1zm-4-26zl-1 2zm2 2zm2 2zm-1-2h1zm-26-15-1-1-2 1zm0-1zm6 1zm11 6 1-1zm3 3zl1 1zm0-1 1 1 1-1zm-4-3zm4 3 1-1zm6 6zl2-1zm0-1v-1l-1 1zm1 1h-1zm-1-1 1-1zm1 0zm0 1zl3 1zm-1-1zh1zm-5 63v1h2l-1-1zm-2-4zm1-2zv-1zm-1 0h-1v1h1zm0-3zm-2-3zl-2-3 1 4zm0 7zm0-1-1 1zm2 6h-1v2zm0 0v-1h-1zm0-1h1zm1 1zh1zm-3-13h-1l-1 3zm0-1zv-1zm0-1zl-2-3v3zm0-1zl-1 1zm1 0-1 1 2 2zm0 0zv-2l-2 1zm5-8zl-2-1zm-5 6zm8-13 1 1zm-2 4h1zm-1 2-1-1zm-1 1h-1l2 1zm3-3zm1-2h-1zm1 0zl-1-2-1 2zm-1 2h-1zm1-1zl1-1-1-1zm0-3 1 1zm1 0zv-2zm0 0zl-1-1-1 1zm3-8h1zm-2 5zl-1 3zm1-1 1 1 2-3zm-1 4-1-1-1 1zm0 0zh1zm2-2-1-1zm1-3zv-1zm-1 0 1-1-2-1zm-1-22h1v-1zm-1-3zm1 2zm-1-1zl-2-3zm1 9h1v-1zm0 10zv2zm1 0zm0-2zm0-3zm-1-4zh-2zm1 5zl2-1zm0-7zh-2zm1 7h-1zm-1-8h-1zM65 200zm-3 6zl-2 3zm2-1zm5-10zl-2-1zm-3-2h-1l1 2zm0-1h1l1-1h-2zm0 0v-1h-2l1 1zm-8 15zm-4 3-2 1h2zm1 0v1h1zm1 0zm-10 10zl-2 3zm13-12 1 1zm0 0zv-3l-2 2zm4-5-1-1zm-15 12v1h1zm-1 0zm-2 4zl-1 2h2zm2 0v1zm12-12v1zm0 0h1zm4-5zm-3 7zm-6 6zm6-6zl-2-1zm-33 38h1v-4zm0 3zm14-17zm9-11 1 1zm-3 5zm-1-1zh-1zm-16 19zm-3 5zv3l2-3zm40 66zm-27-13zm-12-22zm1-2-1-3v3zm7 13h1zm2 4-1 1zm3 2-1 1 3 2zm-2-5v-1l-1 1zm11 7h1zm26 14v-1zm23 2zm0 0zv-1h-1zm-37-6zm-10-8v-1l-2-1zm54 10 1-1zm15 3zv-1h-1zm0 0v1h1zm-15 1v-1h-1zm0 1zm17-1zm1-1zm4 0v1h1v-1zm0 0h1l1-2-2 1zm-5 0zm0 1zm21 0h1v-1zm0 1zv-1zm-13 4v-1zm15-2v1zm9-2zv-2zm-9 0zm0-1zm13 0zl-1-2zm-8 2zl1 2zm10-3v1h1zm1 0zl-1-1zm-10 2h-1zm-1-1zh-2zm16-3zv-1zm0-1zm2 0v1zm3-1zm4-3zm3-2zm0-1zv-2zm-7 5-1-1zm11-12h1zm0-1h1v-3l-1 2zm-9 7zm4-7zm1 0v1h1zm0 0-1-1v1zm5-3zm2-5zm-6 8zm4-8zm0-1h-1zm3-5zm0-2zm2-3h1zm-4 6zm2-6zm3-4zm1-4-1-1v1zm0-1 1 1zm1-10zm-5-14 1-1h-1zm0 0v-1h-2l1 1zm3 17zl1 2 1-2zm1-1zm0-2zm-5-23 1-1v-2zm-2 3-1 1v2zm-1-3h1zm-12-13zm10 21h1zm2-1h1zm-1-2zl-2-1zm1 1zh2zm-16-27-1 1zm-1-2h1zm-3-3zm0-1v-1l-1 1zm5 6zm-3-5v-1h-2l1 1zm1 0zh2zm-3-4-1-1-1 1 1 1zm0-1zv-1zm-2-1zm0-2-1 1zm6 9-1 1zm-1-2 1-1zm9 11zm1 0zl1-1zm-10-12zm0-1zl-2-2zm9 10zm0 1zm3 3zm1 4h-1v1zm1 1zm1 2zm1 5-1 1zm0-3zh-2zm1 5zl2-1zm0-2h1zm-1-2h1zm-4-7 1-1zm-16-20h-1v1zm-2-5h-1zm0-12 1 1v-3zm-2 3-1-1-1 4zm1-4zv1zm4-5zv1zm1 0zl1-2zm-3 5-1-1zm2-2 1 1 2-3zm-3 6zm-1 6h-1l1 1zm3 5zl2-1zm-1-8h-1v1zm0-6h-1zm3-10zm2-2zm1-2zm5-14zm-2-10 1-1zm1 2zl2-1zm-2-7 1-1zm-17-17-1 1zm-6-2zm-15-2zm-4 0zl-2 2h3zm1 0 2-1h-2zm-3-1v-1zm4-1zm1-5h1v-1zm-2 2zm-5 4zv-1zm0 3 1 1zm-2 2zm2-4v1h1zm0-2h1l1-1zm-4 0zm0 20h1zm0 18zm-2 44zv1zm2 0zm17-17h1zm-15-27zm0-2zh-2zm18 24h-1zm-1-4h1v-1zm0 0 1-1-2-2zm2 8zm0 2zm-2 5zm2-4zh-2zm-17 14 1 1zm-6 3zm0 3-1-1v1zm2 34zv-1zm0 1-1-1-1 1zm0 0h1v-1zm1 4zm-1 3zl1 1zm-1-1h-1v1zm1-6zm-5-1zh-1v1zm0 10v1zm-1 1h-1v1zm0-11h1v-1zm-4 0zh-1v1zm1 8zh1v-1zm0 0h-1v1zm-2-6h1v-1h-1zm-3 0v-1h-1v1zm0 7zm-1 3-1-1v1zm1 1-1 1h1zm5-1v1h1v-1zm0 0v-1l-1-1zm4 0v1h1zm7 0zh2zm-1-2zl-1 1zm1-1zm23 1h1v-1h-1zm-4 11zm-54-4v-1l-1-1v2zm0 0h-1v1zm35 2v1zm10 1v-1zm13 1v1zm1 0zv-1zm1-13h1zm-9-4 1-1h-1zm-17-1-1-1-2 1zm1-1 1-1h-1zm8 0v1h1v-1zm0 0 1-1-2-1zm2 0-1 1h1zm4 0v1zm-6 0 1-1zm9 1 1-1zm5 1zm2 0zh2zm-1-1h1zm0 0h1v-1zm2 3zl1 1 1-1zm1-1h1v-3zm0 3h-1l-1 3zm1-1zl-1-2-1 1zm-2 15zv-1zm-2 2zm-1 0v-1h-1zm0 0zv1h1zm3-2h1zm-1 2v1h1zm-5-1-1 1h1zm-8-1zm-16-1zm-21-1v1zm-16-2zm-11 1v1h1zm-4 2zh-1zm2-19zv1zm2-4zh-1zm8 3zv-2zm-2 0v1zm0 5zm0-3v-1h-1v1zm3-1zm1 1zm14-1zm-1 9zm2 0-1 1 1 1zm1-8v-1h-1zm3-1h1v-2l-1 1zm2 10h-1zm1 4zm1 1zm2-6zm0-2zm1-7h1v-1h-1zm-5 0zm-2-2zh-2l2 2zm2 0v1h1v-1zm0-3h-1v1zm-1-9h1v-1zm0 0zh-1v1zm0 11h-1zm6 1zm-1-34h1v-1zm-6-3zh-2zm-1 21zm-2 14v1h1v-1zm-1 0zv1h1zm2-34-1-1zm1-1v-1l-1-1v1zm5 1-1 1h1zm4 36h-1v1zm4 0zh2l-1-2zm-1-6v-1h-1v1zm0 0 1-1h-1zm2 6h-1v1zm3 0zm0-29h1zm1-7zv-2zm-5 2-1-1v1zm0 0h-1v1h1zm5-1zv-1zm-2 13zm0 22zm7 0v-1zm-3-33zm0-3zm1-1zl1-2zm-5 1v-1zm3-2zm1-7zm-6 1zm0-1h-1v1zm0-1zv1zm5 0zv-1zm1-3h-1zm1-9zm-2-10h1v-1zm0 0h-1zm-1-8zv-1h-1zm-4-1zm0-2zm4 0v1zm0-2zm0-20zm3-25zm0-56zm2-11zm0-9h1zm0-4-1-1v1zm0-1h1v-1zm1 9zm0 22zm-2 20zm-1 35 1 1v-1zm0 3-1-1zm-1 36v1zm3 3zm0 2h-1zm8 7zl2 1zm-1 0zm-6-6 1-1-1-1-1 1zm-1 0v2l1-1zm-2 0 1-1-2-1zm0 7zv2l2-1zm1-1 1 1zm0-6-1-2v2zm6 18zm-7 8zm0 1h1zm0 1v1zm-1 2h-1v1zm1-1zh-2zm0 0 1 1v-1zm0 7h-1v1h1zm1 0v1h1zm1-41h1zm0-2zm1-38zm-1-8zh-2zm1 5h-1zm0-4zm-1-2h-1v1zm0-1h1v-1zm-2-2zm2 1zl2 1zm-1-3zm1-3zm-1 0zv2zm0-1zl-2-2zm1-32zm1-28zm-1-6zm1-2h-1zm2-3v-1zm2-1zm3-4h1zm0 3zm-4 3v1h1zm-2 9h-1v1zm0 0h1v-1h-1zm0 3zh2zm0-2zh-2zm-1 6h-1v1zm1 1-1 1 1 1zm0-1zm-1 28h-1zm-1 38zM64 310zh-1v1zm0 1h-1zm3 2zm3 0zm30 3v-1h-1zm0 1zm5 0zm1 0zv-2zm7 6zh-1v1zm0 1h-1v1h1zm6 0v1h1zm0-1zm-19-117zv1h1zm4-1h1v-1zm-3 0v-1h-1zm-2 23zv-1h-1zm-1 0v-1h-1zm0 1zl2 1zm1-25v1h3l-2-2zm0 0h-1v1h1zm0-1zl-1-1v2zm0 8h-1v1zm0 0zh1v-1zm0-1h1v-1h-1zm0 0v-1h-1v1zm1-6zm4 1zm0-5h-1zm0-1 1 1v-1zm0-1h-1zm0-2 1 1v-1zm-4-2zh-2zm-1 7zm1 1h1v-1zm4 3v-1h-1zm4 0zv-1h-1zm0 1zm-2 0v-1zm0 1zv1h1zm4 1zv-1h-1zm0 0v1h1zm-5 0h-1v1h1zm0-12v-1l-1-1v2zm3 0zm0 1v1l1 1zm-3-1h-1v1zm0-6zm-1 0zm0-1v-1h-1zm1 0zv-1h-1zm5 6h-1v1zm5-1h1v-1zm-5 2h-1v1zm20-74zl1-1 1-1 1-3-1-2v-1l-2-1 1 1v1h-1l1 2-1 2v1zm1-7h-5l-2 1 1 1v1l2-1h2zm-6 2h-1l-2 3h1l1 1zm-2 3zl-4 1v2l4-1zm-4 1zv29h2v-29zm0 29h-1v9h2zm0 9h-1zv-2h-2l1 2h1l1-1-1-2v-1h-1l-1 1v3h1zm1-1-1-1zl1 1 1 1 5 3q6 4 10 17l1-1h1q-4-13-10-17l-6-4-1-1zm17 21h-1q0 9-3 13-3 5-9 8v1l1 1 10-9q4-6 3-14zm-13 22v1l3-1 3-2 3-2 2-1-1-1v-1l-2 2-3 2-3 1zm10-6 1 1 5-8v-8l-3-7-2-4-2-3-1 1 1 3 2 4 3 6v7zm-2-28 1-1-8-8-1 1v1zm-8-8zq6 2 10 9l5 14h2l-5-15q-4-6-11-10zm16 24h-1q1 8-6 12-7 5-15 9v1l1 1 16-9q7-6 6-14zm-22 22v-1l-2 2v3h1l1-1v-2zm-1 4zl-1-1zl-1 1h1zm-1-1zl1 4 1 5 2 18h2l-2-18-1-5-1-4zm4 27h-1v7h2zm0 7v1l10 1 11 1v-1l1-1-12-1zm21 2v1l3 1 2 2-1 7h2l1-8-2-3zm5 11zv9h2v-9zm0 9zv1h-2l-3-1h-4v2h3l4 1h3l1-3zm-10 1v-1l-41-3v2zm-41-3zl-6-1H69v1l1 1h19l6 1zm-26-1zl-1 1-1 1-2 1v2l3-2 1-1zm-4 3zv-3l1-12h-2l-1 12v4l1 1h2zm-1-16h1l2-7 1-1h1l3 1 6 2v-2l-5-2-5-1-2 1-1 2zm14-6zh15v-2H78zm15 0zl1-34h-2l-1 34zm1-34h1v-5l-1-1-1 1v5zm-1-5 1-1q-8-6-12-18h-1l-1 1q4 12 13 18zm-12-19h1l3-12q2-7 9-12l-1-1v-1q-7 5-10 13zm12-25h1l1-1 1 1h2l-2-3h-2zm4 0 1 1a1 1 0 0 0 0-2zl-2 1-3 3v1l1 1 3-3 2-1zm-6 4-2 2h1l1 1 1-3zm-1 2 1-1zm0 0zl2-4h-1l-1-1zm2-4zl-2 2h1v1zm-2 1zq-8 8-8 23h2q0-15 7-22zm-8 23-1 1 6 12 1-1h1zm6 12zl-3-8h-2l3 8zm-3-8zl1-3h-1l-1-1-1 4zm1-3h-1q1 10 8 17l1-1h1q-7-7-8-16zm8 16zl1-12h-2l-1 12zm1-12h1l-3-8 1-3 1-7h-2l-1 6-1 4zm-1-18 1 1 3-4h-1v-1zm3-3h1l2-46h-2zm2-46zl-5-1-5 2-7 3 1 1v1l7-3 5-2zm-15 4zl7-2-1-1v-1zm6-2zm0 0v1zh1l2-1 2-1h1-1v-1l1 1h1v-1l-1-1h-1l-2 1-3 1h-1zm7-1-1-1h-1l-3 1-12 5v1l12-4 3-1zm-17 6zl1-1 2-1 7-2v-2l-7 2-3 1-1 1zm11-4v1l7-1v-2zm7-1 1 1 1-1-1-1h-1zm1-1zl-1 20h2l1-20zm-1 20 1 1 4-6h-1l-1-1zm4-5zv-8h-2v8zm0-8h1l1-1-1-1h-1zm1-2-1 1 1 1zv-1zm1 1zv-1l-1-2v-4h-2v5l1 1v1zm-1-7zl3-37h-2l-3 37zm3-37zl2-10-1-1h-1l-2 10zm2-11zl2-32h-2l-2 32zm2-32h1v-7h-2zm0-7zh-3v1l-1 1h3zm-3 0h-1l-1 8-1 9h2l1-8zm-2 17zl-2 45h2l2-45zm-2 45zv1l1 1zm-1 0h1v-6h-2zm0-6zl1 1zm0 0h-1l-1 21h2zm-1 21h-1zm0 0zv1l1 1 1-1zm-1 1zv4h2v-4zm0 4zv-1zm1 0h-1v2h2zm0 2zh-1l-1 1zm-1-1h-1l-1 4h2zm-1 4 1-1-2-1-3-1-5 1v1l1 1 4-1h2zm-9-1h1v-1zm0-1zl-2 1v1l1 1 1-1zm-2 1h1v-1zm0-1 1 1h1v-1h1l-1-1h-8l-1 1 1 1v1l1-1h7l-1-1zm-6 1v-1q-6 1-12 4l-11 9 1 1h1l10-8q6-3 11-4zm-22 13zl-4 10-2 4v2a1 1 0 0 0 2 0h-1v-1h1v-1l2-4 4-9zm-6 15zq-4 20 6 34h1l1-1q-10-14-6-32zm6 33zl4 8 1-1h1zm4 7 1 1v-9l-2-4-2-5q-4-10 1-29h-1l-1-1q-5 20-1 30l2 5 2 5zm-3-46zl2-5h-1v-1l-3 5zm2-5h1l12-11q8-5 15-5v-2q-9-1-16 6-7 6-12 11zm28-17zv1h-2q-3 0-5 2h1v1l4-1h2zm-7 2zl-9 8q-6 4-11 11v1h1l11-11zm-21 20zl-3 9 1 1h1l3-9zm-3 9h-1v1h2zm0 1v1zm0 0 1 1 4-10h-2zm4-9zl4-6v-1l-1-1zm5-6zl2-1-1-1-1-1-1 1zm1-1zh1zm0 0zl-3 3 1 1 1 1zm-3 4zl-4 8-3 9 1 1h1l3-9q1-5 4-7zm-7 17zl2 9 3 8h1l1-1-4-7-1-8zm5 16zl4 7 1-1zm4 6q-6-8-8-23h-2q1 15 9 24zm-9-23h-1v7l3 10 2 9 1 3v2h2v-2l-1-4-2-9-3-9zm6 31h-1l-1 1h1l1 1zm-1 1 1 1h-1v4h2v-4l-1-1zm1 5zl1-1 1-1 2-3 1-2h-2 2v-1h-2l-1 3-2 2v1zm4-6zv3l-1 3h2l1-3v-3zm-1 6zq-1 7-6 12l-11 14v1h1l11-13q6-6 7-14zm-18 27zq-12 17-13 33h2q1-14 12-32zm-12 32zq-1 23 13 46v-1h1q-14-22-12-45zm12 45v1q5 3 12 3l13 2h1v-1q-6-2-14-3-6 0-11-3zm26 6zl27 5q12 3 24 4v-2q-11-1-24-4l-26-5zm50 9v1l12-1 12-3v-2l-13 3zm24-4zl8-3 8-3v-1l-8 2-9 3zm16-5h1zv-1l-1 1zm1-1zh-2zm0 0zl1-1 1-1v-1h-2zm3-2h-1l-3 2-5 2h-2l-3 1-5 1 1 1v1l4-1 3-1 3-1 5-1zm-18 7zq-5 2-10 3l-10 3 1 1v1l10-3 10-3zm-20 6zl14 1v-2l-13-1zm13 1zl5-2 7-2 5-2 3-1 1-1-1-1-1 1h-2l-6 3-7 1-5 2zm21-8 1 1q3-1 3-3l1-1v-1h-1l1-1v-1l-1 1h-1v1l-1 1zm5-5zl2-2h-1l-1-1-1 2zm1-1zl6-7 1-5 2-3-1-1h-1l-2 4-1 4-6 7zm9-16zl1-4h-2l-1 3zm1-3zv1zl1-1zm0 1zl-1 3 1 1h1l1-4zm-1 4zv3l-2 3 1 1h1l2-3v-5zm-2 7zv1l1 1zm-1 0v1h1zm1 0 1 1 3-3h-1v-1zm3-2zl1 1h2l-1-2zm1 1h-1q0 3-4 7l-9 9v1h1q7-4 10-9 4-3 4-8zm-14 17v-1q-6 4-14 5l-6 1-6 1v1l1 1 5-1 7-1q8-1 14-6zm-26 7zq-14 4-35 4v2q22 0 36-4zm-35 4zq-22 0-38-4l-1 1v1q16 4 39 4zm-39-4zl-21-6q-11-4-17-13h-1v1q6 10 17 14l21 6zm-38-20 1-1h-2v2l1 1q1 3 7 8l1-1v-1l-7-7zm8 9zc14 9 27 11 42 14v-2c-14-3-27-5-41-14zm41 14zl32 3v-2l-32-3zm32 3v1c13 0 36-3 49-7l-1-1v-1c-13 4-35 7-48 7zm48-7 1 1c11-3 22-11 24-23h-2q-5 17-23 21zm24-22h1v-5h-2zm0-5zq4-4 5-13h-2zm4-12zl-5 6 1 1h1zm-5 7v-1zm0 0zl3-9h-2l-3 8zm3-9h1q3-6 2-9v-1h1-2v7h2v-7l-1-1-1 1-1 1q0 3-2 9zm3-3zl1 1zl1-1zm0 1h1l1-4h-2zm1-4v1zm0 0zv2h2v-2zm0 2zl1-1v-5l-1-4v-1h-2l1 1h1a1 1 0 0 1-2 0v1l1 3v5zm0-10zl-2 8h1l1 1 2-8zm-2 7 1 1v-6l-2-8-1-8-2-5h-1l-1 1 2 4 1 8 2 8zm-5-26zq-5-14-22-32l-1 1v1c11 10 18 23 21 30zm-22-31h1l-6-11v1h-1zm-5-10zh-1zm0-1zl-3-4-1 1 2 3zm-2-4zv-7h-2v7zm0-7zl1-4-1-1h-1l-1 4zm1-4zv-2h-1l-1 1zm1-1zv-4l-1-1h-1v5zm0-5 1 1 4-6 5-10h-1l-1-1-5 10zm9-15 1 1v-1l1-1h-1zm1 0 1 1q4-6 2-14-1-8-7-14v1l-1 1q5 5 6 12 2 7-1 13zm-4-26-1 1 2 2 1-1 1-1zm2 2zl2 1h1l1-1zm2 2zl-1-1h-1l-1 1zm-1-2h1q-4-6-12-10l-15-6v1l-1 1 15 6q8 4 12 9zm-26-15zh-1zm0-1v1l6 1v-2zm6 1-1 1q8 2 12 6v-1l1-1zm11 6zl2 2h1l1-1-3-3zm3 3zl-1-1v1zm0-1zl-4-3-1 1v1zm-4-3zl4 3v-1l1-1zm4 3 5 7 1-1 1-1-6-6zm6 6h1v-2l-1 1h-1zm0-1h-1l1 1zv-1l-1-1zm1 1zl-1-1-1 1h-1l1 1zm-1-1zv-1zm1 0h-1v1zm0 1v-2zv2zm-1-1h1q-4-8-9-9l-5-3-7-2v1l-1 1 7 2 5 2q4 2 8 9zm-5 63h1l-2-5-1 1h-1zm-2-4h1l1-1-1-1h-1zm1-2zh-1v2h1zm-1 0zv-3h-2v3zm0-3zl-3-4v1h-1l2 4zm-2-3h-1v7h2zm0 7zl-1-1-1 1zm0-1-1 1 2 5h1l1-1zm2 6zl-1-1zm0 0zm0-1v2l1-1h1l-1-1zm1 1v1h1v-2zm-3-13zh-1zm0-1h1v-1zl-1 1zm0-1h-1v2h2zm0-1zv-1zm1 0zh-2zm0 0-1-1zm5-8-1-1-5 7h1l1 1zm-5 6zl4-3 2-4h-1l-1-1-2 4zm8-13zl-2 3 1 1h1l2-3zm-2 4zl-2 2 1 1v1l2-3zm-1 2-1-1-1 2h1l1 1zm-1 1 1 1 3-3-1-1h-1zm3-3zl1-3h-2zm1-2zv-1l-1-1h-1v2zm1 0h-1l-1 2h1v1zm-1 2zl2-1-1-1v-1zm1-1 1-1zm0-3 1 1h1zm1 0zh-1zm0 0-1-1v1zm3-8zl-2 5 1 1h1l2-5zm-2 5zl1-1-1-1v-1l-1 1zm1-1-2 3 1 1 2-3zm-1 4zv-1zm0 0zl2-5v-4h-2v4zm2-2 2-2-1-1h-1l-1 2zm1-3zm-1 0zv3l1 1h1v-3zm-1-22 1-1-1-3-1 1h-1zm-1-3zl1 2h2l-1-3zm1 2zh-2l-1 1zm-1-1zl1 9h1l1-1-1-8zm1 9zv10h2v-10zm0 10zl-1-1zm1 0zv-2h-2v2zm0-2zv-4l-1 1h-1v3zm0-3zl-1-3h-2l1 4zm-1-4h-1l1 6 1-1h1zm1 5h1v-7h-2zm0-7h-1l1 7h1l1-1zm1 7zl-1-7h-2l1 8zm-1-8zl-1-5h-2l1 5zM65 200l-3 5v1h1l3-5zm-3 6zh1v-1l-1-1-1 1zm2-1zl3-5 2-6h-2l-2 5zm5-10-1-1-3 6 1 1zm-3-2zv-1h-2zm0-1v-1zm0 0h-1v1zm-8 15zl-3 4 1 1zm-4 3v1h1v-2zm1 0 1 1 3-3-1-1-1-1zm1 0zl-10 10 1 1 1 1zm-10 10zl3-2 3-2 8-8-1-1-1-1-8 8-2 3-2 1zm13-12zh-2zm0 0-1-1-3 2 1 1 1 1zm4-5-1-1-14 13 1 1zm-15 12zv2h1zm-1 0-3 3 1 1 1 1 2-4zm-2 4v1h2v-2zm2 0zl11-12v-1h-1zm12-12v1l1-1zl-1 1zm0 0h1l4-4-1-1h-1zm4-5zm-3 7h-1l-6 6h1l1 1zm-6 6zl6-7h-1l-1-1zm6-6zv1zm-33 38zl-1 4v1l1 1h1v-1l1-1h-1l-1-1v1h1l1-3zm0 3zl7-10 3-4q2-2 3-2v-1l-1-1-3 2-4 4zm14-17 10-10-1-1v-1l-10 11zm9-11zl-4 5 1 1 4-4zm-3 5v-2zv1zm-1-1zl-16 19h1l1 1zm-16 19h-1l-3 4 1 1h1zm-3 5h1v-3h-2zm41 67 1-1-2-1v1l-1 1zm-1-1v-1q-15-3-26-13l-1 1v1q10 10 27 13zm-27-13zq-8-8-12-21h-1l-1 1q4 13 12 22zm-12-22zl1-3h-2zm1-2-1 1 7 13 1-1h1zm7 13zl2 5 1-1-1-4zm2 4-1 1 3 2 1-1zm3 2zl-2-6-1 1h-1l2 6zm-2-5h-1q5 5 12 8v-1l1-1q-7-3-12-7zm11 7zq10 12 26 14v-2q-15-1-25-13zm26 14zq13 3 23 2v-2q-9 1-23-2zm23 2zh-2zm0 0v-1q-17 1-36-6l-1 1v1q20 7 37 6zm-37-6zl-6-4-4-4-1 1h-1l5 5zm-10-8zc19 3 31 4 54 10v-1l1-1c-24-6-36-7-55-10zm54 10zl15 3v-2l-14-3zm15 3h-1zm0 0zl-15 1v2l15-1zm-15 1zh2v-1zm0 1zl8-1h9v-2h-9l-8 1zm17-1zl2-1-1-1v-1zm1-1v1h4v-2zm4 0h1zm0 0v-1h-5v2zm-5 0zh2zm0 0zh2v-1zm0 1zh20v-2h-21zm21 0zh2v-1zm0 1v-1l-8 3-5 1v2l6-2zm-13 4zl15-2v-1l-1-1-14 2zm15-2v1l9-2v-1l-1-1zm9-2v-1h-9v2zm-9 0h1v-1zm0-1v1h13v-2zm13 0v-1l-9 2 1 1v1zm-8 2v1l10-3v-2zm10-3 1 1 1-1h-1v-1zm1 0v-1l-11 2 1 1v1zm-10 2zv-1zl-1 1h1zm-1-1v1l10-1v-2zm10-1 1 1 6-2-1-1v-1zm6-2h1v-1zm0-1v1h2v-2zm2 0v1l3-1v-1l-1-1zm3-1zl4-3v-1l-1-1zm4-3zl3-3-1-1zm3-2zh-2v1zm0-1zl-7 5 1 1v1l7-5zm-7 5zl8-6 4-7h-2l-4 6-7 5zm11-12h1v-1h-2zm0-1v-1l-10 7 1 1v1zm-9 7zl4-7-1-1h-1zm4-7v1h1zm1 0zh-2zm0 0 5-2v-1l-1-1-5 3zm5-3zl2-4-1-1h-1l-2 5zm2-5zl-6 7 1 1h1l6-7zm-6 8zl4-8h-1l-1-1zm4-8zh-2v1zm0-1zl3-5-1-1h-1l-3 5zm3-5zv-2l-1-1h-1v2zm0-2 1 1 2-4h-1l-1-1zm2-3zl-4 6 1 1h1l4-6zm-4 6zl2-6h-1l-1-1zm2-6zl2-3v-1l-1-1zm3-4 2-4h-2l-1 4zm1-4zh-1zm0-1 1 1 1-11h-2zm1-10zl-5-14-1 1h-1l5 14zm-5-14v-1zm0 0h-1l3 17h1l1-1zm3 17h2zh-1zm1-1zv-2h-2v2zm0-2zl-5-24-1 1h-1l5 23zm-5-23zl-2 4h1l1 1zm-2 3zl-1-3h-1l-1 1 1 3zm-1-3zl-12-13h-1l-1 1 12 13zm-12-13zl3 4 3 5q3 6 4 11h2q-1-6-5-12l-3-5-2-4zm10 21zv3l1 1h1l1-1 1-4h-2l-1 3v1-1l1 1v-3zm2-1h1l-1-2h-1v2zm-1-2v1l1 1v-2zm1 1zl-17-26-1 1zm-16-27zl-1-2h-2l1 3zm-1-2zl-3-3-1 1-1 1zm-3-3h1l-1-2v1h-1zm0-1h-1l5 7 1-1h1l-6-7zm5 6zl-3-6-1 1h-1zm-3-5zv-2h-1zm1 0zl-3-4v1l-1 1 3 3zm-3-4zh-1zm0-1zl-2-2-1 1v1l1 1zm-2-1h1v-2h-1l-1 1zm0-2-1 1 6 9 1-1h1zm6 9zl-1-3-1 1h-1l1 3zm-1-2zl9 11h1l1-1-9-11zm9 11zl-1-1zm1 0zl-9-12-1 1h-1l10 12zm-10-12h1v-1h-2zm0-1zl9 9h1v-1zm9 10h-1v2l1-1h1zm0 1zl3 3 1-1zm3 3-1 1 1 3h2zm1 4-1 1 1 1 1-1h1zm1 1zl1 1h2zm1 2h-1l1 6 1-1h1zm1 5zv-3h-2v3zm0-3-1 1 1 4h1l1-1zm1 5 1-1v-1h-2zm0-2h1l-1-2h-2zm-1-2h1l-4-8-1 1h-1zm-4-7 1-1-16-20-1 1-1 1zm-16-20zl-3-6v1h-1l2 5zm-2-5zv-11l-1-1h-1v12zm0-12zl-2 2 1 1h1l2-2zm-2 3zl1-4h-2l-1 3zm1-4zl3-5v-1h-1zm4-5v1h1zm1 0h-1l-3 4 1 1zm-3 5zl3-2-1-1zm2-2zl-3 5 1 1h1l3-5zm-3 6zv6h2v-6zm0 6zl1 1zm-1 0v1l2 5 1-1 1-1-3-4zm3 5h1l-1-8h-1l-1 1zm-1-8zv-6h-2v6zm0-6zl1-6 1-3 1-1-1-1v-1l-1 1-1 1-1 3-1 6zm3-10 1 1 2-2-1-1-1-1zm2-2 1 1 1-2-1-1zm1-2 1 1q5-4 5-15h-2q0 10-4 13zm5-14zl-2-9h-2l2 10zm-2-10zl1 3 1-1h1l-1-3zm1 2h1l-2-8-1 1h-1zm-2-7 1-1q-3-7-7-12l-11-5v1l-1 1q7 1 10 5 4 3 7 11zm-17-17zl-6-1-1 1 6 2zm-6-2zl-15-2v2l14 2zm-15-2zh-4v2h4zm-4 0v1l1-1-1-1zm1 0v-1l-2-1-1 1v1zm-3-1zl4-1v-2l-4 1zm4-1v1h2v-6h-1l-1 1v3zm1-5-2 1v1l1 1 2-2zm-2 2zl-3-1-2 2-1 2-1 2h2l1-2 1-1v-1zm-5 4zl-2 2v2l1 1v-1h1l1 1v-1l-1-1zm0 3zl-1 1v1l1 1 2-2zm-2 2v-5l-2 1v2l1 2zm0-4v1h2v-2zm2 0zv-2h-2v2zm0-2zh-4v2h4zm-4 0zv20h2v-20zm0 20zv18h2v-18zm0 18h-1l-2 44h2zm-2 44zl1-1v-1h-2zm2 0zq6-2 11-7 5-4 6-10h-2q0 4-5 9l-11 7zm17-17h1q0-16-15-28l-1 1q14 12 14 27zm-15-27h1v-2h-2zm0-2v1q12 4 17 23h1l1-1q-6-20-18-24zm18 24zl-1-3h-2l1 4zm-1-4 1-1zm0 0zl2 8h2zm2 8h-1v1l1 1h1zm0 2-1-1-2 6h2zm-2 5zl2-4h-2zm2-4h-1q-4 9-16 13v1l1 1q13-4 17-15zm-17 14zl-4 2h-1l-1 1v1h3l4-2zm-6 3zv2l1 1h1v-3zm0 3h-1c2 11 3 18 2 34h2c1-16 0-23-2-35zm2 34zl1 1zm0 1zh1zm0 0zl1 4h2l-1-4zm1 4zl-1 3h2zm-1 3zl-1-1v1l-1 1zm-1-1zl1-6h-2l-1 6zm1-6zl-5-1v2l4 1zm-5-1h-1v10h2zm0 10zl-2 1 1 1v1l1-1zm-1 1zv-11h-2v11zm0-11zh-4v2h4zm-4 0h-1l1 8h2zm1 8v-1zm0 0zl-2-6h-2l2 6zm-2-6v-1h-3v2zm-3 0h-1v7h2zm0 7-1-1-1 3 1 1h1zm-1 3h-1l1 2 1-1h1zm1 1v1l5-1v-2zm5-1h1zm0 0zh4v-1l1-1h-5zm4 0 1 1h6v-2h-7zm7 0zl-1-1h-1l-1 1zm-1-2v1l2-1-1-1v-1zm1-1v1l23 1v-2zm23 1zv10h-3v2h4l1-1v-11zm-4 11v-1l-28-2-26-2v2l26 2zm-54-4h-1zm0 0zl35 2v-2l-35-2zm35 2v1l10 1v-2zm10 1zl13 1v-2l-13-1zm13 1v1h2l-1-1v-1zm1 0h1l1-13h-1l-1-1zm1-13h1l-1-3-2-1-4-1h-2l-1 1v1h3l3 1h2zm-9-4v-1l-17-1v2zm-17-1zl1-1h-1v-1l-2 1zm1-1zh8v-2h-7zm8 0h1zm0 0zh1l1-1v-1h-1zm2 0v1h4v-2zm4 0zh-5l-1 1v1h6zm-6 0zl9 1v-1l1-1-9-1zm9 1zl5 1v-1l1-1-5-1zm5 1zh2v-2h-2zm2 0zh-2v2zm-1-1zh-2a1 1 0 0 1 0 2h2zh-4a1 1 0 0 0 0 2h3zm0 0zl1 2h1l1-1-2-2zm2 3h2l-1-1-1-1v1zm1-1zv3h2v-3zm0 3zl1-1zl-1-1zm1-1h-1l-1 5-1 10h2l1-10zm-2 15zl-2 2v1h1zm-2 2v-1h-1zm-1 0zh2zm0 0v1l3-1 1-2h-2v1zm3-2zl-1 3h1l1 1 1-3zm-1 2zh-1l-3-1v2l2 1h3zm-5-1zl-7-1-1 1v1l7 1zm-8-1zl-16-1v1l-1 1 17 1zm-16-1zl-21-1v2l21 1zm-21-1zl-15-2-1 1v1l16 2zm-16-2zh-7l-3 1h-2v1l1 1h2l3-1h5zm-11 1zl-1 1-2 1-1 1v1h2l1-1 1-1zm-4 2zv-4l2-14h-2l-2 14v5l1 1zm2-19zl2-3-1-1zm2-4v1l8 3v-2zm8 3v-1h-2v2zm-2 0zl-2 1v4l2 2v-5zm0 5zv-3h-2v3zm0-3zl4-1-1-1v-1l-3 1zm3-1v1zv-2zm1 1zl14-1v-2l-14 1zm14-1h-1l-1 9h2zm-1 9 1 1 1-1-1-1zm2 0zl2-9h-1l-1-1-1 9zm1-8zl4-1-1-1v-1l-3 1zm3-1zl2 10h2l-2-10zm2 10h-1l1 4h2zm1 4zh2v-2zm1 1zl2-1 1-2v-4h-2v3l-1 1v1zm2-6h1v-2h-2zm0-2h1l1-7h-2zm1-7v-1h-5v2zm-5 0v-1l-1-1h-1v1zm-2-2v1h2v-2zm2 0h1v-3h-1l-1 1zm0-3zl-1-9h-2l1 9zm-1-9zv2zm0 0h-1v11h2zm0 11zl5 1 1-1v-1l-6-1zm6 1zl-1-34h-2l1 34zm-1-34 1-1-6-3-1 1v1zm-6-3zl-1 21h2l1-21zm-1 21h-1l-2 14h2zm-2 14zv2h1zm-1 0h1l2-34h-1l-1-1zm2-34h1l1-1h-1l-1-1-1 1zm1-1zl4 1 1-1v-1l-5-1zm5 1v1l3 1v-2zm3 1zl1 35h2l-1-35zm1 35zh4v-2h-4zm4 0 1-1-1-6-1 1h-1zm-1-6zv-2zm0 0zl2 6h1l1-1-2-6zm2 6zh3v-2h-3zm3 0zv-29h-2v29zm0-29h1l1-7h-2zm1-7zl-6 2 1 1v1zm-5 2h-1zm0 0v1l5-1v-2zm5-1h-1l-2 13h2zm-2 13zv22h2v-22zm0 22zh7v-2h-7zm7 0zl1 1zv-1h-1zm1 0zq1-13-4-33h-1l-1 1q5 18 4 32zm-4-33h1v-3h-2zm0-3 1 1 1-1zh-1zm1-1zl-5 1v2l5-1zm-5 1zl2-1v-1l-1-1-2 2zm3-2zl1-7h-2l-1 7zm1-7zl-5 1v2l6-1zm-6 1zl-1-1zl-1 1zm0-1zh-2v1zm0-1v1h6l-1-1v-1zm5 0h1l1-2-1-1h-1zm1-3zl1-10h-2l-1 9zm1-9zl-2-10h-2l2 10zm-2-10zm0 0zl-1-8h-2l1 8zm-1-8v-1l-4-1v2zm-4-1h1v-2h-2zm0-2v1h4v-2zm4 0zv-3h-2v2zm0-2zv-20h-2v20zm0-20h1l3-24-1-1h-1zm3-25zV60h-2v56zm0-56h1l2-11h-2zm2-11zv-9h-2v9zm0-9h1v-5l-1 1h-1zm0-4zv-1l-1 1zm0-1zl1 3v5h2v-6l-1-3zm1 9h-1v22h2zm0 22h-1l-2 20h2zm-2 20zl-1 35h2l1-35zm-1 35zv2l1 1h1v-2zm0 3-1-1-1 37h2zm-1 36h-1v1l1 1h2v1h1l1 1v-3l-2-1zv1zm3 3zv2h2v-1zm0 2zl5 3 2 2 1 1h2l-2-3-2-2zm8 7zh-1v1l-1 1zm-1 0 1-1-6-6-1 1h-1zm-6-6-1-1-1 1zl1 1zm-1 0zh-2l-1 1v1h2zm-2 0zv7h2v-7zm0 7 1 1 1-1zh-1zm1-1zv-6h-2v6zm0-6-1 1q8 6 6 17h2q2-11-7-18zm6 18h-1l-3 5-1 2h-2v2l3-1 2-2zm-7 8zh2v-1zm0 1zv2h1l1 1v-2zm0 1zl-1 1 1 1v1l1-1zm-1 1h-1v1zm0 1zl1-1v-1l-1-1-1 1zm1-1zh1zh1zm0 0zv7h2v-6zm0 7v1h1zm1 0zl1-41h-2l-1 41zm1-41h1v-2h-2zm0-2h1l1-38h-1l-1-1zm1-38zv-2l-1-2v-4h-2v5l1 2v1zm-1-8h-1l1 5h1l1-1zm1 5zv-3l-1-1h-1v3zm0-4zl-1-2h-1l-1 1 1 2zm-1-2zv-1h-2v1zm0-1 1-1-2-2-1 1v1zm-2-2v1l2 1v-2zm2 1zl-1-3h-1l-1 1zm-1-3 1 1 1-4h-2zm1-3-1-1zm-1 0h1v-1zm0-1zh2v-1zm1 1zV71h-2v33zm0-33h1l1-28h-2zm1-28zl-1-6h-1l-1 1 1 5zm-1-6 1 1 1-3h-2zm1-2zl2-4h-1l-1-1-2 4zm2-3zl2-1-1-1v-1l-2 1zm2-1 1 1 3-5h-1l-1-1zm3-4zv3h2v-3zm0 3zl-4 3 1 1 1 1zm-4 3zl-2 4v6h2v-5l1-3zm-2 9zv-2zm0 0zv3h2v-3zm0 3 1-1v-1h-2zm0-2h-1l-1 6h1l1 1zm-1 6-1 1 1 1 1-1zm1 1zh-1v1zm0-1h-1l-1 28h2zm-1 28h-1l-1 38h2zm-1 38zl1 3h2l-1-3zM64 310h-1v1zm0 1zl3 2 1-1v-1zm3 2zh3v-2h-3zm3 0zl-7-3v1l-1 1zm30 3zh2v-1zm0 1zh5v-2h-5zm5 0zh1v-2h-1zm1 0v-1l-6-1v2zm7 6h-1v1h2zm0 1v1h6v-2zm6 0zh-2v1zm0-1zh-6v2h6zm-19-117v1l4 1v-2zm4 1h1v-2h-2zm0-2zh-3v2h3zm-3 0-1-1-1 2h1l1 1zm-2 23v-1h-1zm-1 0zv1h2v-1zm0 1 1 1 1-2h-1l-1-1zm1-25zv2zm0 0zh-2v1zm0-1-1 1 1 1v-1l1-1zm0 8zv-2zm0 0h1v-1h-2zm0-1v-1zm0 0h-1v1zm1-6zl3 1 1-1v-1zm4 1zv-5h-2v5zm0-5zh-1v1zm0-1h1v-1h-2zm0-1zv-1l-1-1h-1v2zm0-2zl-4-3-1 1v1l4 2zm-4-2zl-1 7h2l1-7zm-1 7zh1l1-1-1-1zm1 1zv2h2v-2zm4 3zh4v-2h-4zm4 0h-1v1zm0 1v-1h-2v2zm-2 0zv1h2v-1zm0 1v1l3 1 1-1v-1zm4 1h-1zm0 0zh-5v2h5zm-5 0zl-1-3h-2l1 3zm0-12zh4v-1l-3-1zm3 0h-1v1h2zm0 1zh-3l-1 1 4 1zm-3-1zh-2zm0-6v-1h-1zm-1 0h1v-1h-2zm0-1zv-2h-1zm1 0h-1v1zm5 5h-1v1zm0 1zl6-1-1-1v-1l-6 1zm5-1zl1 1zh1l-1-1zm1 1-1-1-6 1 1 1v1zm-6 1zv-2h-2v2z" mask="url(#a)"/><path fill="#fdc558" d="M127 14v2zM104 34c-2-1 0-17 1-25 0-4 5-6 6-7h9c1-1 11-2 13 1l1 1-1 9-4 14v3l-1-1c0 5-5 3-6 8l-1 8-1-6v-4l6-3 3-8 3-14V6l-1-1c-7 0-2 5-4 13v9l-3 5-3 1-1 2h-7l-2 1h-5v-1l1-1zm9-30h-3v1zm-2 31zv3zm2 0h2l-1 10v-9zm6 0 2-2-1-2zm2-3h2l-2-1zm0-3 2 2 1-2-1-2zm2-3h3v-3zm-1 3 4-6-3 2zm-5 5h2l-1-3 1-2h-1l-1 3zm-3 0h2l1-5zm-1-1 3-4h-2zm7-6h1l1-2-2 1zm-13 5v2l4-1v-3l1 5v-6zm-3 1h1l1-2-2-1zm17-7 1-1-1-1zm-14 4 4-1h1v-2l-1-1q-3 0-4 4m14-7 1 2 4-5v-2l-4 6zm-5 4zl2-4 1-3h-1l-2 5h-1zm-4-1h1v-1zm-8-3 1 1v6l1-1 2-9v-1l-3 7zv-5l3-2v-1l-3 2zm6 1zm7 1v1l3-3v-4zm-5-1 2 2 1-3v-5h-1l-3 3zm-2 0 1-1h-1zm11-1 2-3v-4zm-11 0v-2l-1 2zm6-6 1 3 2-4-1 1zm-5 4 4-4-1-7-1-1-2 4-1 6zm6-4 2-3v1l1-1h-1l-2 1zm4 4 5-4v-6h-3l-2 3zm-11-1v-2zm-3-9 1 3-1 1 1 1 2-5V8h-2l-1 2zm12 3 2-6h-2l-2 5zm1-1 1-2 2-5-4 2-2 2zm-6 4 1-1-1-1zm-6-8 2 3 2-3 2-1-3-2-3 2zm13 1 3-2-1-2zm1-1 4 2V8l-2-2zm-8 1h2l-1-2h-2zm2-4h4l2-1-2-3-3 3zm8-1 2 1V5zm-13 0h5l1-2-5 1zm6 0h5V3l-1-1zm9 0h6V2h-6zM131 20zm-1 2zm-1 1h1zm-27 83-1 13v7-1zm-1 36h1l-1 17v33h-1l1-47-1-1zm-2 51 5 2v-2h1l-1 2 2 1-2 1zl-2-1zm18-32 1 1-1 4-3-3v-2zm-15 5c0-2 7-6 6-4l-2 1 4-1v3zm-8 21 3 3zm1 8zl-1 7h-1zM99 167zq-5 2-5 14v5l-1-3 1-4v-2l1-7zM94 175h1l-1 2zm-8 7v-2zm4-16q-3 6-4 14zm4-8h2l-1 1zm14 6zl-3 30h-1l2-29zm-3 20zm7-125-1-3V42h1l-1 13h1zm-1 3-1-3zm1 4v6zm0 6v4zm0 8v1zm6 15V85h1zm1 8v-7zm0 81-2 1v-1zm8-12zh1zm-8 24h-2v-1l6-5 3-5 1-5v-5l1-2 1 6-2 8-4 5zm8-21zv-1zm-3-9 3 4-4-4zM125 176zv4h-1zm-6-111 1-9zm0 4v9h1v-6zm1-4v1h-1zM69 250l1-1h5l-1-1 4 1-3 1h-5l-1 9h1-1zm7 7zm8-8 2 1zM82 250zh2zm1-6 8-1zm11-1h3v-1h-2zm5 0h4v-1zm6 0h3v-1zm5-1h4v1zm5 0 4 1v-1zm-21 12h5zl1 1h-3l-1-2h-1l2-1 5 1zm-1 0zm11 0zv2h-1zm2 0 2 1-2 1zm4 1zh1v-1zm10-4 2 1-1 2zm0-3zl-1 2zm-12-15v2zm-4-7v4zm-40-36v-6l1 4v2zm-4-37v1h-1zm4-8zh1zm5-6 11-8h1l-7 5zm78 78c13-1 16 16 5 23-16 4-22-15-10-22zm-1 1c-10 1-14 15-3 21 16 5 18-13 11-18l-5-3-1 1v2q7 8 1 15-3-2-7-6l-3-3v-2l1 1 4 3 5 6q5-5-1-14l-4 5v-1l-3-2v-1l3 2zl1-1zM143 226l2 1 4 4 2 1-1 1-6-5zm5-7 1 2h-1zM40 243c-7 19-6 39-1 50l-3-4c-3-7-1-32 4-46m-13 34 2 3-2-1zm42 40zm3 0v1h-1zm63 4zm21-7zm-90-10zm2 0zm-41-61q-5 7 0 26c-2-2-3-21 1-27zM39 224l6-4 1 5-1 1v-5c-6 3-16 15-18 22l1-1c2-6 10-14 11-18m0 24zv1zm144 4 1 1h-1zm-1 7-4-1zm9-6zl-3-10c3 4 6 23 4 31 3-4-1-21 0-20M185 234c2 1 5 14 5 15v4l-3-10-2-5zm0 23v3h-1zm-1 4v14h-6v-14z"/></svg>